M48
INCH,TZ
T1C0.0689
T2C0.1200
T3C0.1570
%
G90
G05
T1
X60006Y-14594
X64006Y-14594
X51406Y-24606
X178306Y-32206
X182306Y-32206
X170806Y-39706
X174806Y-39706
X180306Y-49006
X180306Y-53006
X10206Y-14606
X14206Y-14606
X23306Y-47106
X27306Y-47106
X12044Y-24606
X16044Y-24606
X45806Y-47106
X55406Y-24606
X64306Y-54606
X68306Y-54606
X27006Y-39606
X31006Y-39606
X96406Y-24606
X100406Y-24606
X49506Y-39606
X53506Y-39606
X49806Y-47106
X90806Y-47106
X94806Y-47106
X22406Y-14606
X26406Y-14606
X118906Y-24606
X122906Y-24606
X178306Y-24706
X182306Y-24706
X68306Y-47106
X72306Y-47106
X21406Y-24606
X25406Y-24606
X70106Y-32106
X74106Y-32106
X170806Y-54706
X174806Y-54706
X43906Y-24606
X47906Y-24606
X130006Y-47106
X134006Y-47106
X70406Y-24606
X88906Y-24606
X19506Y-39606
X23506Y-39606
X66406Y-24606
X112206Y-54606
X116206Y-54606
X38306Y-47106
X42306Y-47106
X91606Y-14506
X95606Y-14506
X92906Y-24606
X131847Y-24600
X135847Y-24600
X79506Y-39606
X83506Y-39606
X170806Y-24706
X174806Y-24706
X25106Y-32106
X29106Y-32106
X100106Y-32106
X104106Y-32106
X102106Y-39606
X106106Y-39606
X41206Y-14606
X45206Y-14606
X163306Y-32206
X47606Y-32106
X51606Y-32106
X167306Y-32206
X155806Y-39706
X159806Y-39706
X112406Y-47106
X116406Y-47106
X163306Y-47206
X167306Y-47206
X178306Y-39706
X182306Y-39706
X53306Y-47106
X57306Y-47106
X16506Y-54606
X20506Y-54606
X58906Y-24606
X62906Y-24606
X83306Y-47106
X87306Y-47106
X28906Y-24606
X32906Y-24606
X77606Y-32106
X81606Y-32106
X118006Y-35906
X122006Y-35906
X143106Y-24600
X34506Y-39606
X38506Y-39606
X103906Y-24606
X107906Y-24606
X57006Y-39606
X61006Y-39606
X13906Y-32106
X17906Y-32106
X137506Y-47106
X141506Y-47106
X147106Y-24600
X73906Y-24606
X77906Y-24606
X159606Y-54706
X163606Y-54706
X72806Y-14506
X155806Y-24706
X159806Y-24706
X87006Y-39606
X91006Y-39606
X109606Y-39606
X113606Y-39606
X145006Y-47106
X149006Y-47106
X50606Y-14594
X54606Y-14594
X174806Y-32206
X163306Y-39706
X167306Y-39706
X170806Y-47206
X174806Y-47206
X13006Y-47106
X76806Y-14506
X170806Y-32206
X101006Y-14506
X105006Y-14506
X85106Y-32106
X89106Y-32106
X32606Y-32106
X36606Y-32106
X107606Y-32106
X111606Y-32106
X55106Y-32106
X59106Y-32106
X17006Y-47106
X75806Y-47106
X79806Y-47106
X60806Y-47106
X64806Y-47106
X98306Y-47106
X102306Y-47106
X62606Y-32106
X66606Y-32106
X36406Y-24606
X40406Y-24606
X81406Y-24606
X85406Y-24606
X72006Y-39606
X76006Y-39606
X163306Y-24706
X167306Y-24706
X94606Y-39606
X98606Y-39606
X31806Y-14594
X35806Y-14594
X155806Y-32206
X159806Y-32206
X137506Y-39606
X141506Y-39606
X155806Y-47206
X159806Y-47206
X25906Y-54606
X29906Y-54606
X42006Y-39606
X46006Y-39606
X111406Y-24606
X115406Y-24606
X64506Y-39606
X68506Y-39606
X11106Y-39606
X15106Y-39606
X102806Y-54606
X106806Y-54606
X30806Y-47106
X34806Y-47106
X82206Y-14506
X86206Y-14506
X110406Y-14506
X114406Y-14506
X92606Y-32106
X96606Y-32106
X40106Y-32106
X44106Y-32106
T2
X43806Y-51856
X88806Y-51856
X109718Y-44356
X119093Y-44356
X117256Y-31206
X117256Y-40606
X11218Y-29356
X20593Y-29356
X156918Y-51956
X166293Y-51956
X177556Y-46318
X177556Y-55693
T3
X57106Y-32106
X27906Y-54606
X62806Y-47106
X44006Y-39606
X113406Y-24606
X100306Y-47106
X64606Y-32106
X66506Y-39606
X38406Y-24606
X13106Y-39606
X104806Y-54606
X83406Y-24606
X74006Y-39606
X165306Y-24706
X96606Y-39606
X33806Y-14567
X157806Y-32206
X139506Y-39606
X157806Y-47206
X62006Y-14567
X180306Y-32206
X172806Y-39706
X84206Y-14567
X112406Y-14567
X172806Y-32206
X52606Y-14567
X15006Y-47106
X77806Y-47106
X94606Y-32106
X165306Y-39706
X53406Y-24606
X172806Y-47206
X42106Y-32106
X180306Y-51006
X32806Y-47106
X183556Y-46318
X183556Y-55693
X12206Y-14606
X25306Y-47106
X14406Y-25984
X43806Y-57856
X66306Y-54606
X47806Y-47106
X92806Y-47106
X70306Y-47106
X23406Y-24606
X72106Y-32106
X88806Y-57856
X29006Y-39606
X98406Y-24606
X51506Y-39606
X24409Y-14567
X120906Y-24606
X180306Y-24706
X132006Y-47106
X172806Y-54706
X45906Y-24606
X68406Y-24606
X90906Y-24606
X21506Y-39606
X114206Y-54606
X40306Y-47106
X93606Y-14567
X133900Y-24661
X81506Y-39606
X172806Y-24706
X104106Y-39606
X27106Y-32106
X102106Y-32106
X43206Y-14578
X49606Y-32106
X165306Y-32206
X157806Y-39706
X165306Y-47206
X180306Y-39706
X55306Y-47106
X85306Y-47106
X109718Y-50356
X114406Y-47106
X30906Y-24606
X79606Y-32106
X120006Y-35906
X123256Y-31206
X123256Y-40606
X145106Y-24600
X75906Y-24606
X157874Y-25984
X89006Y-39606
X111606Y-39606
X119093Y-50356
X18506Y-54606
X147006Y-47106
X60906Y-24606
X36506Y-39606
X105906Y-24606
X59006Y-39606
X11218Y-35356
X15906Y-32106
X20593Y-35356
X139506Y-47106
X156918Y-57956
X161606Y-54706
X166293Y-57956
X74803Y-14567
X103006Y-14567
X87106Y-32106
X34606Y-32106
X109606Y-32106
T0
M30
