M48
; DRILL file {KiCad (5.1.4-0-10_14)} date Wednesday, 11 December 2019 at 03:36:36 pm
; FORMAT={-:-/ absolute / metric / decimal}
; #@! TF.CreationDate,2019-12-11T15:36:36+11:00
; #@! TF.GenerationSoftware,Kicad,Pcbnew,(5.1.4-0-10_14)
; #@! TF.FileFunction,NonPlated,1,2,NPTH
FMAT,2
METRIC
T1C1.750
T2C3.048
T3C3.200
T4C3.988
%
G90
G05
T1
X144.12Y-65.098
X154.28Y-65.098
X29.82Y-84.148
X39.98Y-84.148
X254.356Y-122.248
X182.22Y-65.098
X192.38Y-65.098
X244.196Y-122.248
X392.646Y-65.152
X402.806Y-65.152
X449.796Y-84.202
X459.956Y-84.202
X177.394Y-103.198
X187.554Y-103.198
X129.896Y-122.248
X140.056Y-122.248
X153.518Y-84.148
X163.678Y-84.148
X30.582Y-37.098
X81.636Y-141.298
X91.796Y-141.298
X20.422Y-37.098
X280.01Y-122.248
X290.17Y-122.248
X430.746Y-103.252
X440.906Y-103.252
X325.714Y-122.248
X335.874Y-122.248
X203.302Y-36.844
X449.796Y-65.152
X63.094Y-103.198
X73.254Y-103.198
X411.696Y-65.152
X421.856Y-65.152
X215.494Y-103.198
X359.038Y-65.084
X459.956Y-65.152
X213.462Y-36.844
X58.268Y-84.148
X68.428Y-84.148
X201.27Y-65.098
X179.426Y-36.844
X189.586Y-36.844
X225.654Y-103.198
X251.054Y-36.844
X261.214Y-36.844
X211.43Y-65.098
X369.198Y-65.084
X220.32Y-65.098
X230.48Y-65.098
X172.568Y-84.148
X48.87Y-65.098
X59.03Y-65.098
X146.914Y-37.07
X157.074Y-37.07
X67.92Y-65.098
X78.08Y-65.098
X25.092Y-65.098
X35.252Y-65.098
X182.728Y-84.148
X344.764Y-122.248
X354.924Y-122.248
X148.946Y-122.248
X159.106Y-122.248
X92.304Y-103.198
X248.768Y-84.148
X258.928Y-84.148
X82.144Y-103.198
X167.996Y-122.248
X178.156Y-122.248
X191.618Y-84.148
X392.646Y-103.252
X157.836Y-141.298
X167.996Y-141.298
X279.502Y-141.298
X289.662Y-141.298
X227.178Y-36.844
X237.338Y-36.844
X51.41Y-37.098
X87.478Y-84.148
X373.974Y-122.248
X86.97Y-65.098
X99.162Y-37.098
X201.778Y-84.148
X77.318Y-84.148
X430.746Y-65.152
X402.298Y-141.352
X412.458Y-141.352
X61.57Y-37.098
X449.796Y-103.252
X459.956Y-103.252
X440.906Y-65.152
X234.798Y-103.198
X244.958Y-103.198
X53.696Y-122.248
X63.856Y-122.248
X340.602Y-65.084
X239.37Y-65.098
X249.53Y-65.098
X330.442Y-65.084
X363.814Y-122.248
X163.17Y-65.098
X173.33Y-65.098
X402.806Y-103.252
X97.13Y-65.098
X109.322Y-37.098
X75.286Y-37.07
X85.446Y-37.07
X258.42Y-65.098
X268.58Y-65.098
X392.646Y-84.202
X70.46Y-141.298
X72.746Y-122.248
X22.708Y-103.198
X264.008Y-103.198
X253.848Y-103.198
X46.584Y-141.298
X36.424Y-141.298
X130.404Y-103.198
X120.244Y-103.198
X454.876Y-136.934
X133.198Y-37.07
X123.038Y-37.07
X111.354Y-103.198
X101.194Y-103.198
X454.876Y-126.774
X187.046Y-122.248
X402.806Y-84.202
X60.3Y-141.298
X197.206Y-122.248
X294.234Y-93.8
X304.394Y-93.8
X421.856Y-84.202
X96.368Y-84.148
X106.528Y-84.148
X411.696Y-84.202
X277.978Y-84.148
X267.818Y-84.148
X27.534Y-122.248
X37.694Y-122.248
X220.828Y-84.148
X210.668Y-84.148
X32.868Y-103.198
X82.906Y-122.248
X206.1Y-122.25
X255.626Y-141.298
X265.786Y-141.298
X392.646Y-122.302
X402.806Y-122.302
X106.02Y-65.098
X116.18Y-65.098
X272.898Y-103.198
X283.058Y-103.198
X115.418Y-84.148
X125.578Y-84.148
X277.47Y-65.098
X287.63Y-65.098
X411.696Y-122.302
X421.856Y-122.302
X430.746Y-122.302
X225.14Y-122.27
X274.93Y-36.844
X285.09Y-36.844
X157.8Y-141.31
X216.26Y-122.25
X139.294Y-103.198
X149.454Y-103.198
X167.96Y-141.31
X229.718Y-84.148
X239.878Y-84.148
X234.036Y-141.298
X244.196Y-141.298
X430.746Y-84.202
X91.796Y-122.248
X101.956Y-122.248
X440.906Y-84.202
X235.3Y-122.27
X158.344Y-103.198
X168.504Y-103.198
X440.906Y-122.302
X125.07Y-65.098
X135.23Y-65.098
X344.764Y-103.198
X354.924Y-103.198
X296.52Y-65.098
X306.68Y-65.098
X196.444Y-103.198
X206.604Y-103.198
X430.746Y-141.352
X440.906Y-141.352
X44.044Y-103.198
X54.204Y-103.198
X110.846Y-122.248
X121.006Y-122.248
X134.468Y-84.148
X144.628Y-84.148
X411.696Y-103.252
X421.856Y-103.252
T2
X461.861Y-119.948
X395.472Y-148.337
X461.861Y-143.76
X22.994Y-77.163
X273.184Y-115.263
X296.996Y-115.263
X105.766Y-148.283
X220.066Y-148.283
X419.284Y-148.337
X292.329Y-81.862
X292.329Y-105.738
X96.205Y-148.295
X229.555Y-148.295
X46.806Y-77.163
T3
X310.388Y-141.859
X22.479Y-51.816
X22.479Y-141.859
X385.445Y-141.732
X457.708Y-113.792
X210.566Y-141.732
X110.49Y-141.732
T4
X105.766Y-133.043
X162.916Y-141.298
X220.066Y-133.043
X111.1Y-65.098
X277.978Y-103.198
X120.498Y-84.148
X282.55Y-65.098
X416.776Y-122.302
X435.826Y-122.302
X130.15Y-65.098
X280.01Y-37.0
X239.116Y-141.298
X96.205Y-133.055
X162.88Y-141.31
X229.555Y-133.055
X149.2Y-65.098
X22.994Y-92.403
X34.9Y-84.148
X86.716Y-141.298
X435.826Y-103.252
X330.794Y-122.248
X184.5Y-37.0
X220.574Y-103.198
X30.172Y-65.098
X177.648Y-84.148
X144.374Y-103.198
X230.22Y-122.27
X249.276Y-122.248
X201.524Y-103.198
X49.124Y-103.198
X273.184Y-130.503
X285.09Y-122.248
X296.996Y-130.503
X435.826Y-84.202
X163.424Y-103.198
X139.548Y-84.148
X158.598Y-84.148
X68.174Y-103.198
X182.474Y-103.198
X134.976Y-122.248
X435.826Y-141.352
X25.502Y-37.098
X115.926Y-122.248
X349.844Y-103.198
X301.6Y-65.098
X454.876Y-65.152
X364.118Y-65.084
X397.726Y-65.152
X53.95Y-65.098
X454.876Y-84.202
X416.776Y-103.252
X46.806Y-92.403
X187.3Y-65.098
X206.35Y-65.098
X284.582Y-141.298
X225.4Y-65.098
X154.026Y-122.248
X416.776Y-65.152
X244.45Y-65.098
X239.878Y-103.198
X56.5Y-37.0
X87.224Y-103.198
X454.876Y-103.252
X256.134Y-37.0
X349.844Y-122.248
X232.258Y-37.0
X435.826Y-65.152
X208.382Y-37.0
X63.348Y-84.148
X82.398Y-84.148
X58.776Y-122.248
X73.0Y-65.098
X92.05Y-65.098
X395.472Y-133.097
X407.378Y-141.352
X419.284Y-133.097
X368.894Y-122.248
X151.994Y-37.0
X104.242Y-37.028
X80.366Y-37.0
X253.848Y-84.148
X196.698Y-84.148
X397.726Y-84.202
X446.621Y-119.948
X446.621Y-143.76
X41.504Y-141.298
X397.726Y-103.252
X32.614Y-122.248
X258.928Y-103.198
X168.25Y-65.098
X263.5Y-65.098
X454.876Y-131.854
X106.274Y-103.198
X335.522Y-65.084
X173.076Y-122.248
X77.826Y-122.248
X192.126Y-122.248
X397.726Y-122.302
X65.38Y-141.298
X27.788Y-103.198
X272.898Y-84.148
X101.448Y-84.148
X125.324Y-103.198
X299.314Y-93.8
X307.569Y-81.862
X307.569Y-105.738
X128.118Y-37.0
X416.776Y-84.202
X211.18Y-122.25
X260.706Y-141.298
X215.748Y-84.148
X234.798Y-84.148
X96.876Y-122.248
T0
M30
