G04 #@! TF.GenerationSoftware,KiCad,Pcbnew,(5.1.10)-1*
G04 #@! TF.CreationDate,2021-07-23T17:16:22+10:00*
G04 #@! TF.ProjectId,A1200KB,41313230-304b-4422-9e6b-696361645f70,rev?*
G04 #@! TF.SameCoordinates,Original*
G04 #@! TF.FileFunction,Soldermask,Bot*
G04 #@! TF.FilePolarity,Negative*
%FSLAX46Y46*%
G04 Gerber Fmt 4.6, Leading zero omitted, Abs format (unit mm)*
G04 Created by KiCad (PCBNEW (5.1.10)-1) date 2021-07-23 17:16:22*
%MOMM*%
%LPD*%
G01*
G04 APERTURE LIST*
%ADD10C,2.352000*%
%ADD11C,4.089800*%
%ADD12C,1.852000*%
%ADD13C,3.302000*%
%ADD14C,3.150000*%
%ADD15C,1.626000*%
%ADD16C,2.007000*%
G04 APERTURE END LIST*
D10*
X400694000Y-109025600D03*
D11*
X398154000Y-114105600D03*
D10*
X394344000Y-111565600D03*
D12*
X393074000Y-114105600D03*
X403234000Y-114105600D03*
D10*
X79400800Y-185290400D03*
D11*
X76860800Y-190370400D03*
D10*
X73050800Y-187830400D03*
D12*
X71780800Y-190370400D03*
X81940800Y-190370400D03*
D13*
X493000000Y-162000000D03*
X57000000Y-193000000D03*
X57000000Y-97000000D03*
D10*
X438670800Y-195352000D03*
D11*
X441210800Y-190272000D03*
D10*
X445020800Y-192812000D03*
D12*
X446290800Y-190272000D03*
X436130800Y-190272000D03*
D14*
X453117050Y-197257000D03*
X429304550Y-197257000D03*
D11*
X453117050Y-182017000D03*
X429304550Y-182017000D03*
X141122800Y-182115400D03*
X255422800Y-182115400D03*
D14*
X141122800Y-197355400D03*
X255422800Y-197355400D03*
D12*
X193192800Y-190370400D03*
X203352800Y-190370400D03*
D10*
X202082800Y-192910400D03*
D11*
X198272800Y-190370400D03*
D10*
X195732800Y-195450400D03*
D12*
X474738800Y-190272000D03*
X464578800Y-190272000D03*
D10*
X465848800Y-187732000D03*
D11*
X469658800Y-190272000D03*
D10*
X472198800Y-185192000D03*
D11*
X82163050Y-141475400D03*
X58350550Y-141475400D03*
D14*
X82163050Y-126235400D03*
X58350550Y-126235400D03*
D12*
X75336800Y-133220400D03*
X65176800Y-133220400D03*
D10*
X66446800Y-130680400D03*
D11*
X70256800Y-133220400D03*
D10*
X72796800Y-128140400D03*
D12*
X436638800Y-152172000D03*
X426478800Y-152172000D03*
D10*
X427748800Y-149632000D03*
D11*
X431558800Y-152172000D03*
D10*
X434098800Y-147092000D03*
D12*
X224942800Y-85357600D03*
X214782800Y-85357600D03*
D10*
X216052800Y-82817600D03*
D11*
X219856800Y-85513600D03*
D10*
X222402800Y-80277600D03*
X239420800Y-147190400D03*
D11*
X236880800Y-152270400D03*
D10*
X233070800Y-149730400D03*
D12*
X231800800Y-152270400D03*
X241960800Y-152270400D03*
D10*
X189890800Y-80503600D03*
D11*
X187350800Y-85513600D03*
D10*
X183540800Y-83043600D03*
D12*
X182270800Y-85583600D03*
X192430800Y-85583600D03*
D11*
X131561800Y-182127400D03*
X264911800Y-182127400D03*
D14*
X131561800Y-197367400D03*
X264911800Y-197367400D03*
D12*
X193156800Y-190382400D03*
X203316800Y-190382400D03*
D11*
X198236800Y-190382400D03*
X342925800Y-130934400D03*
X342925800Y-154810400D03*
D14*
X327685800Y-130934400D03*
X327685800Y-154810400D03*
D12*
X339750800Y-142872400D03*
X329590800Y-142872400D03*
D10*
X330860800Y-140332400D03*
D11*
X334670800Y-142872400D03*
D10*
X337210800Y-137792400D03*
D12*
X436638800Y-133122000D03*
X426478800Y-133122000D03*
D10*
X427748800Y-130582000D03*
D11*
X431558800Y-133122000D03*
D10*
X434098800Y-128042000D03*
D12*
X455688800Y-171222000D03*
X445528800Y-171222000D03*
D10*
X446798800Y-168682000D03*
D11*
X450608800Y-171222000D03*
D10*
X453148800Y-166142000D03*
X187096800Y-109090400D03*
D11*
X184556800Y-114170400D03*
D10*
X180746800Y-111630400D03*
D12*
X179476800Y-114170400D03*
X189636800Y-114170400D03*
D10*
X63398800Y-80531600D03*
D11*
X60858800Y-85611600D03*
D10*
X57048800Y-83071600D03*
D12*
X55778800Y-85611600D03*
X65938800Y-85611600D03*
D10*
X91846800Y-109090400D03*
D11*
X89306800Y-114170400D03*
D10*
X85496800Y-111630400D03*
D12*
X84226800Y-114170400D03*
X94386800Y-114170400D03*
D10*
X110896800Y-109090400D03*
D11*
X108356800Y-114170400D03*
D10*
X104546800Y-111630400D03*
D12*
X103276800Y-114170400D03*
X113436800Y-114170400D03*
D10*
X129946800Y-109090400D03*
D11*
X127406800Y-114170400D03*
D10*
X123596800Y-111630400D03*
D12*
X122326800Y-114170400D03*
X132486800Y-114170400D03*
D10*
X148996800Y-109090400D03*
D11*
X146456800Y-114170400D03*
D10*
X142646800Y-111630400D03*
D12*
X141376800Y-114170400D03*
X151536800Y-114170400D03*
D10*
X168046800Y-109090400D03*
D11*
X165506800Y-114170400D03*
D10*
X161696800Y-111630400D03*
D12*
X160426800Y-114170400D03*
X170586800Y-114170400D03*
D10*
X206146800Y-109090400D03*
D11*
X203606800Y-114170400D03*
D10*
X199796800Y-111630400D03*
D12*
X198526800Y-114170400D03*
X208686800Y-114170400D03*
D10*
X225196800Y-109090400D03*
D11*
X222656800Y-114170400D03*
D10*
X218846800Y-111630400D03*
D12*
X217576800Y-114170400D03*
X227736800Y-114170400D03*
D10*
X244246800Y-109090400D03*
D11*
X241706800Y-114170400D03*
D10*
X237896800Y-111630400D03*
D12*
X236626800Y-114170400D03*
X246786800Y-114170400D03*
D10*
X263296800Y-109090400D03*
D11*
X260756800Y-114170400D03*
D10*
X256946800Y-111630400D03*
D12*
X255676800Y-114170400D03*
X265836800Y-114170400D03*
D10*
X282346800Y-109090400D03*
D11*
X279806800Y-114170400D03*
D10*
X275996800Y-111630400D03*
D12*
X274726800Y-114170400D03*
X284886800Y-114170400D03*
D10*
X301396800Y-109090400D03*
D11*
X298856800Y-114170400D03*
D10*
X295046800Y-111630400D03*
D12*
X293776800Y-114170400D03*
X303936800Y-114170400D03*
D10*
X320446800Y-109090400D03*
D11*
X317906800Y-114170400D03*
D10*
X314096800Y-111630400D03*
D12*
X312826800Y-114170400D03*
X322986800Y-114170400D03*
D10*
X339496800Y-109090400D03*
D11*
X336956800Y-114170400D03*
D10*
X333146800Y-111630400D03*
D12*
X331876800Y-114170400D03*
X342036800Y-114170400D03*
X436638800Y-114072000D03*
X426478800Y-114072000D03*
D10*
X427748800Y-111532000D03*
D11*
X431558800Y-114072000D03*
D10*
X434098800Y-108992000D03*
D12*
X455688800Y-114072000D03*
X445528800Y-114072000D03*
D10*
X446798800Y-111532000D03*
D11*
X450608800Y-114072000D03*
D10*
X453148800Y-108992000D03*
D12*
X474738800Y-114072000D03*
X464578800Y-114072000D03*
D10*
X465848800Y-111532000D03*
D11*
X469658800Y-114072000D03*
D10*
X472198800Y-108992000D03*
D12*
X493788800Y-114072000D03*
X483628800Y-114072000D03*
D10*
X484898800Y-111532000D03*
D11*
X488708800Y-114072000D03*
D10*
X491248800Y-108992000D03*
X101244800Y-128140400D03*
D11*
X98704800Y-133220400D03*
D10*
X94894800Y-130680400D03*
D12*
X93624800Y-133220400D03*
X103784800Y-133220400D03*
D10*
X120294800Y-128140400D03*
D11*
X117754800Y-133220400D03*
D10*
X113944800Y-130680400D03*
D12*
X112674800Y-133220400D03*
X122834800Y-133220400D03*
D10*
X139344800Y-128140400D03*
D11*
X136804800Y-133220400D03*
D10*
X132994800Y-130680400D03*
D12*
X131724800Y-133220400D03*
X141884800Y-133220400D03*
D10*
X158394800Y-128140400D03*
D11*
X155854800Y-133220400D03*
D10*
X152044800Y-130680400D03*
D12*
X150774800Y-133220400D03*
X160934800Y-133220400D03*
D10*
X177444800Y-128219200D03*
D11*
X174904800Y-133299200D03*
D10*
X171094800Y-130759200D03*
D12*
X169824800Y-133299200D03*
X179984800Y-133299200D03*
D10*
X196494800Y-128140400D03*
D11*
X193954800Y-133220400D03*
D10*
X190144800Y-130680400D03*
D12*
X188874800Y-133220400D03*
X199034800Y-133220400D03*
D10*
X215544800Y-128140400D03*
D11*
X213004800Y-133220400D03*
D10*
X209194800Y-130680400D03*
D12*
X207924800Y-133220400D03*
X218084800Y-133220400D03*
D10*
X234594800Y-128140400D03*
D11*
X232054800Y-133220400D03*
D10*
X228244800Y-130680400D03*
D12*
X226974800Y-133220400D03*
X237134800Y-133220400D03*
D10*
X253644800Y-128140400D03*
D11*
X251104800Y-133220400D03*
D10*
X247294800Y-130680400D03*
D12*
X246024800Y-133220400D03*
X256184800Y-133220400D03*
D10*
X272694800Y-128140400D03*
D11*
X270154800Y-133220400D03*
D10*
X266344800Y-130680400D03*
D12*
X265074800Y-133220400D03*
X275234800Y-133220400D03*
D10*
X291744800Y-128140400D03*
D11*
X289204800Y-133220400D03*
D10*
X285394800Y-130680400D03*
D12*
X284124800Y-133220400D03*
X294284800Y-133220400D03*
D10*
X310794800Y-128140400D03*
D11*
X308254800Y-133220400D03*
D10*
X304444800Y-130680400D03*
D12*
X303174800Y-133220400D03*
X313334800Y-133220400D03*
X455688800Y-133122000D03*
X445528800Y-133122000D03*
D10*
X446798800Y-130582000D03*
D11*
X450608800Y-133122000D03*
D10*
X453148800Y-128042000D03*
D12*
X474738800Y-133122000D03*
X464578800Y-133122000D03*
D10*
X465848800Y-130582000D03*
D11*
X469658800Y-133122000D03*
D10*
X472198800Y-128042000D03*
D12*
X493788800Y-133122000D03*
X483628800Y-133122000D03*
D10*
X484898800Y-130582000D03*
D11*
X488708800Y-133122000D03*
D10*
X491248800Y-128042000D03*
X106070800Y-147190400D03*
D11*
X103530800Y-152270400D03*
D10*
X99720800Y-149730400D03*
D12*
X98450800Y-152270400D03*
X108610800Y-152270400D03*
D10*
X125120800Y-147190400D03*
D11*
X122580800Y-152270400D03*
D10*
X118770800Y-149730400D03*
D12*
X117500800Y-152270400D03*
X127660800Y-152270400D03*
D10*
X144170800Y-147190400D03*
D11*
X141630800Y-152270400D03*
D10*
X137820800Y-149730400D03*
D12*
X136550800Y-152270400D03*
X146710800Y-152270400D03*
D10*
X163220800Y-147190400D03*
D11*
X160680800Y-152270400D03*
D10*
X156870800Y-149730400D03*
D12*
X155600800Y-152270400D03*
X165760800Y-152270400D03*
D10*
X182270800Y-147190400D03*
D11*
X179730800Y-152270400D03*
D10*
X175920800Y-149730400D03*
D12*
X174650800Y-152270400D03*
X184810800Y-152270400D03*
D10*
X201320800Y-147190400D03*
D11*
X198780800Y-152270400D03*
D10*
X194970800Y-149730400D03*
D12*
X193700800Y-152270400D03*
X203860800Y-152270400D03*
D10*
X220370800Y-147190400D03*
D11*
X217830800Y-152270400D03*
D10*
X214020800Y-149730400D03*
D12*
X212750800Y-152270400D03*
X222910800Y-152270400D03*
D10*
X258470800Y-147190400D03*
D11*
X255930800Y-152270400D03*
D10*
X252120800Y-149730400D03*
D12*
X250850800Y-152270400D03*
X261010800Y-152270400D03*
D10*
X277774800Y-147190400D03*
D11*
X275234800Y-152270400D03*
D10*
X271424800Y-149730400D03*
D12*
X270154800Y-152270400D03*
X280314800Y-152270400D03*
D10*
X296824800Y-147190400D03*
D11*
X294284800Y-152270400D03*
D10*
X290474800Y-149730400D03*
D12*
X289204800Y-152270400D03*
X299364800Y-152270400D03*
D10*
X315874800Y-147190400D03*
D11*
X313334800Y-152270400D03*
D10*
X309524800Y-149730400D03*
D12*
X308254800Y-152270400D03*
X318414800Y-152270400D03*
D10*
X386420000Y-147139600D03*
D11*
X383880000Y-152219600D03*
D10*
X380070000Y-149679600D03*
D12*
X378800000Y-152219600D03*
X388960000Y-152219600D03*
X455688800Y-152172000D03*
X445528800Y-152172000D03*
D10*
X446798800Y-149632000D03*
D11*
X450608800Y-152172000D03*
D10*
X453148800Y-147092000D03*
D12*
X474738800Y-152172000D03*
X464578800Y-152172000D03*
D10*
X465848800Y-149632000D03*
D11*
X469658800Y-152172000D03*
D10*
X472198800Y-147092000D03*
D12*
X493788800Y-152172000D03*
X483628800Y-152172000D03*
D10*
X484898800Y-149632000D03*
D11*
X488708800Y-152172000D03*
D10*
X491248800Y-147092000D03*
X96672800Y-166240400D03*
D11*
X94132800Y-171320400D03*
D10*
X90322800Y-168780400D03*
D12*
X89052800Y-171320400D03*
X99212800Y-171320400D03*
D10*
X115722800Y-166240400D03*
D11*
X113182800Y-171320400D03*
D10*
X109372800Y-168780400D03*
D12*
X108102800Y-171320400D03*
X118262800Y-171320400D03*
D10*
X134772800Y-166240400D03*
D11*
X132232800Y-171320400D03*
D10*
X128422800Y-168780400D03*
D12*
X127152800Y-171320400D03*
X137312800Y-171320400D03*
D10*
X153822800Y-166240400D03*
D11*
X151282800Y-171320400D03*
D10*
X147472800Y-168780400D03*
D12*
X146202800Y-171320400D03*
X156362800Y-171320400D03*
D10*
X172872800Y-166240400D03*
D11*
X170332800Y-171320400D03*
D10*
X166522800Y-168780400D03*
D12*
X165252800Y-171320400D03*
X175412800Y-171320400D03*
D10*
X191922800Y-166240400D03*
D11*
X189382800Y-171320400D03*
D10*
X185572800Y-168780400D03*
D12*
X184302800Y-171320400D03*
X194462800Y-171320400D03*
D10*
X210972800Y-166240400D03*
D11*
X208432800Y-171320400D03*
D10*
X204622800Y-168780400D03*
D12*
X203352800Y-171320400D03*
X213512800Y-171320400D03*
D10*
X230022800Y-166240400D03*
D11*
X227482800Y-171320400D03*
D10*
X223672800Y-168780400D03*
D12*
X222402800Y-171320400D03*
X232562800Y-171320400D03*
X251616800Y-171322400D03*
X241456800Y-171322400D03*
D10*
X242726800Y-168782400D03*
D11*
X246536800Y-171322400D03*
D10*
X249076800Y-166242400D03*
X268116800Y-166262400D03*
D11*
X265576800Y-171342400D03*
D10*
X261766800Y-168802400D03*
D12*
X260496800Y-171342400D03*
X270656800Y-171342400D03*
D10*
X287172800Y-166240400D03*
D11*
X284632800Y-171320400D03*
D10*
X280822800Y-168780400D03*
D12*
X279552800Y-171320400D03*
X289712800Y-171320400D03*
D10*
X367370000Y-166189600D03*
D11*
X364830000Y-171269600D03*
D10*
X361020000Y-168729600D03*
D12*
X359750000Y-171269600D03*
X369910000Y-171269600D03*
D10*
X386420000Y-166189600D03*
D11*
X383880000Y-171269600D03*
D10*
X380070000Y-168729600D03*
D12*
X378800000Y-171269600D03*
X388960000Y-171269600D03*
D10*
X405470000Y-166189600D03*
D11*
X402930000Y-171269600D03*
D10*
X399120000Y-168729600D03*
D12*
X397850000Y-171269600D03*
X408010000Y-171269600D03*
X436638800Y-171222000D03*
X426478800Y-171222000D03*
D10*
X427748800Y-168682000D03*
D11*
X431558800Y-171222000D03*
D10*
X434098800Y-166142000D03*
D12*
X474738800Y-171222000D03*
X464578800Y-171222000D03*
D10*
X465848800Y-168682000D03*
D11*
X469658800Y-171222000D03*
D10*
X472198800Y-166142000D03*
X68068800Y-109090400D03*
D11*
X65528800Y-114170400D03*
D10*
X61718800Y-111630400D03*
D12*
X60448800Y-114170400D03*
X70608800Y-114170400D03*
D10*
X372098000Y-109025600D03*
D11*
X369558000Y-114105600D03*
D10*
X365748000Y-111565600D03*
D12*
X364478000Y-114105600D03*
X374638000Y-114105600D03*
D10*
X298602800Y-185290400D03*
D11*
X296062800Y-190370400D03*
D10*
X292252800Y-187830400D03*
D12*
X290982800Y-190370400D03*
X301142800Y-190370400D03*
D15*
X184016800Y-98962400D03*
X185266800Y-101462400D03*
X186516800Y-98962400D03*
X187766800Y-101462400D03*
X189016800Y-98962400D03*
X190266800Y-101462400D03*
X191516800Y-98962400D03*
X192766800Y-101462400D03*
X194016800Y-98962400D03*
X195266800Y-101462400D03*
X196516800Y-98962400D03*
X197766800Y-101462400D03*
X199016800Y-98962400D03*
X200266800Y-101462400D03*
X201516800Y-98962400D03*
X202766800Y-101462400D03*
X204016800Y-98962400D03*
X205266800Y-101462400D03*
X206516800Y-98962400D03*
X207766800Y-101462400D03*
X209016800Y-98962400D03*
X210266800Y-101462400D03*
X211516800Y-98962400D03*
X212766800Y-101462400D03*
X214016800Y-98962400D03*
X215266800Y-101462400D03*
X216516800Y-98962400D03*
X217766800Y-101462400D03*
X219016800Y-98962400D03*
X220266800Y-101462400D03*
X221516800Y-98962400D03*
X222766800Y-101462400D03*
D12*
X96977200Y-85496400D03*
X86817200Y-85496400D03*
D10*
X88087200Y-82956400D03*
D11*
X91907200Y-85398400D03*
D10*
X94437200Y-80416400D03*
D12*
X120802800Y-85583600D03*
X110642800Y-85583600D03*
D10*
X111912800Y-83043600D03*
D11*
X115722800Y-85513600D03*
D10*
X118262800Y-80503600D03*
X142138800Y-80531600D03*
D11*
X139598800Y-85541600D03*
D10*
X135788800Y-83071600D03*
D12*
X134518800Y-85611600D03*
X144678800Y-85611600D03*
X168554800Y-85583600D03*
X158394800Y-85583600D03*
D10*
X159664800Y-83043600D03*
D11*
X163474800Y-85513600D03*
D10*
X166014800Y-80503600D03*
X246278800Y-80277600D03*
D11*
X243738800Y-85513600D03*
D10*
X239928800Y-82817600D03*
D12*
X238658800Y-85357600D03*
X248818800Y-85357600D03*
X272694800Y-85357600D03*
X262534800Y-85357600D03*
D10*
X263804800Y-82817600D03*
D11*
X267614800Y-85513600D03*
D10*
X270154800Y-80277600D03*
X294030800Y-80277600D03*
D11*
X291490800Y-85513600D03*
D10*
X287680800Y-82817600D03*
D12*
X286410800Y-85357600D03*
X296570800Y-85357600D03*
X320446800Y-85357600D03*
X310286800Y-85357600D03*
D10*
X311556800Y-82817600D03*
D11*
X315366800Y-85513600D03*
D10*
X317906800Y-80277600D03*
X65684800Y-147190400D03*
D11*
X63144800Y-152270400D03*
D10*
X59334800Y-149730400D03*
D12*
X58064800Y-152270400D03*
X68224800Y-152270400D03*
D10*
X87020800Y-147190400D03*
D11*
X84480800Y-152270400D03*
D10*
X80670800Y-149730400D03*
D16*
X83210800Y-157350400D03*
G36*
G01*
X84747300Y-158302900D02*
X84747300Y-156397900D01*
G75*
G02*
X84798300Y-156346900I51000J0D01*
G01*
X86703300Y-156346900D01*
G75*
G02*
X86754300Y-156397900I0J-51000D01*
G01*
X86754300Y-158302900D01*
G75*
G02*
X86703300Y-158353900I-51000J0D01*
G01*
X84798300Y-158353900D01*
G75*
G02*
X84747300Y-158302900I0J51000D01*
G01*
G37*
D12*
X79400800Y-152270400D03*
X89560800Y-152270400D03*
X73050800Y-171320400D03*
X62890800Y-171320400D03*
D10*
X64160800Y-168780400D03*
D11*
X67970800Y-171320400D03*
D10*
X70510800Y-166240400D03*
D11*
X332353050Y-179575400D03*
X308540550Y-179575400D03*
D14*
X332353050Y-164335400D03*
X308540550Y-164335400D03*
D12*
X325526800Y-171320400D03*
X315366800Y-171320400D03*
D10*
X316636800Y-168780400D03*
D11*
X320446800Y-171320400D03*
D10*
X322986800Y-166240400D03*
D11*
X480453800Y-192680250D03*
X480453800Y-168867750D03*
D14*
X495693800Y-192680250D03*
X495693800Y-168867750D03*
D12*
X488708800Y-185854000D03*
X488708800Y-175694000D03*
D10*
X491248800Y-176964000D03*
D11*
X488708800Y-180774000D03*
D10*
X493788800Y-183314000D03*
D12*
X105816800Y-190370400D03*
X95656800Y-190370400D03*
D10*
X96926800Y-187830400D03*
D11*
X100736800Y-190370400D03*
D10*
X103276800Y-185290400D03*
D12*
X325018800Y-190370400D03*
X314858800Y-190370400D03*
D10*
X316128800Y-187830400D03*
D11*
X319938800Y-190370400D03*
D10*
X322478800Y-185290400D03*
M02*
