M48
INCH,TZ
T1C0.0236
T2C0.0335
T3C0.0409
T4C0.0579
%
G90
G05
T1
X15800Y-10100
X19000Y-8000
X19500Y-7700
X20100Y-7900
X20100Y-13200
X22900Y-6600
X30400Y-12000
X32300Y-12100
X32550Y-10850
X41700Y-6400
X65400Y-27000
X69700Y-17800
X107900Y-22000
X113200Y-45100
X116500Y-36900
X120515Y-21985
T2
X59824Y-8513
X60316Y-9498
X60808Y-8513
X61300Y-9498
X61792Y-8513
X62284Y-9498
X62776Y-8513
X63269Y-9498
X63761Y-8513
X64253Y-9498
X64745Y-8513
X65237Y-9498
X65729Y-8513
X66221Y-9498
X66713Y-8513
X67206Y-9498
X67698Y-8513
X68190Y-9498
X68682Y-8513
X69174Y-9498
X69666Y-8513
X70158Y-9498
X70650Y-8513
X71143Y-9498
X71635Y-8513
X72127Y-9498
X72619Y-8513
X73111Y-9498
X73603Y-8513
X74095Y-9498
X74587Y-8513
X75080Y-9498
T3
X119506Y-37906
X120506Y-37906
X21006Y-41606
X22006Y-41606
T4
X130506Y-46106
X133006Y-45106
X20006Y-38606
X22506Y-37606
X29406Y-23606
X112706Y-53606
X115206Y-52606
X31906Y-22606
X38806Y-46106
X41306Y-45106
X92106Y-13506
X94606Y-12506
X25606Y-31106
X28106Y-30106
X100606Y-31106
X103106Y-30106
X48106Y-31106
X50606Y-30106
X112906Y-46106
X17006Y-53606
X19506Y-52606
X59406Y-23606
X61906Y-22606
X35006Y-38606
X37506Y-37606
X104406Y-23606
X106906Y-22606
X57506Y-38606
X60006Y-37606
X14406Y-31106
X16906Y-30106
X78106Y-31106
X80606Y-30106
X118506Y-34906
X121006Y-33906
X143606Y-23600
X146106Y-22600
X74406Y-23606
X76906Y-22606
X115406Y-45106
X138006Y-46106
X140506Y-45106
X160106Y-53706
X162606Y-52706
X73306Y-13506
X75806Y-12506
X101506Y-13506
X104006Y-12506
X156306Y-23706
X158806Y-22706
X85606Y-31106
X88106Y-30106
X87506Y-38606
X90006Y-37606
X110106Y-38606
X112606Y-37606
X145506Y-46106
X148006Y-45106
X51106Y-13594
X53606Y-12594
X171306Y-31206
X173806Y-30206
X163806Y-38706
X166306Y-37706
X171306Y-46206
X173806Y-45206
X13506Y-46106
X16006Y-45106
X76306Y-46106
X78806Y-45106
X61306Y-46106
X63806Y-45106
X98806Y-46106
X101306Y-45106
X63106Y-31106
X65606Y-30106
X36906Y-23606
X39406Y-22606
X81906Y-23606
X84406Y-22606
X72506Y-38606
X75006Y-37606
X163806Y-23706
X166306Y-22706
X73106Y-30106
X95106Y-38606
X55606Y-31106
X58106Y-30106
X97606Y-37606
X32306Y-13594
X34806Y-12594
X156306Y-31206
X158806Y-30206
X138006Y-38606
X140506Y-37606
X156306Y-46206
X158806Y-45206
X26406Y-53606
X28906Y-52606
X42506Y-38606
X45006Y-37606
X111906Y-23606
X114406Y-22606
X65006Y-38606
X67506Y-37606
X60506Y-13594
X63006Y-12594
X11606Y-38606
X14106Y-37606
X103306Y-53606
X105806Y-52606
X178806Y-31206
X181306Y-30206
X31306Y-46106
X33806Y-45106
X82706Y-13506
X85206Y-12506
X110906Y-13506
X113406Y-12506
X93106Y-31106
X95606Y-30106
X40606Y-31106
X43106Y-30106
X51906Y-23606
X54406Y-22606
X171306Y-38706
X173806Y-37706
X178306Y-50006
X179306Y-52506
X64806Y-53606
X67306Y-52606
X10706Y-13606
X13206Y-12606
X23806Y-46106
X26306Y-45106
X12544Y-23606
X27506Y-38606
X30006Y-37606
X15044Y-22606
X46306Y-46106
X48806Y-45106
X91306Y-46106
X93806Y-45106
X96906Y-23606
X50006Y-38606
X52506Y-37606
X22906Y-13606
X25406Y-12606
X119406Y-23606
X121906Y-22606
X178806Y-23706
X181306Y-22706
X68806Y-46106
X99406Y-22606
X71306Y-45106
X21906Y-23606
X24406Y-22606
X70606Y-31106
X171306Y-53706
X173806Y-52706
X44406Y-23606
X46906Y-22606
X66906Y-23606
X69406Y-22606
X89406Y-23606
X91906Y-22606
X132347Y-23600
X134847Y-22600
X80006Y-38606
X82506Y-37606
X171306Y-23706
X173806Y-22706
X102606Y-38606
X105106Y-37606
X41706Y-13606
X44206Y-12606
X163806Y-31206
X166306Y-30206
X156306Y-38706
X158806Y-37706
X163806Y-46206
X166306Y-45206
X181306Y-37706
X56306Y-45106
X83806Y-46106
X86306Y-45106
X33106Y-31106
X35606Y-30106
X108106Y-31106
X110606Y-30106
X178806Y-38706
X53806Y-46106
T0
M30
