M48
; DRILL file {KiCad (5.1.10)-1} date 07/23/21 17:16:26
; FORMAT={-:-/ absolute / metric / decimal}
; #@! TF.CreationDate,2021-07-23T17:16:26+10:00
; #@! TF.GenerationSoftware,Kicad,Pcbnew,(5.1.10)-1
; #@! TF.FileFunction,NonPlated,1,2,NPTH
FMAT,2
METRIC
T1C1.750
T2C3.048
T3C3.200
T4C3.988
%
G90
G05
T1
X55.779Y-85.612
X58.065Y-152.27
X60.449Y-114.17
X62.891Y-171.32
X65.177Y-133.22
X65.939Y-85.612
X68.225Y-152.27
X70.609Y-114.17
X71.781Y-190.37
X73.051Y-171.32
X75.337Y-133.22
X79.401Y-152.27
X81.941Y-190.37
X84.227Y-114.17
X86.817Y-85.496
X89.053Y-171.32
X89.561Y-152.27
X93.625Y-133.22
X94.387Y-114.17
X95.657Y-190.37
X96.977Y-85.496
X98.451Y-152.27
X99.213Y-171.32
X103.277Y-114.17
X103.785Y-133.22
X105.817Y-190.37
X108.103Y-171.32
X108.611Y-152.27
X110.643Y-85.584
X112.675Y-133.22
X113.437Y-114.17
X117.501Y-152.27
X118.263Y-171.32
X120.803Y-85.584
X122.327Y-114.17
X122.835Y-133.22
X127.153Y-171.32
X127.661Y-152.27
X131.725Y-133.22
X132.487Y-114.17
X134.519Y-85.612
X136.551Y-152.27
X137.313Y-171.32
X141.377Y-114.17
X141.885Y-133.22
X144.679Y-85.612
X146.203Y-171.32
X146.711Y-152.27
X150.775Y-133.22
X151.537Y-114.17
X155.601Y-152.27
X156.363Y-171.32
X158.395Y-85.584
X160.427Y-114.17
X160.935Y-133.22
X165.253Y-171.32
X165.761Y-152.27
X168.555Y-85.584
X169.825Y-133.299
X170.587Y-114.17
X174.651Y-152.27
X175.413Y-171.32
X179.477Y-114.17
X179.985Y-133.299
X182.271Y-85.584
X184.303Y-171.32
X184.811Y-152.27
X188.875Y-133.22
X189.637Y-114.17
X192.431Y-85.584
X193.157Y-190.382
X193.193Y-190.37
X193.701Y-152.27
X194.463Y-171.32
X198.527Y-114.17
X199.035Y-133.22
X203.317Y-190.382
X203.353Y-171.32
X203.353Y-190.37
X203.861Y-152.27
X207.925Y-133.22
X208.687Y-114.17
X212.751Y-152.27
X213.513Y-171.32
X214.783Y-85.358
X217.577Y-114.17
X218.085Y-133.22
X222.403Y-171.32
X222.911Y-152.27
X224.943Y-85.358
X226.975Y-133.22
X227.737Y-114.17
X231.801Y-152.27
X232.563Y-171.32
X236.627Y-114.17
X237.135Y-133.22
X238.659Y-85.358
X241.457Y-171.322
X241.961Y-152.27
X246.025Y-133.22
X246.787Y-114.17
X248.819Y-85.358
X250.851Y-152.27
X251.617Y-171.322
X255.677Y-114.17
X256.185Y-133.22
X260.497Y-171.342
X261.011Y-152.27
X262.535Y-85.358
X265.075Y-133.22
X265.837Y-114.17
X270.155Y-152.27
X270.657Y-171.342
X272.695Y-85.358
X274.727Y-114.17
X275.235Y-133.22
X279.553Y-171.32
X280.315Y-152.27
X284.125Y-133.22
X284.887Y-114.17
X286.411Y-85.358
X289.205Y-152.27
X289.713Y-171.32
X290.983Y-190.37
X293.777Y-114.17
X294.285Y-133.22
X296.571Y-85.358
X299.365Y-152.27
X301.143Y-190.37
X303.175Y-133.22
X303.937Y-114.17
X308.255Y-152.27
X310.287Y-85.358
X312.827Y-114.17
X313.335Y-133.22
X314.859Y-190.37
X315.367Y-171.32
X318.415Y-152.27
X320.447Y-85.358
X322.987Y-114.17
X325.019Y-190.37
X325.527Y-171.32
X329.591Y-142.872
X331.877Y-114.17
X339.751Y-142.872
X342.037Y-114.17
X359.75Y-171.27
X364.478Y-114.106
X369.91Y-171.27
X374.638Y-114.106
X378.8Y-152.22
X378.8Y-171.27
X388.96Y-152.22
X388.96Y-171.27
X393.074Y-114.106
X397.85Y-171.27
X403.234Y-114.106
X408.01Y-171.27
X426.479Y-114.072
X426.479Y-133.122
X426.479Y-152.172
X426.479Y-171.222
X436.131Y-190.272
X436.639Y-114.072
X436.639Y-133.122
X436.639Y-152.172
X436.639Y-171.222
X445.529Y-114.072
X445.529Y-133.122
X445.529Y-152.172
X445.529Y-171.222
X446.291Y-190.272
X455.689Y-114.072
X455.689Y-133.122
X455.689Y-152.172
X455.689Y-171.222
X464.579Y-114.072
X464.579Y-133.122
X464.579Y-152.172
X464.579Y-171.222
X464.579Y-190.272
X474.739Y-114.072
X474.739Y-133.122
X474.739Y-152.172
X474.739Y-171.222
X474.739Y-190.272
X483.629Y-114.072
X483.629Y-133.122
X483.629Y-152.172
X488.709Y-175.694
X488.709Y-185.854
X493.789Y-114.072
X493.789Y-133.122
X493.789Y-152.172
T2
X58.351Y-126.235
X82.163Y-126.235
X131.562Y-197.367
X141.123Y-197.355
X255.423Y-197.355
X264.912Y-197.367
X308.541Y-164.335
X327.686Y-130.934
X327.686Y-154.81
X332.353Y-164.335
X429.305Y-197.257
X453.117Y-197.257
X495.694Y-168.868
X495.694Y-192.68
T3
X57.0Y-97.0
X57.0Y-193.0
X493.0Y-162.0
T4
X58.351Y-141.475
X60.859Y-85.612
X63.145Y-152.27
X65.529Y-114.17
X67.971Y-171.32
X70.257Y-133.22
X76.861Y-190.37
X82.163Y-141.475
X84.481Y-152.27
X89.307Y-114.17
X91.907Y-85.398
X94.133Y-171.32
X98.705Y-133.22
X100.737Y-190.37
X103.531Y-152.27
X108.357Y-114.17
X113.183Y-171.32
X115.723Y-85.514
X117.755Y-133.22
X122.581Y-152.27
X127.407Y-114.17
X131.562Y-182.127
X132.233Y-171.32
X136.805Y-133.22
X139.599Y-85.542
X141.123Y-182.115
X141.631Y-152.27
X146.457Y-114.17
X151.283Y-171.32
X155.855Y-133.22
X160.681Y-152.27
X163.475Y-85.514
X165.507Y-114.17
X170.333Y-171.32
X174.905Y-133.299
X179.731Y-152.27
X184.557Y-114.17
X187.351Y-85.514
X189.383Y-171.32
X193.955Y-133.22
X198.237Y-190.382
X198.273Y-190.37
X198.781Y-152.27
X203.607Y-114.17
X208.433Y-171.32
X213.005Y-133.22
X217.831Y-152.27
X219.857Y-85.514
X222.657Y-114.17
X227.483Y-171.32
X232.055Y-133.22
X236.881Y-152.27
X241.707Y-114.17
X243.739Y-85.514
X246.537Y-171.322
X251.105Y-133.22
X255.423Y-182.115
X255.931Y-152.27
X260.757Y-114.17
X264.912Y-182.127
X265.577Y-171.342
X267.615Y-85.514
X270.155Y-133.22
X275.235Y-152.27
X279.807Y-114.17
X284.633Y-171.32
X289.205Y-133.22
X291.491Y-85.514
X294.285Y-152.27
X296.063Y-190.37
X298.857Y-114.17
X308.255Y-133.22
X308.541Y-179.575
X313.335Y-152.27
X315.367Y-85.514
X317.907Y-114.17
X319.939Y-190.37
X320.447Y-171.32
X332.353Y-179.575
X334.671Y-142.872
X336.957Y-114.17
X342.926Y-130.934
X342.926Y-154.81
X364.83Y-171.27
X369.558Y-114.106
X383.88Y-152.22
X383.88Y-171.27
X398.154Y-114.106
X402.93Y-171.27
X429.305Y-182.017
X431.559Y-114.072
X431.559Y-133.122
X431.559Y-152.172
X431.559Y-171.222
X441.211Y-190.272
X450.609Y-114.072
X450.609Y-133.122
X450.609Y-152.172
X450.609Y-171.222
X453.117Y-182.017
X469.659Y-114.072
X469.659Y-133.122
X469.659Y-152.172
X469.659Y-171.222
X469.659Y-190.272
X480.454Y-168.868
X480.454Y-192.68
X488.709Y-114.072
X488.709Y-133.122
X488.709Y-152.172
X488.709Y-180.774
T0
M30
