M48
; DRILL file {KiCad (5.1.4-0-10_14)} date Monday, 21 October 2019 at 05:01:30 pm
; FORMAT={-:-/ absolute / inch / decimal}
; #@! TF.CreationDate,2019-10-21T17:01:30+11:00
; #@! TF.GenerationSoftware,Kicad,Pcbnew,(5.1.4-0-10_14)
; #@! TF.FileFunction,Plated,1,2,PTH
FMAT,2
INCH
T1C0.0236
T2C0.0335
T3C0.0409
T4C0.0579
T5C0.1339
%
G90
G05
T1
X0.885Y-1.7437
X0.9154Y-1.8614
X0.9409Y-2.0433
X0.9648Y-1.7821
X1.2807Y-1.9642
X1.8231Y-2.0139
X1.8913Y-1.8205
X1.9299Y-1.9256
X2.0343Y-2.102
X2.187Y-1.7598
X2.3102Y-2.0634
X3.18Y-2.1098
X4.0659Y-1.7361
X4.9888Y-2.1321
X5.2252Y-5.6606
X5.8962Y-1.6971
X5.9717Y-5.7146
X6.0059Y-3.0772
X6.0563Y-3.7583
X6.1488Y-2.4626
X6.3762Y-4.9521
X6.4894Y-3.7579
X6.6004Y-3.6988
X6.6502Y-2.2274
X7.0929Y-1.5831
X7.1262Y-5.4605
X7.1417Y-1.6563
X7.1858Y-5.4594
X7.1913Y-1.6122
X7.2898Y-1.7031
X7.4731Y-4.4009
X8.2697Y-5.0874
X8.4559Y-3.7024
X9.3531Y-3.73
X10.9303Y-4.9827
X10.9315Y-5.2969
X11.6931Y-3.1096
X11.6935Y-4.44
X11.9409Y-5.6189
X12.0315Y-4.5575
X13.3095Y-3.8326
X13.3095Y-4.6247
X13.6249Y-2.6601
X15.515Y-3.7937
T2
X5.9118Y-1.9642
X5.961Y-2.0626
X6.0102Y-1.9642
X6.0594Y-2.0626
X6.1087Y-1.9642
X6.1579Y-2.0626
X6.2071Y-1.9642
X6.2563Y-2.0626
X6.3055Y-1.9642
X6.3547Y-2.0626
X6.4039Y-1.9642
X6.4531Y-2.0626
X6.5024Y-1.9642
X6.5516Y-2.0626
X6.6008Y-1.9642
X6.65Y-2.0626
X6.6992Y-1.9642
X6.7484Y-2.0626
X6.7976Y-1.9642
X6.8469Y-2.0626
X6.8961Y-1.9642
X6.9453Y-2.0626
X6.9945Y-1.9642
X7.0437Y-2.0626
X7.0929Y-1.9642
X7.1421Y-2.0626
X7.1913Y-1.9642
X7.2406Y-2.0626
X7.2898Y-1.9642
X7.339Y-2.0626
X7.3882Y-1.9642
X7.4374Y-2.0626
T3
X1.9431Y-4.2629
X2.0431Y-4.2629
T4
X2.9731Y-4.7129
X3.2231Y-4.6129
X7.2831Y-2.4629
X3.9031Y-3.2129
X4.1531Y-3.1129
X15.8885Y-5.465
X2.7831Y-2.4629
X3.0331Y-2.3629
X17.7585Y-2.465
X18.0085Y-2.365
X17.2585Y-3.865
X9.3531Y-3.9629
X9.6031Y-3.8629
X12.8734Y-4.7129
X13.1234Y-4.6129
X14.1854Y-2.4624
X14.4354Y-2.3624
X17.0085Y-3.965
X5.9731Y-4.7129
X10.2831Y-2.4629
X1.5431Y-5.4629
X1.7931Y-5.3629
X17.7085Y-5.0911
X17.8085Y-5.3411
X10.5331Y-2.3629
X11.3831Y-4.6129
X1.3469Y-2.3629
X4.0931Y-3.9629
X4.3431Y-3.8629
X1.0969Y-2.4629
X16.2585Y-3.215
X16.5085Y-3.115
X11.1331Y-4.7129
X3.5331Y-2.4629
X3.7831Y-2.3629
X17.0085Y-3.215
X17.7585Y-3.965
X18.0085Y-3.865
X6.2231Y-4.6129
X1.2831Y-3.2129
X1.5331Y-3.1129
X2.7331Y-5.3629
X11.6931Y-3.5929
X11.9431Y-3.4929
X15.5085Y-3.215
X15.7585Y-3.115
X6.9031Y-3.2129
X7.1531Y-3.1129
X1.0031Y-3.9629
X1.2531Y-3.8629
X2.4831Y-5.4629
X7.6531Y-3.2129
X7.9031Y-3.1129
X10.1031Y-3.9629
X10.3531Y-3.8629
X13.6234Y-4.7129
X13.8734Y-4.6129
X17.2585Y-3.115
X4.0131Y-1.3606
X4.2631Y-1.2606
X4.8431Y-3.9629
X5.0931Y-3.8629
X13.0595Y-2.4624
X13.3095Y-2.3624
X4.2831Y-2.4629
X4.5331Y-2.3629
X2.4031Y-3.2129
X2.6531Y-3.1129
X6.7231Y-4.7129
X6.9731Y-4.6129
X10.8531Y-3.9629
X11.1031Y-3.8629
X14.3734Y-4.7129
X14.6234Y-4.6129
X4.9531Y-1.3594
X5.2031Y-1.2594
X3.1531Y-3.2129
X3.4031Y-3.1129
X11.0331Y-2.4629
X11.2831Y-2.3629
X1.8431Y-3.9629
X2.0931Y-3.8629
X17.7585Y-3.215
X12.0331Y-2.3629
X7.4731Y-4.7129
X7.7231Y-4.6129
X10.1731Y-5.4629
X8.1131Y-1.3506
X8.3631Y-1.2506
X6.3231Y-5.4629
X11.7831Y-2.4629
X18.0085Y-3.115
X2.2231Y-4.7129
X2.4731Y-4.6129
X6.5731Y-5.3629
X11.1131Y-5.4629
X10.4231Y-5.3629
X11.3631Y-5.3629
X7.5331Y-2.3629
X16.1385Y-5.365
X8.4031Y-3.2129
X8.6531Y-3.1129
X5.8431Y-3.8629
X16.2585Y-4.715
X16.5085Y-4.615
X5.5931Y-3.9629
X13.6234Y-3.9629
X13.8734Y-3.8629
X15.5085Y-4.715
X15.7585Y-4.615
X5.0331Y-2.4629
X5.2831Y-2.3629
X6.3431Y-3.9629
X6.5931Y-3.8629
X8.2232Y-4.713
X8.4732Y-4.613
X5.7831Y-2.4629
X6.0331Y-2.3629
X15.5085Y-3.965
X15.7585Y-3.865
X17.0085Y-4.715
X17.2585Y-4.615
X6.7831Y-2.3629
X0.9131Y-1.3606
X6.5331Y-2.4629
X15.5085Y-2.465
X15.7585Y-2.365
X2.5931Y-3.9629
X2.8431Y-3.8629
X3.9731Y-4.6129
X9.0531Y-1.3506
X9.3031Y-1.2506
X4.6531Y-3.2129
X4.9031Y-3.1129
X9.1531Y-3.2129
X9.4031Y-3.1129
X3.7231Y-4.7129
X7.8431Y-3.9629
X8.0931Y-3.8629
X1.1631Y-1.2606
X16.2585Y-2.465
X16.5085Y-2.365
X3.3431Y-3.9629
X3.5931Y-3.8629
X5.4031Y-3.2129
X5.6531Y-3.1129
X9.9031Y-3.2129
X7.1731Y-1.3506
X7.4231Y-1.2506
X4.4731Y-4.7129
X17.0085Y-5.465
X9.9931Y-1.3506
X10.2431Y-1.2506
X8.0331Y-2.4629
X8.2831Y-2.3629
X7.0931Y-3.9629
X7.3431Y-3.8629
X8.7831Y-2.4629
X9.0331Y-2.3629
X8.9728Y-4.7138
X9.2228Y-4.6138
X17.2585Y-5.365
X17.0085Y-2.465
X17.2585Y-2.365
X8.8431Y-3.8629
X2.0331Y-2.4629
X2.2831Y-2.3629
X8.5931Y-3.9629
X16.2585Y-3.965
X16.5085Y-3.865
X4.7231Y-4.6129
X10.1531Y-3.1129
X5.2231Y-4.7129
X5.4731Y-4.6129
X9.7231Y-4.7129
X9.9731Y-4.6129
X2.3831Y-1.2606
X2.1331Y-1.3606
X9.7831Y-2.3629
X3.3231Y-1.2594
X10.9331Y-1.3506
X11.1831Y-1.2506
X1.1931Y-4.7129
X1.4431Y-4.6129
X5.8931Y-1.3594
X6.1431Y-1.2594
X6.1531Y-3.2129
X6.4031Y-3.1129
X10.6531Y-3.2129
X10.9031Y-3.1129
X9.5331Y-2.4629
X3.0731Y-1.3594
T5
X17.6378Y-5.9843
X18.3071Y-2.0866
X18.3071Y-4.4488
X0.7087Y-4.4488
X8.8976Y-0.7087
X1.378Y-5.9843
X12.9134Y-0.7087
X5.5118Y-5.9843
X16.4961Y-0.7087
X12.9134Y-5.9843
X1.378Y-0.7087
X5.5118Y-0.7087
X9.4488Y-5.9843
X0.7087Y-2.0866
T0
M30
