M48
; DRILL file {KiCad (5.1.4-0-10_14)} date Wednesday, 11 December 2019 at 03:36:36 pm
; FORMAT={-:-/ absolute / metric / decimal}
; #@! TF.CreationDate,2019-12-11T15:36:36+11:00
; #@! TF.GenerationSoftware,Kicad,Pcbnew,(5.1.4-0-10_14)
; #@! TF.FileFunction,Plated,1,2,PTH
FMAT,2
METRIC
T1C0.600
T2C0.850
T3C1.040
T4C1.470
%
G90
G05
T1
X35.814Y-51.943
X41.148Y-47.371
X41.91Y-44.704
X42.037Y-49.911
X43.688Y-45.212
X43.832Y-48.912
X44.807Y-51.153
X45.466Y-42.926
X46.54Y-46.24
X47.52Y-48.91
X50.17Y-53.39
X54.05Y-44.7
X57.18Y-52.41
X79.271Y-53.589
X101.773Y-44.097
X125.215Y-54.155
X131.221Y-143.779
X148.264Y-43.106
X150.18Y-145.15
X151.05Y-78.16
X152.33Y-95.46
X154.68Y-62.55
X160.456Y-125.784
X163.33Y-95.45
X166.15Y-93.95
X167.415Y-56.575
X178.66Y-40.21
X179.506Y-138.696
X179.9Y-42.07
X181.02Y-138.67
X181.16Y-40.95
X183.66Y-43.26
X188.316Y-111.784
X208.55Y-129.22
X213.279Y-94.041
X236.068Y-94.742
X276.13Y-126.56
X276.16Y-134.54
X295.504Y-78.984
X295.515Y-112.775
X301.8Y-137.414
X304.1Y-115.76
X338.062Y-97.348
X338.062Y-117.468
X346.073Y-67.567
X394.08Y-96.36
T2
X148.66Y-49.89
X149.91Y-52.39
X151.16Y-49.89
X152.41Y-52.39
X153.66Y-49.89
X154.91Y-52.39
X156.16Y-49.89
X157.41Y-52.39
X158.66Y-49.89
X159.91Y-52.39
X161.16Y-49.89
X162.41Y-52.39
X163.66Y-49.89
X164.91Y-52.39
X166.16Y-49.89
X167.41Y-52.39
X168.66Y-49.89
X169.91Y-52.39
X171.16Y-49.89
X172.41Y-52.39
X173.66Y-49.89
X174.91Y-52.39
X176.16Y-49.89
X177.41Y-52.39
X178.66Y-49.89
X179.91Y-52.39
X181.16Y-49.89
X182.41Y-52.39
X183.66Y-49.89
X184.91Y-52.39
X186.16Y-49.89
X187.41Y-52.39
T3
X47.854Y-108.278
X50.394Y-108.278
T4
X236.068Y-100.658
X242.418Y-98.118
X331.712Y-62.544
X338.062Y-60.004
X54.966Y-119.708
X61.316Y-117.168
X365.084Y-119.708
X371.434Y-117.168
X145.39Y-62.558
X151.74Y-60.018
X432.016Y-81.662
X31.09Y-81.608
X37.44Y-79.068
X438.366Y-79.122
X183.49Y-62.558
X189.84Y-60.018
X451.066Y-81.662
X164.44Y-62.558
X74.016Y-119.708
X30.328Y-98.118
X411.188Y-143.892
X404.838Y-146.432
X266.04Y-60.018
X259.69Y-62.558
X170.79Y-60.018
X67.92Y-136.218
X255.118Y-100.658
X23.978Y-100.658
X269.088Y-81.608
X88.24Y-62.558
X94.59Y-60.018
X76.556Y-34.53
X82.906Y-31.99
X106.782Y-32.018
X103.988Y-79.068
X97.638Y-81.608
X261.468Y-98.118
X61.57Y-138.758
X100.432Y-34.558
X35.154Y-117.168
X28.804Y-119.708
X275.438Y-79.068
X295.504Y-91.26
X393.916Y-81.662
X400.266Y-79.122
X301.854Y-88.72
X263.246Y-136.218
X256.896Y-138.758
X400.266Y-98.172
X393.916Y-100.712
X80.366Y-117.168
X393.916Y-119.762
X400.266Y-117.222
X107.29Y-62.558
X113.64Y-60.018
X276.2Y-34.304
X282.55Y-31.764
X188.316Y-119.708
X194.666Y-117.168
X211.938Y-81.608
X218.288Y-79.068
X121.514Y-100.658
X127.864Y-98.118
X124.308Y-34.53
X130.658Y-31.99
X412.966Y-81.662
X419.316Y-79.122
X93.066Y-119.708
X146.914Y-98.118
X140.564Y-100.658
X235.306Y-138.758
X412.966Y-119.762
X419.316Y-117.222
X432.016Y-119.762
X438.366Y-117.222
X241.656Y-136.218
X99.416Y-117.168
X274.168Y-100.658
X280.518Y-98.118
X116.688Y-81.608
X123.038Y-79.068
X126.34Y-62.558
X132.69Y-60.018
X346.034Y-100.658
X352.384Y-98.118
X207.37Y-119.71
X213.72Y-117.17
X230.988Y-81.608
X237.338Y-79.068
X278.74Y-62.558
X285.09Y-60.018
X297.79Y-62.558
X304.14Y-60.018
X197.714Y-100.658
X204.064Y-98.118
X457.416Y-79.122
X226.41Y-119.73
X232.76Y-117.19
X112.116Y-119.708
X118.466Y-117.168
X135.738Y-81.608
X142.088Y-79.068
X393.916Y-62.612
X400.266Y-60.072
X131.166Y-119.708
X137.516Y-117.168
X438.366Y-136.272
X159.614Y-100.658
X165.964Y-98.118
X245.466Y-119.708
X251.816Y-117.168
X178.664Y-100.658
X185.014Y-98.118
X432.016Y-138.812
X154.788Y-81.608
X45.314Y-100.658
X51.664Y-98.118
X412.966Y-100.712
X419.316Y-98.172
X438.366Y-98.172
X326.984Y-119.708
X333.334Y-117.168
X360.308Y-62.544
X366.658Y-60.004
X21.692Y-34.558
X28.042Y-32.018
X82.906Y-138.758
X89.256Y-136.218
X258.674Y-31.764
X204.572Y-34.304
X432.016Y-100.712
X412.966Y-62.612
X419.316Y-60.072
X281.28Y-119.708
X287.63Y-117.168
X210.922Y-31.764
X451.066Y-62.612
X457.416Y-60.072
X161.138Y-79.068
X252.324Y-34.304
X180.188Y-79.068
X202.54Y-62.558
X208.89Y-60.018
X50.14Y-62.558
X56.49Y-60.018
X64.364Y-100.658
X70.714Y-98.118
X150.216Y-119.708
X156.566Y-117.168
X250.038Y-81.608
X180.696Y-34.304
X187.046Y-31.764
X216.764Y-100.658
X223.114Y-98.118
X26.362Y-62.558
X32.712Y-60.018
X173.838Y-81.608
X160.376Y-146.378
X166.726Y-143.838
X280.772Y-138.758
X287.122Y-136.218
X451.066Y-100.712
X457.416Y-98.172
X59.03Y-32.018
X59.538Y-81.608
X65.888Y-79.068
X221.59Y-62.558
X227.94Y-60.018
X346.034Y-119.708
X352.384Y-117.168
X228.448Y-34.304
X234.798Y-31.764
X102.464Y-100.658
X432.016Y-62.612
X84.938Y-79.068
X148.184Y-34.53
X154.534Y-31.99
X83.414Y-100.658
X192.888Y-81.608
X52.68Y-34.558
X108.814Y-98.118
X78.588Y-81.608
X75.54Y-60.018
X240.64Y-62.558
X89.764Y-98.118
X69.19Y-62.558
X256.388Y-79.068
X169.266Y-119.708
X175.616Y-117.168
X199.238Y-79.068
X457.416Y-128.044
X459.956Y-134.394
X37.694Y-138.758
X44.044Y-136.218
X438.366Y-60.072
X246.99Y-60.018
T0
M30
