M48
; DRILL file {KiCad (5.1.10)-1} date 07/23/21 17:16:26
; FORMAT={-:-/ absolute / metric / decimal}
; #@! TF.CreationDate,2021-07-23T17:16:26+10:00
; #@! TF.GenerationSoftware,Kicad,Pcbnew,(5.1.10)-1
; #@! TF.FileFunction,Plated,1,2,PTH
FMAT,2
METRIC
T1C0.600
T2C0.850
T3C1.040
T4C1.470
%
G90
G05
T1
X56.828Y-101.211
X58.522Y-103.581
X61.719Y-96.117
X72.218Y-92.424
X73.863Y-100.228
X96.368Y-94.539
X123.597Y-105.664
X142.697Y-93.624
X148.996Y-101.6
X158.503Y-101.745
X159.97Y-104.495
X175.565Y-107.188
X185.653Y-187.676
X198.476Y-126.035
X201.828Y-96.774
X202.286Y-157.531
X203.058Y-95.504
X205.472Y-104.154
X205.486Y-135.128
X209.017Y-83.795
X209.245Y-160.934
X211.531Y-183.591
X211.785Y-116.84
X213.258Y-83.109
X215.088Y-181.813
X216.205Y-185.471
X223.443Y-145.365
X237.896Y-107.086
X241.935Y-118.694
X246.482Y-92.202
X253.895Y-102.924
X254.762Y-160.477
X255.575Y-174.447
X271.425Y-138.532
X275.65Y-106.01
X277.673Y-162.103
X277.673Y-187.808
X294.162Y-92.172
X309.829Y-198.526
X315.213Y-119.531
X320.447Y-104.089
X330.584Y-128.14
X336.906Y-183.388
X336.954Y-163.026
X347.421Y-173.99
X352.793Y-109.741
X363.446Y-128.14
X372.252Y-147.229
X372.252Y-164.226
X373.736Y-195.478
X380.07Y-119.517
X394.31Y-107.188
X421.945Y-142.291
X421.945Y-175.666
X424.282Y-135.89
X427.736Y-159.106
X427.838Y-144.221
X460.654Y-105.461
X461.975Y-104.8
X482.346Y-174.447
X484.886Y-103.022
X484.899Y-145.047
X494.03Y-118.821
T2
X184.017Y-98.962
X185.267Y-101.462
X186.517Y-98.962
X187.767Y-101.462
X189.017Y-98.962
X190.267Y-101.462
X191.517Y-98.962
X192.767Y-101.462
X194.017Y-98.962
X195.267Y-101.462
X196.517Y-98.962
X197.767Y-101.462
X199.017Y-98.962
X200.267Y-101.462
X201.517Y-98.962
X202.767Y-101.462
X204.017Y-98.962
X205.267Y-101.462
X206.517Y-98.962
X207.767Y-101.462
X209.017Y-98.962
X210.267Y-101.462
X211.517Y-98.962
X212.767Y-101.462
X214.017Y-98.962
X215.267Y-101.462
X216.517Y-98.962
X217.767Y-101.462
X219.017Y-98.962
X220.267Y-101.462
X221.517Y-98.962
X222.767Y-101.462
T3
X83.211Y-157.35
X85.751Y-157.35
T4
X57.049Y-83.072
X59.335Y-149.73
X61.719Y-111.63
X63.399Y-80.532
X64.161Y-168.78
X65.685Y-147.19
X66.447Y-130.68
X68.069Y-109.09
X70.511Y-166.24
X72.797Y-128.14
X73.051Y-187.83
X79.401Y-185.29
X80.671Y-149.73
X85.497Y-111.63
X87.021Y-147.19
X88.087Y-82.956
X90.323Y-168.78
X91.847Y-109.09
X94.437Y-80.416
X94.895Y-130.68
X96.673Y-166.24
X96.927Y-187.83
X99.721Y-149.73
X101.245Y-128.14
X103.277Y-185.29
X104.547Y-111.63
X106.071Y-147.19
X109.373Y-168.78
X110.897Y-109.09
X111.913Y-83.044
X113.945Y-130.68
X115.723Y-166.24
X118.263Y-80.504
X118.771Y-149.73
X120.295Y-128.14
X123.597Y-111.63
X125.121Y-147.19
X128.423Y-168.78
X129.947Y-109.09
X132.995Y-130.68
X134.773Y-166.24
X135.789Y-83.072
X137.821Y-149.73
X139.345Y-128.14
X142.139Y-80.532
X142.647Y-111.63
X144.171Y-147.19
X147.473Y-168.78
X148.997Y-109.09
X152.045Y-130.68
X153.823Y-166.24
X156.871Y-149.73
X158.395Y-128.14
X159.665Y-83.044
X161.697Y-111.63
X163.221Y-147.19
X166.015Y-80.504
X166.523Y-168.78
X168.047Y-109.09
X171.095Y-130.759
X172.873Y-166.24
X175.921Y-149.73
X177.445Y-128.219
X180.747Y-111.63
X182.271Y-147.19
X183.541Y-83.044
X185.573Y-168.78
X187.097Y-109.09
X189.891Y-80.504
X190.145Y-130.68
X191.923Y-166.24
X194.971Y-149.73
X195.733Y-195.45
X196.495Y-128.14
X199.797Y-111.63
X201.321Y-147.19
X202.083Y-192.91
X204.623Y-168.78
X206.147Y-109.09
X209.195Y-130.68
X210.973Y-166.24
X214.021Y-149.73
X215.545Y-128.14
X216.053Y-82.818
X218.847Y-111.63
X220.371Y-147.19
X222.403Y-80.278
X223.673Y-168.78
X225.197Y-109.09
X228.245Y-130.68
X230.023Y-166.24
X233.071Y-149.73
X234.595Y-128.14
X237.897Y-111.63
X239.421Y-147.19
X239.929Y-82.818
X242.727Y-168.782
X244.247Y-109.09
X246.279Y-80.278
X247.295Y-130.68
X249.077Y-166.242
X252.121Y-149.73
X253.645Y-128.14
X256.947Y-111.63
X258.471Y-147.19
X261.767Y-168.802
X263.297Y-109.09
X263.805Y-82.818
X266.345Y-130.68
X268.117Y-166.262
X270.155Y-80.278
X271.425Y-149.73
X272.695Y-128.14
X275.997Y-111.63
X277.775Y-147.19
X280.823Y-168.78
X282.347Y-109.09
X285.395Y-130.68
X287.173Y-166.24
X287.681Y-82.818
X290.475Y-149.73
X291.745Y-128.14
X292.253Y-187.83
X294.031Y-80.278
X295.047Y-111.63
X296.825Y-147.19
X298.603Y-185.29
X301.397Y-109.09
X304.445Y-130.68
X309.525Y-149.73
X310.795Y-128.14
X311.557Y-82.818
X314.097Y-111.63
X315.875Y-147.19
X316.129Y-187.83
X316.637Y-168.78
X317.907Y-80.278
X320.447Y-109.09
X322.479Y-185.29
X322.987Y-166.24
X330.861Y-140.332
X333.147Y-111.63
X337.211Y-137.792
X339.497Y-109.09
X361.02Y-168.73
X365.748Y-111.566
X367.37Y-166.19
X372.098Y-109.026
X380.07Y-149.68
X380.07Y-168.73
X386.42Y-147.14
X386.42Y-166.19
X394.344Y-111.566
X399.12Y-168.73
X400.694Y-109.026
X405.47Y-166.19
X427.749Y-111.532
X427.749Y-130.582
X427.749Y-149.632
X427.749Y-168.682
X434.099Y-108.992
X434.099Y-128.042
X434.099Y-147.092
X434.099Y-166.142
X438.671Y-195.352
X445.021Y-192.812
X446.799Y-111.532
X446.799Y-130.582
X446.799Y-149.632
X446.799Y-168.682
X453.149Y-108.992
X453.149Y-128.042
X453.149Y-147.092
X453.149Y-166.142
X465.849Y-111.532
X465.849Y-130.582
X465.849Y-149.632
X465.849Y-168.682
X465.849Y-187.732
X472.199Y-108.992
X472.199Y-128.042
X472.199Y-147.092
X472.199Y-166.142
X472.199Y-185.192
X484.899Y-111.532
X484.899Y-130.582
X484.899Y-149.632
X491.249Y-108.992
X491.249Y-128.042
X491.249Y-147.092
X491.249Y-176.964
X493.789Y-183.314
T0
M30
