M48
; DRILL file {KiCad (5.1.4-0-10_14)} date Monday, 21 October 2019 at 05:01:30 pm
; FORMAT={-:-/ absolute / inch / decimal}
; #@! TF.CreationDate,2019-10-21T17:01:30+11:00
; #@! TF.GenerationSoftware,Kicad,Pcbnew,(5.1.4-0-10_14)
; #@! TF.FileFunction,NonPlated,1,2,NPTH
FMAT,2
INCH
T1C0.0689
T2C0.1200
T3C0.1570
%
G90
G05
T1
X3.0231Y-1.4594
X3.4231Y-1.4594
X5.5431Y-4.0629
X5.9431Y-4.0629
X13.5734Y-4.0629
X13.9734Y-4.0629
X15.4585Y-4.815
X15.8585Y-4.815
X4.9831Y-2.5629
X5.3831Y-2.5629
X15.4585Y-2.565
X15.8585Y-2.565
X2.5431Y-4.0629
X2.9431Y-4.0629
X6.2931Y-4.0629
X6.6931Y-4.0629
X3.6731Y-4.8129
X4.0731Y-4.8129
X8.1732Y-4.813
X8.5732Y-4.813
X9.0031Y-1.4506
X9.4031Y-1.4506
X5.7331Y-2.5629
X6.1331Y-2.5629
X16.9585Y-4.815
X17.3585Y-4.815
X16.9585Y-5.565
X5.0031Y-3.3129
X9.1031Y-3.3129
X9.5031Y-3.3129
X9.8531Y-3.3129
X10.2531Y-3.3129
X9.3228Y-4.8138
X15.4585Y-4.065
X8.9228Y-4.8138
X15.8585Y-4.065
X7.7931Y-4.0629
X8.1931Y-4.0629
X7.0431Y-4.0629
X7.4431Y-4.0629
X7.9831Y-2.5629
X8.3831Y-2.5629
X6.4831Y-2.5629
X6.8831Y-2.5629
X17.3585Y-5.565
X7.1231Y-1.4506
X7.5231Y-1.4506
X4.6031Y-3.3129
X2.0831Y-1.4606
X16.2085Y-4.065
X16.6085Y-4.065
X4.4231Y-4.8129
X4.8231Y-4.8129
X9.9431Y-1.4506
X10.3431Y-1.4506
X5.3531Y-3.3129
X5.7531Y-3.3129
X8.5431Y-4.0629
X8.9431Y-4.0629
X10.0731Y-4.8129
X8.7331Y-2.5629
X9.1331Y-2.5629
X16.9585Y-2.565
X17.3585Y-2.565
X5.1731Y-4.8129
X5.5731Y-4.8129
X9.6731Y-4.8129
X0.8631Y-1.4606
X1.2631Y-1.4606
X16.2085Y-2.565
X16.6085Y-2.565
X3.2931Y-4.0629
X3.6931Y-4.0629
X1.9831Y-2.5629
X2.3831Y-2.5629
X1.1431Y-4.8129
X10.6031Y-3.3129
X11.0031Y-3.3129
X10.8831Y-1.4506
X1.5431Y-4.8129
X14.1354Y-2.5624
X11.2831Y-1.4506
X5.8431Y-1.4594
X6.2431Y-1.4594
X9.4831Y-2.5629
X9.8831Y-2.5629
X14.5354Y-2.5624
X2.4831Y-1.4606
X6.1031Y-3.3129
X6.5031Y-3.3129
X9.3031Y-4.0629
X9.7031Y-4.0629
X12.8234Y-4.8129
X13.2234Y-4.8129
X1.4931Y-5.5629
X2.7331Y-2.5629
X3.1331Y-2.5629
X16.9585Y-4.065
X17.3585Y-4.065
X5.9231Y-4.8129
X6.3231Y-4.8129
X10.2331Y-2.5629
X10.6331Y-2.5629
X18.1085Y-2.565
X1.8931Y-5.5629
X17.7085Y-2.565
X17.7085Y-4.065
X18.1085Y-4.065
X3.9631Y-1.4606
X7.2531Y-3.3129
X1.6331Y-3.3129
X11.0831Y-4.8129
X17.9085Y-4.9911
X10.0531Y-4.0629
X13.9734Y-4.8129
X1.3531Y-4.0629
X6.8531Y-3.3129
X0.9531Y-4.0629
X11.4831Y-4.8129
X1.2331Y-3.3129
X10.4531Y-4.0629
X2.4331Y-5.5629
X2.8331Y-5.5629
X6.2717Y-5.5634
X6.6717Y-5.5634
X2.7531Y-3.3129
X16.2085Y-3.315
X16.6085Y-3.315
X13.5734Y-4.8129
X1.0469Y-2.5629
X4.4431Y-4.0629
X2.3531Y-3.3129
X4.3631Y-1.4606
X4.0431Y-4.0629
X17.9085Y-5.3911
X1.4469Y-2.5629
X10.9831Y-2.5629
X11.3831Y-2.5629
X13.0095Y-2.5624
X13.4095Y-2.5624
X11.2031Y-4.0629
X2.1731Y-4.8129
X16.9585Y-3.315
X17.3585Y-3.315
X10.8031Y-4.0629
X5.3031Y-1.4594
X2.5731Y-4.8129
X3.8831Y-2.5629
X1.7931Y-4.0629
X3.4831Y-2.5629
X6.6731Y-4.8129
X7.0731Y-4.8129
X2.1931Y-4.0629
X14.3234Y-4.8129
X14.7234Y-4.8129
X4.9031Y-1.4594
X11.4631Y-5.5629
X11.6431Y-3.6929
X12.0431Y-3.6929
X7.6031Y-3.3129
X8.0031Y-3.3129
X4.7931Y-4.0629
X5.1931Y-4.0629
X15.4585Y-3.315
X15.8585Y-3.315
X4.2331Y-2.5629
X7.4231Y-4.8129
X7.8231Y-4.8129
X10.5231Y-5.5629
X11.0631Y-5.5629
X4.6331Y-2.5629
X10.1231Y-5.5629
X18.1085Y-3.315
X3.5031Y-3.3129
X17.7085Y-3.315
X16.2085Y-4.815
X16.6085Y-4.815
X8.0631Y-1.4506
X6.6731Y-5.5629
X11.7331Y-2.5629
X12.1331Y-2.5629
X2.9231Y-4.8129
X3.3231Y-4.8129
X8.4631Y-1.4506
X3.8531Y-3.3129
X15.8385Y-5.565
X8.3531Y-3.3129
X8.7531Y-3.3129
X3.1031Y-3.3129
X6.2731Y-5.5629
X7.2331Y-2.5629
X7.6331Y-2.5629
X4.2531Y-3.3129
X16.2385Y-5.565
T2
X15.5698Y-5.29
X16.5073Y-5.29
X0.9643Y-3.0379
X1.9018Y-3.0379
X10.8143Y-4.5379
X11.7518Y-4.5379
X17.6335Y-4.7224
X17.6335Y-5.6599
X9.0967Y-5.2884
X4.2231Y-5.2879
X8.7231Y-5.2879
X11.5681Y-3.2229
X11.5681Y-4.1629
X3.8467Y-5.2884
T3
X9.5031Y-4.0629
X13.0234Y-4.8129
X2.9331Y-2.5629
X17.9085Y-2.565
X6.1231Y-4.8129
X17.9085Y-4.065
X0.9643Y-3.6379
X1.4331Y-3.3129
X1.9018Y-3.6379
X10.2531Y-4.0629
X13.7734Y-4.8129
X9.0967Y-5.8884
X11.0031Y-4.0629
X14.5234Y-4.8129
X1.1531Y-4.0629
X2.3731Y-4.8129
X6.8731Y-4.8129
X10.4331Y-2.5629
X2.6331Y-5.5629
X2.5531Y-3.3129
X3.8467Y-5.8884
X5.1031Y-1.4567
X1.9931Y-4.0629
X3.6831Y-2.5629
X4.1631Y-1.4578
X6.4717Y-5.5634
X11.1831Y-2.5629
X4.2431Y-4.0629
X1.6931Y-5.5629
X13.2095Y-2.5624
X7.0531Y-3.3129
X17.1585Y-3.315
X4.2231Y-5.8879
X4.9931Y-4.0629
X11.8431Y-3.6929
X12.1681Y-3.2229
X12.1681Y-4.1629
X15.6585Y-3.315
X6.4731Y-5.5629
X8.7231Y-5.8879
X11.9331Y-2.5629
X3.3031Y-3.3129
X7.8031Y-3.3129
X10.3231Y-5.5629
X11.2631Y-5.5629
X4.4331Y-2.5629
X7.6231Y-4.8129
X16.4085Y-4.815
X15.6585Y-4.815
X3.1231Y-4.8129
X5.1831Y-2.5629
X8.3732Y-4.813
X5.9331Y-2.5629
X7.4331Y-2.5629
X5.7431Y-4.0629
X13.7734Y-4.0629
X6.4931Y-4.0629
X17.9085Y-3.315
X8.5531Y-3.3129
X4.0531Y-3.3129
X9.3031Y-3.3129
X15.6585Y-4.065
X8.2631Y-1.4567
X16.0385Y-5.565
X9.2031Y-1.4567
X15.5698Y-5.89
X16.5073Y-5.89
X7.9931Y-4.0629
X17.1585Y-4.815
X1.0631Y-1.4606
X6.6831Y-2.5629
X15.6585Y-2.565
X2.7431Y-4.0629
X4.8031Y-3.3129
X16.4085Y-2.565
X3.4931Y-4.0629
X7.2431Y-4.0629
X3.8731Y-4.8129
X4.6231Y-4.8129
X10.1431Y-1.4567
X8.1831Y-2.5629
X7.3228Y-1.4567
X16.4085Y-4.065
X1.3431Y-4.8129
X6.0431Y-1.4567
X8.7431Y-4.0629
X2.2835Y-1.4567
X10.0531Y-3.3129
X17.1585Y-4.065
X17.1585Y-5.565
X10.8031Y-3.3129
X14.3354Y-2.5624
X8.9331Y-2.5629
X5.5531Y-3.3129
X9.1228Y-4.8138
X9.8731Y-4.8129
X10.8143Y-5.1379
X17.1585Y-2.565
X11.2831Y-4.8129
X9.6831Y-2.5629
X6.3031Y-3.3129
X16.4085Y-3.315
X11.7518Y-5.1379
X2.1831Y-2.5629
X18.2335Y-4.7224
X5.3731Y-4.8129
X1.2469Y-2.5629
X11.0831Y-1.4567
X3.2231Y-1.4567
X17.9085Y-5.1911
X18.2335Y-5.6599
T0
M30
