G04 #@! TF.GenerationSoftware,KiCad,Pcbnew,(5.1.4-0-10_14)*
G04 #@! TF.CreationDate,2019-12-11T15:35:44+11:00*
G04 #@! TF.ProjectId,A1200KB,41313230-304b-4422-9e6b-696361645f70,rev?*
G04 #@! TF.SameCoordinates,Original*
G04 #@! TF.FileFunction,Copper,L1,Top*
G04 #@! TF.FilePolarity,Positive*
%FSLAX46Y46*%
G04 Gerber Fmt 4.6, Leading zero omitted, Abs format (unit mm)*
G04 Created by KiCad (PCBNEW (5.1.4-0-10_14)) date 2019-12-11 15:35:44*
%MOMM*%
%LPD*%
G04 APERTURE LIST*
%ADD10C,0.300000*%
%ADD11C,2.250000*%
%ADD12C,1.524000*%
%ADD13C,1.905000*%
%ADD14R,1.905000X1.905000*%
%ADD15C,1.000000*%
%ADD16C,0.800000*%
%ADD17C,0.350000*%
G04 APERTURE END LIST*
D10*
X448620000Y-111565571D02*
X448620000Y-112565571D01*
X448262857Y-110994142D02*
X447905714Y-112065571D01*
X448834285Y-112065571D01*
X450048571Y-111565571D02*
X450048571Y-112565571D01*
X449691428Y-110994142D02*
X449334285Y-112065571D01*
X450262857Y-112065571D01*
X450762857Y-111208428D02*
X450834285Y-111137000D01*
X450977142Y-111065571D01*
X451334285Y-111065571D01*
X451477142Y-111137000D01*
X451548571Y-111208428D01*
X451620000Y-111351285D01*
X451620000Y-111494142D01*
X451548571Y-111708428D01*
X450691428Y-112565571D01*
X451620000Y-112565571D01*
X452334285Y-112494142D02*
X452334285Y-112565571D01*
X452262857Y-112708428D01*
X452191428Y-112779857D01*
X454334285Y-111708428D02*
X454191428Y-111637000D01*
X454120000Y-111565571D01*
X454048571Y-111422714D01*
X454048571Y-111351285D01*
X454120000Y-111208428D01*
X454191428Y-111137000D01*
X454334285Y-111065571D01*
X454620000Y-111065571D01*
X454762857Y-111137000D01*
X454834285Y-111208428D01*
X454905714Y-111351285D01*
X454905714Y-111422714D01*
X454834285Y-111565571D01*
X454762857Y-111637000D01*
X454620000Y-111708428D01*
X454334285Y-111708428D01*
X454191428Y-111779857D01*
X454120000Y-111851285D01*
X454048571Y-111994142D01*
X454048571Y-112279857D01*
X454120000Y-112422714D01*
X454191428Y-112494142D01*
X454334285Y-112565571D01*
X454620000Y-112565571D01*
X454762857Y-112494142D01*
X454834285Y-112422714D01*
X454905714Y-112279857D01*
X454905714Y-111994142D01*
X454834285Y-111851285D01*
X454762857Y-111779857D01*
X454620000Y-111708428D01*
X455405714Y-111065571D02*
X456405714Y-111065571D01*
X455762857Y-112565571D01*
X373841000Y-138624571D02*
X374769571Y-138624571D01*
X374269571Y-139196000D01*
X374483857Y-139196000D01*
X374626714Y-139267428D01*
X374698142Y-139338857D01*
X374769571Y-139481714D01*
X374769571Y-139838857D01*
X374698142Y-139981714D01*
X374626714Y-140053142D01*
X374483857Y-140124571D01*
X374055285Y-140124571D01*
X373912428Y-140053142D01*
X373841000Y-139981714D01*
X375269571Y-138624571D02*
X376269571Y-138624571D01*
X375626714Y-140124571D01*
X377126714Y-138624571D02*
X377269571Y-138624571D01*
X377412428Y-138696000D01*
X377483857Y-138767428D01*
X377555285Y-138910285D01*
X377626714Y-139196000D01*
X377626714Y-139553142D01*
X377555285Y-139838857D01*
X377483857Y-139981714D01*
X377412428Y-140053142D01*
X377269571Y-140124571D01*
X377126714Y-140124571D01*
X376983857Y-140053142D01*
X376912428Y-139981714D01*
X376841000Y-139838857D01*
X376769571Y-139553142D01*
X376769571Y-139196000D01*
X376841000Y-138910285D01*
X376912428Y-138767428D01*
X376983857Y-138696000D01*
X377126714Y-138624571D01*
X378341000Y-140053142D02*
X378341000Y-140124571D01*
X378269571Y-140267428D01*
X378198142Y-140338857D01*
X380912428Y-140124571D02*
X380055285Y-140124571D01*
X380483857Y-140124571D02*
X380483857Y-138624571D01*
X380341000Y-138838857D01*
X380198142Y-138981714D01*
X380055285Y-139053142D01*
X382341000Y-140124571D02*
X381483857Y-140124571D01*
X381912428Y-140124571D02*
X381912428Y-138624571D01*
X381769571Y-138838857D01*
X381626714Y-138981714D01*
X381483857Y-139053142D01*
X383698142Y-138624571D02*
X382983857Y-138624571D01*
X382912428Y-139338857D01*
X382983857Y-139267428D01*
X383126714Y-139196000D01*
X383483857Y-139196000D01*
X383626714Y-139267428D01*
X383698142Y-139338857D01*
X383769571Y-139481714D01*
X383769571Y-139838857D01*
X383698142Y-139981714D01*
X383626714Y-140053142D01*
X383483857Y-140124571D01*
X383126714Y-140124571D01*
X382983857Y-140053142D01*
X382912428Y-139981714D01*
X312698428Y-139402428D02*
X312769857Y-139331000D01*
X312912714Y-139259571D01*
X313269857Y-139259571D01*
X313412714Y-139331000D01*
X313484142Y-139402428D01*
X313555571Y-139545285D01*
X313555571Y-139688142D01*
X313484142Y-139902428D01*
X312627000Y-140759571D01*
X313555571Y-140759571D01*
X314269857Y-140759571D02*
X314555571Y-140759571D01*
X314698428Y-140688142D01*
X314769857Y-140616714D01*
X314912714Y-140402428D01*
X314984142Y-140116714D01*
X314984142Y-139545285D01*
X314912714Y-139402428D01*
X314841285Y-139331000D01*
X314698428Y-139259571D01*
X314412714Y-139259571D01*
X314269857Y-139331000D01*
X314198428Y-139402428D01*
X314127000Y-139545285D01*
X314127000Y-139902428D01*
X314198428Y-140045285D01*
X314269857Y-140116714D01*
X314412714Y-140188142D01*
X314698428Y-140188142D01*
X314841285Y-140116714D01*
X314912714Y-140045285D01*
X314984142Y-139902428D01*
X316341285Y-139259571D02*
X315627000Y-139259571D01*
X315555571Y-139973857D01*
X315627000Y-139902428D01*
X315769857Y-139831000D01*
X316127000Y-139831000D01*
X316269857Y-139902428D01*
X316341285Y-139973857D01*
X316412714Y-140116714D01*
X316412714Y-140473857D01*
X316341285Y-140616714D01*
X316269857Y-140688142D01*
X316127000Y-140759571D01*
X315769857Y-140759571D01*
X315627000Y-140688142D01*
X315555571Y-140616714D01*
X317127000Y-140688142D02*
X317127000Y-140759571D01*
X317055571Y-140902428D01*
X316984142Y-140973857D01*
X319698428Y-140759571D02*
X318841285Y-140759571D01*
X319269857Y-140759571D02*
X319269857Y-139259571D01*
X319127000Y-139473857D01*
X318984142Y-139616714D01*
X318841285Y-139688142D01*
X321127000Y-140759571D02*
X320269857Y-140759571D01*
X320698428Y-140759571D02*
X320698428Y-139259571D01*
X320555571Y-139473857D01*
X320412714Y-139616714D01*
X320269857Y-139688142D01*
X322484142Y-139259571D02*
X321769857Y-139259571D01*
X321698428Y-139973857D01*
X321769857Y-139902428D01*
X321912714Y-139831000D01*
X322269857Y-139831000D01*
X322412714Y-139902428D01*
X322484142Y-139973857D01*
X322555571Y-140116714D01*
X322555571Y-140473857D01*
X322484142Y-140616714D01*
X322412714Y-140688142D01*
X322269857Y-140759571D01*
X321912714Y-140759571D01*
X321769857Y-140688142D01*
X321698428Y-140616714D01*
X213733571Y-140759571D02*
X212876428Y-140759571D01*
X213305000Y-140759571D02*
X213305000Y-139259571D01*
X213162142Y-139473857D01*
X213019285Y-139616714D01*
X212876428Y-139688142D01*
X214447857Y-140759571D02*
X214733571Y-140759571D01*
X214876428Y-140688142D01*
X214947857Y-140616714D01*
X215090714Y-140402428D01*
X215162142Y-140116714D01*
X215162142Y-139545285D01*
X215090714Y-139402428D01*
X215019285Y-139331000D01*
X214876428Y-139259571D01*
X214590714Y-139259571D01*
X214447857Y-139331000D01*
X214376428Y-139402428D01*
X214305000Y-139545285D01*
X214305000Y-139902428D01*
X214376428Y-140045285D01*
X214447857Y-140116714D01*
X214590714Y-140188142D01*
X214876428Y-140188142D01*
X215019285Y-140116714D01*
X215090714Y-140045285D01*
X215162142Y-139902428D01*
X216519285Y-139259571D02*
X215805000Y-139259571D01*
X215733571Y-139973857D01*
X215805000Y-139902428D01*
X215947857Y-139831000D01*
X216305000Y-139831000D01*
X216447857Y-139902428D01*
X216519285Y-139973857D01*
X216590714Y-140116714D01*
X216590714Y-140473857D01*
X216519285Y-140616714D01*
X216447857Y-140688142D01*
X216305000Y-140759571D01*
X215947857Y-140759571D01*
X215805000Y-140688142D01*
X215733571Y-140616714D01*
X217305000Y-140688142D02*
X217305000Y-140759571D01*
X217233571Y-140902428D01*
X217162142Y-140973857D01*
X219876428Y-140759571D02*
X219019285Y-140759571D01*
X219447857Y-140759571D02*
X219447857Y-139259571D01*
X219305000Y-139473857D01*
X219162142Y-139616714D01*
X219019285Y-139688142D01*
X221305000Y-140759571D02*
X220447857Y-140759571D01*
X220876428Y-140759571D02*
X220876428Y-139259571D01*
X220733571Y-139473857D01*
X220590714Y-139616714D01*
X220447857Y-139688142D01*
X222662142Y-139259571D02*
X221947857Y-139259571D01*
X221876428Y-139973857D01*
X221947857Y-139902428D01*
X222090714Y-139831000D01*
X222447857Y-139831000D01*
X222590714Y-139902428D01*
X222662142Y-139973857D01*
X222733571Y-140116714D01*
X222733571Y-140473857D01*
X222662142Y-140616714D01*
X222590714Y-140688142D01*
X222447857Y-140759571D01*
X222090714Y-140759571D01*
X221947857Y-140688142D01*
X221876428Y-140616714D01*
X112260571Y-139997571D02*
X112546285Y-139997571D01*
X112689142Y-139926142D01*
X112760571Y-139854714D01*
X112903428Y-139640428D01*
X112974857Y-139354714D01*
X112974857Y-138783285D01*
X112903428Y-138640428D01*
X112832000Y-138569000D01*
X112689142Y-138497571D01*
X112403428Y-138497571D01*
X112260571Y-138569000D01*
X112189142Y-138640428D01*
X112117714Y-138783285D01*
X112117714Y-139140428D01*
X112189142Y-139283285D01*
X112260571Y-139354714D01*
X112403428Y-139426142D01*
X112689142Y-139426142D01*
X112832000Y-139354714D01*
X112903428Y-139283285D01*
X112974857Y-139140428D01*
X114332000Y-138497571D02*
X113617714Y-138497571D01*
X113546285Y-139211857D01*
X113617714Y-139140428D01*
X113760571Y-139069000D01*
X114117714Y-139069000D01*
X114260571Y-139140428D01*
X114332000Y-139211857D01*
X114403428Y-139354714D01*
X114403428Y-139711857D01*
X114332000Y-139854714D01*
X114260571Y-139926142D01*
X114117714Y-139997571D01*
X113760571Y-139997571D01*
X113617714Y-139926142D01*
X113546285Y-139854714D01*
X115117714Y-139926142D02*
X115117714Y-139997571D01*
X115046285Y-140140428D01*
X114974857Y-140211857D01*
X117689142Y-139997571D02*
X116832000Y-139997571D01*
X117260571Y-139997571D02*
X117260571Y-138497571D01*
X117117714Y-138711857D01*
X116974857Y-138854714D01*
X116832000Y-138926142D01*
X119117714Y-139997571D02*
X118260571Y-139997571D01*
X118689142Y-139997571D02*
X118689142Y-138497571D01*
X118546285Y-138711857D01*
X118403428Y-138854714D01*
X118260571Y-138926142D01*
X120474857Y-138497571D02*
X119760571Y-138497571D01*
X119689142Y-139211857D01*
X119760571Y-139140428D01*
X119903428Y-139069000D01*
X120260571Y-139069000D01*
X120403428Y-139140428D01*
X120474857Y-139211857D01*
X120546285Y-139354714D01*
X120546285Y-139711857D01*
X120474857Y-139854714D01*
X120403428Y-139926142D01*
X120260571Y-139997571D01*
X119903428Y-139997571D01*
X119760571Y-139926142D01*
X119689142Y-139854714D01*
X23606571Y-138243571D02*
X24606571Y-138243571D01*
X23963714Y-139743571D01*
X25249428Y-139672142D02*
X25249428Y-139743571D01*
X25178000Y-139886428D01*
X25106571Y-139957857D01*
X27820857Y-139743571D02*
X26963714Y-139743571D01*
X27392285Y-139743571D02*
X27392285Y-138243571D01*
X27249428Y-138457857D01*
X27106571Y-138600714D01*
X26963714Y-138672142D01*
X29249428Y-139743571D02*
X28392285Y-139743571D01*
X28820857Y-139743571D02*
X28820857Y-138243571D01*
X28678000Y-138457857D01*
X28535142Y-138600714D01*
X28392285Y-138672142D01*
X30606571Y-138243571D02*
X29892285Y-138243571D01*
X29820857Y-138957857D01*
X29892285Y-138886428D01*
X30035142Y-138815000D01*
X30392285Y-138815000D01*
X30535142Y-138886428D01*
X30606571Y-138957857D01*
X30678000Y-139100714D01*
X30678000Y-139457857D01*
X30606571Y-139600714D01*
X30535142Y-139672142D01*
X30392285Y-139743571D01*
X30035142Y-139743571D01*
X29892285Y-139672142D01*
X29820857Y-139600714D01*
X24828857Y-48962571D02*
X25828857Y-48962571D01*
X25186000Y-50462571D01*
X26471714Y-50391142D02*
X26471714Y-50462571D01*
X26400285Y-50605428D01*
X26328857Y-50676857D01*
X28186000Y-49105428D02*
X28257428Y-49034000D01*
X28400285Y-48962571D01*
X28757428Y-48962571D01*
X28900285Y-49034000D01*
X28971714Y-49105428D01*
X29043142Y-49248285D01*
X29043142Y-49391142D01*
X28971714Y-49605428D01*
X28114571Y-50462571D01*
X29043142Y-50462571D01*
X30400285Y-48962571D02*
X29686000Y-48962571D01*
X29614571Y-49676857D01*
X29686000Y-49605428D01*
X29828857Y-49534000D01*
X30186000Y-49534000D01*
X30328857Y-49605428D01*
X30400285Y-49676857D01*
X30471714Y-49819714D01*
X30471714Y-50176857D01*
X30400285Y-50319714D01*
X30328857Y-50391142D01*
X30186000Y-50462571D01*
X29828857Y-50462571D01*
X29686000Y-50391142D01*
X29614571Y-50319714D01*
X184741571Y-145966571D02*
X184241571Y-145252285D01*
X183884428Y-145966571D02*
X183884428Y-144466571D01*
X184455857Y-144466571D01*
X184598714Y-144538000D01*
X184670142Y-144609428D01*
X184741571Y-144752285D01*
X184741571Y-144966571D01*
X184670142Y-145109428D01*
X184598714Y-145180857D01*
X184455857Y-145252285D01*
X183884428Y-145252285D01*
X185955857Y-145895142D02*
X185813000Y-145966571D01*
X185527285Y-145966571D01*
X185384428Y-145895142D01*
X185313000Y-145752285D01*
X185313000Y-145180857D01*
X185384428Y-145038000D01*
X185527285Y-144966571D01*
X185813000Y-144966571D01*
X185955857Y-145038000D01*
X186027285Y-145180857D01*
X186027285Y-145323714D01*
X185313000Y-145466571D01*
X186527285Y-144966571D02*
X186884428Y-145966571D01*
X187241571Y-144966571D01*
X187813000Y-145823714D02*
X187884428Y-145895142D01*
X187813000Y-145966571D01*
X187741571Y-145895142D01*
X187813000Y-145823714D01*
X187813000Y-145966571D01*
X188384428Y-144466571D02*
X189313000Y-144466571D01*
X188813000Y-145038000D01*
X189027285Y-145038000D01*
X189170142Y-145109428D01*
X189241571Y-145180857D01*
X189313000Y-145323714D01*
X189313000Y-145680857D01*
X189241571Y-145823714D01*
X189170142Y-145895142D01*
X189027285Y-145966571D01*
X188598714Y-145966571D01*
X188455857Y-145895142D01*
X188384428Y-145823714D01*
X172958714Y-145538000D02*
X173673000Y-145538000D01*
X172815857Y-145966571D02*
X173315857Y-144466571D01*
X173815857Y-145966571D01*
X175101571Y-145966571D02*
X174244428Y-145966571D01*
X174673000Y-145966571D02*
X174673000Y-144466571D01*
X174530142Y-144680857D01*
X174387285Y-144823714D01*
X174244428Y-144895142D01*
X175673000Y-144609428D02*
X175744428Y-144538000D01*
X175887285Y-144466571D01*
X176244428Y-144466571D01*
X176387285Y-144538000D01*
X176458714Y-144609428D01*
X176530142Y-144752285D01*
X176530142Y-144895142D01*
X176458714Y-145109428D01*
X175601571Y-145966571D01*
X176530142Y-145966571D01*
X177458714Y-144466571D02*
X177601571Y-144466571D01*
X177744428Y-144538000D01*
X177815857Y-144609428D01*
X177887285Y-144752285D01*
X177958714Y-145038000D01*
X177958714Y-145395142D01*
X177887285Y-145680857D01*
X177815857Y-145823714D01*
X177744428Y-145895142D01*
X177601571Y-145966571D01*
X177458714Y-145966571D01*
X177315857Y-145895142D01*
X177244428Y-145823714D01*
X177173000Y-145680857D01*
X177101571Y-145395142D01*
X177101571Y-145038000D01*
X177173000Y-144752285D01*
X177244428Y-144609428D01*
X177315857Y-144538000D01*
X177458714Y-144466571D01*
X178887285Y-144466571D02*
X179030142Y-144466571D01*
X179173000Y-144538000D01*
X179244428Y-144609428D01*
X179315857Y-144752285D01*
X179387285Y-145038000D01*
X179387285Y-145395142D01*
X179315857Y-145680857D01*
X179244428Y-145823714D01*
X179173000Y-145895142D01*
X179030142Y-145966571D01*
X178887285Y-145966571D01*
X178744428Y-145895142D01*
X178673000Y-145823714D01*
X178601571Y-145680857D01*
X178530142Y-145395142D01*
X178530142Y-145038000D01*
X178601571Y-144752285D01*
X178673000Y-144609428D01*
X178744428Y-144538000D01*
X178887285Y-144466571D01*
X180030142Y-145966571D02*
X180030142Y-144466571D01*
X180887285Y-145966571D02*
X180244428Y-145109428D01*
X180887285Y-144466571D02*
X180030142Y-145323714D01*
X182030142Y-145180857D02*
X182244428Y-145252285D01*
X182315857Y-145323714D01*
X182387285Y-145466571D01*
X182387285Y-145680857D01*
X182315857Y-145823714D01*
X182244428Y-145895142D01*
X182101571Y-145966571D01*
X181530142Y-145966571D01*
X181530142Y-144466571D01*
X182030142Y-144466571D01*
X182173000Y-144538000D01*
X182244428Y-144609428D01*
X182315857Y-144752285D01*
X182315857Y-144895142D01*
X182244428Y-145038000D01*
X182173000Y-145109428D01*
X182030142Y-145180857D01*
X181530142Y-145180857D01*
X190473285Y-145966571D02*
X190473285Y-144466571D01*
X190830428Y-144466571D01*
X191044714Y-144538000D01*
X191187571Y-144680857D01*
X191259000Y-144823714D01*
X191330428Y-145109428D01*
X191330428Y-145323714D01*
X191259000Y-145609428D01*
X191187571Y-145752285D01*
X191044714Y-145895142D01*
X190830428Y-145966571D01*
X190473285Y-145966571D01*
X192544714Y-145895142D02*
X192401857Y-145966571D01*
X192116142Y-145966571D01*
X191973285Y-145895142D01*
X191901857Y-145752285D01*
X191901857Y-145180857D01*
X191973285Y-145038000D01*
X192116142Y-144966571D01*
X192401857Y-144966571D01*
X192544714Y-145038000D01*
X192616142Y-145180857D01*
X192616142Y-145323714D01*
X191901857Y-145466571D01*
X193901857Y-145895142D02*
X193759000Y-145966571D01*
X193473285Y-145966571D01*
X193330428Y-145895142D01*
X193259000Y-145823714D01*
X193187571Y-145680857D01*
X193187571Y-145252285D01*
X193259000Y-145109428D01*
X193330428Y-145038000D01*
X193473285Y-144966571D01*
X193759000Y-144966571D01*
X193901857Y-145038000D01*
X195116142Y-145895142D02*
X194973285Y-145966571D01*
X194687571Y-145966571D01*
X194544714Y-145895142D01*
X194473285Y-145752285D01*
X194473285Y-145180857D01*
X194544714Y-145038000D01*
X194687571Y-144966571D01*
X194973285Y-144966571D01*
X195116142Y-145038000D01*
X195187571Y-145180857D01*
X195187571Y-145323714D01*
X194473285Y-145466571D01*
X195830428Y-145966571D02*
X195830428Y-144966571D01*
X195830428Y-145109428D02*
X195901857Y-145038000D01*
X196044714Y-144966571D01*
X196259000Y-144966571D01*
X196401857Y-145038000D01*
X196473285Y-145180857D01*
X196473285Y-145966571D01*
X196473285Y-145180857D02*
X196544714Y-145038000D01*
X196687571Y-144966571D01*
X196901857Y-144966571D01*
X197044714Y-145038000D01*
X197116142Y-145180857D01*
X197116142Y-145966571D01*
X197830428Y-145966571D02*
X197830428Y-144466571D01*
X197830428Y-145038000D02*
X197973285Y-144966571D01*
X198259000Y-144966571D01*
X198401857Y-145038000D01*
X198473285Y-145109428D01*
X198544714Y-145252285D01*
X198544714Y-145680857D01*
X198473285Y-145823714D01*
X198401857Y-145895142D01*
X198259000Y-145966571D01*
X197973285Y-145966571D01*
X197830428Y-145895142D01*
X199759000Y-145895142D02*
X199616142Y-145966571D01*
X199330428Y-145966571D01*
X199187571Y-145895142D01*
X199116142Y-145752285D01*
X199116142Y-145180857D01*
X199187571Y-145038000D01*
X199330428Y-144966571D01*
X199616142Y-144966571D01*
X199759000Y-145038000D01*
X199830428Y-145180857D01*
X199830428Y-145323714D01*
X199116142Y-145466571D01*
X200473285Y-145966571D02*
X200473285Y-144966571D01*
X200473285Y-145252285D02*
X200544714Y-145109428D01*
X200616142Y-145038000D01*
X200759000Y-144966571D01*
X200901857Y-144966571D01*
X202473285Y-144609428D02*
X202544714Y-144538000D01*
X202687571Y-144466571D01*
X203044714Y-144466571D01*
X203187571Y-144538000D01*
X203259000Y-144609428D01*
X203330428Y-144752285D01*
X203330428Y-144895142D01*
X203259000Y-145109428D01*
X202401857Y-145966571D01*
X203330428Y-145966571D01*
X204259000Y-144466571D02*
X204401857Y-144466571D01*
X204544714Y-144538000D01*
X204616142Y-144609428D01*
X204687571Y-144752285D01*
X204759000Y-145038000D01*
X204759000Y-145395142D01*
X204687571Y-145680857D01*
X204616142Y-145823714D01*
X204544714Y-145895142D01*
X204401857Y-145966571D01*
X204259000Y-145966571D01*
X204116142Y-145895142D01*
X204044714Y-145823714D01*
X203973285Y-145680857D01*
X203901857Y-145395142D01*
X203901857Y-145038000D01*
X203973285Y-144752285D01*
X204044714Y-144609428D01*
X204116142Y-144538000D01*
X204259000Y-144466571D01*
X206187571Y-145966571D02*
X205330428Y-145966571D01*
X205759000Y-145966571D02*
X205759000Y-144466571D01*
X205616142Y-144680857D01*
X205473285Y-144823714D01*
X205330428Y-144895142D01*
X206901857Y-145966571D02*
X207187571Y-145966571D01*
X207330428Y-145895142D01*
X207401857Y-145823714D01*
X207544714Y-145609428D01*
X207616142Y-145323714D01*
X207616142Y-144752285D01*
X207544714Y-144609428D01*
X207473285Y-144538000D01*
X207330428Y-144466571D01*
X207044714Y-144466571D01*
X206901857Y-144538000D01*
X206830428Y-144609428D01*
X206759000Y-144752285D01*
X206759000Y-145109428D01*
X206830428Y-145252285D01*
X206901857Y-145323714D01*
X207044714Y-145395142D01*
X207330428Y-145395142D01*
X207473285Y-145323714D01*
X207544714Y-145252285D01*
X207616142Y-145109428D01*
X186060000Y-147252571D02*
X186060000Y-148466857D01*
X185988571Y-148609714D01*
X185917142Y-148681142D01*
X185774285Y-148752571D01*
X185560000Y-148752571D01*
X185417142Y-148681142D01*
X186060000Y-148181142D02*
X185917142Y-148252571D01*
X185631428Y-148252571D01*
X185488571Y-148181142D01*
X185417142Y-148109714D01*
X185345714Y-147966857D01*
X185345714Y-147538285D01*
X185417142Y-147395428D01*
X185488571Y-147324000D01*
X185631428Y-147252571D01*
X185917142Y-147252571D01*
X186060000Y-147324000D01*
X186774285Y-148252571D02*
X186774285Y-147252571D01*
X186774285Y-147538285D02*
X186845714Y-147395428D01*
X186917142Y-147324000D01*
X187060000Y-147252571D01*
X187202857Y-147252571D01*
X188345714Y-148252571D02*
X188345714Y-147466857D01*
X188274285Y-147324000D01*
X188131428Y-147252571D01*
X187845714Y-147252571D01*
X187702857Y-147324000D01*
X188345714Y-148181142D02*
X188202857Y-148252571D01*
X187845714Y-148252571D01*
X187702857Y-148181142D01*
X187631428Y-148038285D01*
X187631428Y-147895428D01*
X187702857Y-147752571D01*
X187845714Y-147681142D01*
X188202857Y-147681142D01*
X188345714Y-147609714D01*
X188917142Y-147252571D02*
X189274285Y-148252571D01*
X189631428Y-147252571D02*
X189274285Y-148252571D01*
X189131428Y-148609714D01*
X189060000Y-148681142D01*
X188917142Y-148752571D01*
X190845714Y-147252571D02*
X190845714Y-148252571D01*
X190202857Y-147252571D02*
X190202857Y-148038285D01*
X190274285Y-148181142D01*
X190417142Y-148252571D01*
X190631428Y-148252571D01*
X190774285Y-148181142D01*
X190845714Y-148109714D01*
X191560000Y-147252571D02*
X191560000Y-148252571D01*
X191560000Y-147395428D02*
X191631428Y-147324000D01*
X191774285Y-147252571D01*
X191988571Y-147252571D01*
X192131428Y-147324000D01*
X192202857Y-147466857D01*
X192202857Y-148252571D01*
X192917142Y-148252571D02*
X192917142Y-147252571D01*
X192917142Y-146752571D02*
X192845714Y-146824000D01*
X192917142Y-146895428D01*
X192988571Y-146824000D01*
X192917142Y-146752571D01*
X192917142Y-146895428D01*
X194274285Y-148181142D02*
X194131428Y-148252571D01*
X193845714Y-148252571D01*
X193702857Y-148181142D01*
X193631428Y-148109714D01*
X193560000Y-147966857D01*
X193560000Y-147538285D01*
X193631428Y-147395428D01*
X193702857Y-147324000D01*
X193845714Y-147252571D01*
X194131428Y-147252571D01*
X194274285Y-147324000D01*
X195131428Y-148252571D02*
X194988571Y-148181142D01*
X194917142Y-148109714D01*
X194845714Y-147966857D01*
X194845714Y-147538285D01*
X194917142Y-147395428D01*
X194988571Y-147324000D01*
X195131428Y-147252571D01*
X195345714Y-147252571D01*
X195488571Y-147324000D01*
X195560000Y-147395428D01*
X195631428Y-147538285D01*
X195631428Y-147966857D01*
X195560000Y-148109714D01*
X195488571Y-148181142D01*
X195345714Y-148252571D01*
X195131428Y-148252571D01*
X196274285Y-148252571D02*
X196274285Y-147252571D01*
X196274285Y-147538285D02*
X196345714Y-147395428D01*
X196417142Y-147324000D01*
X196560000Y-147252571D01*
X196702857Y-147252571D01*
X197202857Y-147252571D02*
X197202857Y-148252571D01*
X197202857Y-147395428D02*
X197274285Y-147324000D01*
X197417142Y-147252571D01*
X197631428Y-147252571D01*
X197774285Y-147324000D01*
X197845714Y-147466857D01*
X197845714Y-148252571D01*
X198560000Y-148109714D02*
X198631428Y-148181142D01*
X198560000Y-148252571D01*
X198488571Y-148181142D01*
X198560000Y-148109714D01*
X198560000Y-148252571D01*
X199917142Y-148181142D02*
X199774285Y-148252571D01*
X199488571Y-148252571D01*
X199345714Y-148181142D01*
X199274285Y-148109714D01*
X199202857Y-147966857D01*
X199202857Y-147538285D01*
X199274285Y-147395428D01*
X199345714Y-147324000D01*
X199488571Y-147252571D01*
X199774285Y-147252571D01*
X199917142Y-147324000D01*
X200774285Y-148252571D02*
X200631428Y-148181142D01*
X200560000Y-148109714D01*
X200488571Y-147966857D01*
X200488571Y-147538285D01*
X200560000Y-147395428D01*
X200631428Y-147324000D01*
X200774285Y-147252571D01*
X200988571Y-147252571D01*
X201131428Y-147324000D01*
X201202857Y-147395428D01*
X201274285Y-147538285D01*
X201274285Y-147966857D01*
X201202857Y-148109714D01*
X201131428Y-148181142D01*
X200988571Y-148252571D01*
X200774285Y-148252571D01*
X201917142Y-148252571D02*
X201917142Y-147252571D01*
X201917142Y-147395428D02*
X201988571Y-147324000D01*
X202131428Y-147252571D01*
X202345714Y-147252571D01*
X202488571Y-147324000D01*
X202560000Y-147466857D01*
X202560000Y-148252571D01*
X202560000Y-147466857D02*
X202631428Y-147324000D01*
X202774285Y-147252571D01*
X202988571Y-147252571D01*
X203131428Y-147324000D01*
X203202857Y-147466857D01*
X203202857Y-148252571D01*
X173522285Y-148252571D02*
X173522285Y-147466857D01*
X173450857Y-147324000D01*
X173308000Y-147252571D01*
X173022285Y-147252571D01*
X172879428Y-147324000D01*
X173522285Y-148181142D02*
X173379428Y-148252571D01*
X173022285Y-148252571D01*
X172879428Y-148181142D01*
X172808000Y-148038285D01*
X172808000Y-147895428D01*
X172879428Y-147752571D01*
X173022285Y-147681142D01*
X173379428Y-147681142D01*
X173522285Y-147609714D01*
X174808000Y-148181142D02*
X174665142Y-148252571D01*
X174379428Y-148252571D01*
X174236571Y-148181142D01*
X174165142Y-148038285D01*
X174165142Y-147466857D01*
X174236571Y-147324000D01*
X174379428Y-147252571D01*
X174665142Y-147252571D01*
X174808000Y-147324000D01*
X174879428Y-147466857D01*
X174879428Y-147609714D01*
X174165142Y-147752571D01*
X175522285Y-148252571D02*
X175522285Y-146752571D01*
X175522285Y-147324000D02*
X175665142Y-147252571D01*
X175950857Y-147252571D01*
X176093714Y-147324000D01*
X176165142Y-147395428D01*
X176236571Y-147538285D01*
X176236571Y-147966857D01*
X176165142Y-148109714D01*
X176093714Y-148181142D01*
X175950857Y-148252571D01*
X175665142Y-148252571D01*
X175522285Y-148181142D01*
X177450857Y-148181142D02*
X177308000Y-148252571D01*
X177022285Y-148252571D01*
X176879428Y-148181142D01*
X176808000Y-148038285D01*
X176808000Y-147466857D01*
X176879428Y-147324000D01*
X177022285Y-147252571D01*
X177308000Y-147252571D01*
X177450857Y-147324000D01*
X177522285Y-147466857D01*
X177522285Y-147609714D01*
X176808000Y-147752571D01*
X178165142Y-148252571D02*
X178165142Y-147252571D01*
X178165142Y-147538285D02*
X178236571Y-147395428D01*
X178308000Y-147324000D01*
X178450857Y-147252571D01*
X178593714Y-147252571D01*
X179093714Y-148252571D02*
X179093714Y-146752571D01*
X179093714Y-147324000D02*
X179236571Y-147252571D01*
X179522285Y-147252571D01*
X179665142Y-147324000D01*
X179736571Y-147395428D01*
X179808000Y-147538285D01*
X179808000Y-147966857D01*
X179736571Y-148109714D01*
X179665142Y-148181142D01*
X179522285Y-148252571D01*
X179236571Y-148252571D01*
X179093714Y-148181142D01*
X181093714Y-148252571D02*
X181093714Y-147466857D01*
X181022285Y-147324000D01*
X180879428Y-147252571D01*
X180593714Y-147252571D01*
X180450857Y-147324000D01*
X181093714Y-148181142D02*
X180950857Y-148252571D01*
X180593714Y-148252571D01*
X180450857Y-148181142D01*
X180379428Y-148038285D01*
X180379428Y-147895428D01*
X180450857Y-147752571D01*
X180593714Y-147681142D01*
X180950857Y-147681142D01*
X181093714Y-147609714D01*
X182450857Y-148181142D02*
X182308000Y-148252571D01*
X182022285Y-148252571D01*
X181879428Y-148181142D01*
X181808000Y-148109714D01*
X181736571Y-147966857D01*
X181736571Y-147538285D01*
X181808000Y-147395428D01*
X181879428Y-147324000D01*
X182022285Y-147252571D01*
X182308000Y-147252571D01*
X182450857Y-147324000D01*
X183093714Y-148252571D02*
X183093714Y-146752571D01*
X183736571Y-148252571D02*
X183736571Y-147466857D01*
X183665142Y-147324000D01*
X183522285Y-147252571D01*
X183308000Y-147252571D01*
X183165142Y-147324000D01*
X183093714Y-147395428D01*
D11*
X411188000Y-143892000D03*
X404838000Y-146432000D03*
X166726000Y-143838000D03*
X160376000Y-146378000D03*
X82906000Y-138758000D03*
X89256000Y-136218000D03*
X235306000Y-138758000D03*
X241656000Y-136218000D03*
X438366000Y-136272000D03*
X432016000Y-138812000D03*
X31090000Y-81608000D03*
X37440000Y-79068000D03*
X400266000Y-98172000D03*
X393916000Y-100712000D03*
X180696000Y-34304000D03*
X187046000Y-31764000D03*
X204064000Y-98118000D03*
X197714000Y-100658000D03*
X154534000Y-31990000D03*
X148184000Y-34530000D03*
X295504000Y-91260000D03*
X301854000Y-88720000D03*
X400266000Y-79122000D03*
X393916000Y-81662000D03*
X419316000Y-117222000D03*
X412966000Y-119762000D03*
X151740000Y-60018000D03*
X145390000Y-62558000D03*
X28042000Y-32018000D03*
X21692000Y-34558000D03*
X56490000Y-60018000D03*
X50140000Y-62558000D03*
X75540000Y-60018000D03*
X69190000Y-62558000D03*
X94590000Y-60018000D03*
X88240000Y-62558000D03*
X113640000Y-60018000D03*
X107290000Y-62558000D03*
X132690000Y-60018000D03*
X126340000Y-62558000D03*
X170790000Y-60018000D03*
X164440000Y-62558000D03*
X189840000Y-60018000D03*
X183490000Y-62558000D03*
X208890000Y-60018000D03*
X202540000Y-62558000D03*
X227940000Y-60018000D03*
X221590000Y-62558000D03*
X246990000Y-60018000D03*
X240640000Y-62558000D03*
X266040000Y-60018000D03*
X259690000Y-62558000D03*
X285090000Y-60018000D03*
X278740000Y-62558000D03*
X304140000Y-60018000D03*
X297790000Y-62558000D03*
X400266000Y-60072000D03*
X393916000Y-62612000D03*
X419316000Y-60072000D03*
X412966000Y-62612000D03*
X438366000Y-60072000D03*
X432016000Y-62612000D03*
X457416000Y-60072000D03*
X451066000Y-62612000D03*
X65888000Y-79068000D03*
X59538000Y-81608000D03*
X84938000Y-79068000D03*
X78588000Y-81608000D03*
X103988000Y-79068000D03*
X97638000Y-81608000D03*
X123038000Y-79068000D03*
X116688000Y-81608000D03*
X142088000Y-79068000D03*
X135738000Y-81608000D03*
X161138000Y-79068000D03*
X154788000Y-81608000D03*
X180188000Y-79068000D03*
X173838000Y-81608000D03*
X199238000Y-79068000D03*
X192888000Y-81608000D03*
X218288000Y-79068000D03*
X211938000Y-81608000D03*
X237338000Y-79068000D03*
X230988000Y-81608000D03*
X256388000Y-79068000D03*
X250038000Y-81608000D03*
X275438000Y-79068000D03*
X269088000Y-81608000D03*
X419316000Y-79122000D03*
X412966000Y-81662000D03*
X438366000Y-79122000D03*
X432016000Y-81662000D03*
X457416000Y-79122000D03*
X451066000Y-81662000D03*
X70714000Y-98118000D03*
X64364000Y-100658000D03*
X89764000Y-98118000D03*
X83414000Y-100658000D03*
X108814000Y-98118000D03*
X102464000Y-100658000D03*
X127864000Y-98118000D03*
X121514000Y-100658000D03*
X146914000Y-98118000D03*
X140564000Y-100658000D03*
X165964000Y-98118000D03*
X159614000Y-100658000D03*
X185014000Y-98118000D03*
X178664000Y-100658000D03*
X223114000Y-98118000D03*
X216764000Y-100658000D03*
X242418000Y-98118000D03*
X236068000Y-100658000D03*
X261468000Y-98118000D03*
X255118000Y-100658000D03*
X280518000Y-98118000D03*
X274168000Y-100658000D03*
X352384000Y-98118000D03*
X346034000Y-100658000D03*
X419316000Y-98172000D03*
X412966000Y-100712000D03*
X438366000Y-98172000D03*
X432016000Y-100712000D03*
X457416000Y-98172000D03*
X451066000Y-100712000D03*
X61316000Y-117168000D03*
X54966000Y-119708000D03*
X80366000Y-117168000D03*
X74016000Y-119708000D03*
X99416000Y-117168000D03*
X93066000Y-119708000D03*
X118466000Y-117168000D03*
X112116000Y-119708000D03*
X137516000Y-117168000D03*
X131166000Y-119708000D03*
X156566000Y-117168000D03*
X150216000Y-119708000D03*
X175616000Y-117168000D03*
X169266000Y-119708000D03*
X194666000Y-117168000D03*
X188316000Y-119708000D03*
X207370000Y-119710000D03*
X213720000Y-117170000D03*
X232760000Y-117190000D03*
X226410000Y-119730000D03*
X251816000Y-117168000D03*
X245466000Y-119708000D03*
X333334000Y-117168000D03*
X326984000Y-119708000D03*
X352384000Y-117168000D03*
X346034000Y-119708000D03*
X371434000Y-117168000D03*
X365084000Y-119708000D03*
X400266000Y-117222000D03*
X393916000Y-119762000D03*
X438366000Y-117222000D03*
X432016000Y-119762000D03*
X366658000Y-60004000D03*
X360308000Y-62544000D03*
X32712000Y-60018000D03*
X26362000Y-62558000D03*
X338062000Y-60004000D03*
X331712000Y-62544000D03*
X263246000Y-136218000D03*
X256896000Y-138758000D03*
D12*
X148660000Y-49890000D03*
X149910000Y-52390000D03*
X151160000Y-49890000D03*
X152410000Y-52390000D03*
X153660000Y-49890000D03*
X154910000Y-52390000D03*
X156160000Y-49890000D03*
X157410000Y-52390000D03*
X158660000Y-49890000D03*
X159910000Y-52390000D03*
X161160000Y-49890000D03*
X162410000Y-52390000D03*
X163660000Y-49890000D03*
X164910000Y-52390000D03*
X166160000Y-49890000D03*
X167410000Y-52390000D03*
X168660000Y-49890000D03*
X169910000Y-52390000D03*
X171160000Y-49890000D03*
X172410000Y-52390000D03*
X173660000Y-49890000D03*
X174910000Y-52390000D03*
X176160000Y-49890000D03*
X177410000Y-52390000D03*
X178660000Y-49890000D03*
X179910000Y-52390000D03*
X181160000Y-49890000D03*
X182410000Y-52390000D03*
X183660000Y-49890000D03*
X184910000Y-52390000D03*
X186160000Y-49890000D03*
X187410000Y-52390000D03*
D11*
X52680000Y-34558000D03*
X59030000Y-32018000D03*
X76556000Y-34530000D03*
X82906000Y-31990000D03*
X106782000Y-32018000D03*
X100432000Y-34558000D03*
X124308000Y-34530000D03*
X130658000Y-31990000D03*
X210922000Y-31764000D03*
X204572000Y-34304000D03*
X228448000Y-34304000D03*
X234798000Y-31764000D03*
X258674000Y-31764000D03*
X252324000Y-34304000D03*
X276200000Y-34304000D03*
X282550000Y-31764000D03*
X30328000Y-98118000D03*
X23978000Y-100658000D03*
X51664000Y-98118000D03*
X45314000Y-100658000D03*
D13*
X47854000Y-108278000D03*
D14*
X50394000Y-108278000D03*
D11*
X28804000Y-119708000D03*
X35154000Y-117168000D03*
X281280000Y-119708000D03*
X287630000Y-117168000D03*
X459956000Y-134394000D03*
X457416000Y-128044000D03*
X44044000Y-136218000D03*
X37694000Y-138758000D03*
X61570000Y-138758000D03*
X67920000Y-136218000D03*
X280772000Y-138758000D03*
X287122000Y-136218000D03*
D15*
X43688000Y-45212000D03*
X166150000Y-93950000D03*
X54050000Y-44700000D03*
X79271000Y-53589000D03*
X101773099Y-44096901D03*
X131221099Y-143778901D03*
X125215001Y-54154999D03*
X150180000Y-145150000D03*
X148264001Y-43105999D03*
X163330000Y-95450000D03*
X151050000Y-78160000D03*
X208550000Y-129220000D03*
X236068000Y-94742000D03*
X178660000Y-40210000D03*
X179900000Y-42070000D03*
X276130000Y-126560000D03*
X276160000Y-134540000D03*
X181160000Y-40950000D03*
X301800000Y-137414000D03*
X183660000Y-43260000D03*
X41910000Y-44704000D03*
X160456001Y-125783999D03*
X154680000Y-62550000D03*
X346073099Y-67566901D03*
X50170000Y-53390000D03*
X394080000Y-96360000D03*
X167415000Y-56575000D03*
X188316000Y-111784000D03*
X179506001Y-138696001D03*
X42037000Y-49911000D03*
X295515000Y-112775000D03*
X295504000Y-78984000D03*
X181020000Y-138670000D03*
X44807249Y-51152751D03*
X338062000Y-117468000D03*
X338062000Y-97348000D03*
X41148000Y-47371000D03*
X47519999Y-48909999D03*
X304100000Y-115760000D03*
X35814000Y-51943000D03*
X152330000Y-95460000D03*
X46540000Y-46240000D03*
X57180000Y-52410000D03*
D16*
X45466000Y-42926000D03*
X43832248Y-48912248D03*
D15*
X213279099Y-94040901D03*
D17*
X28042000Y-32018000D02*
X59030000Y-32018000D01*
X82878000Y-32018000D02*
X82906000Y-31990000D01*
X59030000Y-32018000D02*
X82878000Y-32018000D01*
X106754000Y-31990000D02*
X106782000Y-32018000D01*
X82906000Y-31990000D02*
X106754000Y-31990000D01*
X130630000Y-32018000D02*
X130658000Y-31990000D01*
X106782000Y-32018000D02*
X130630000Y-32018000D01*
X130658000Y-31990000D02*
X154534000Y-31990000D01*
X178382000Y-31990000D02*
X180696000Y-34304000D01*
X154534000Y-31990000D02*
X178382000Y-31990000D01*
X180696000Y-34304000D02*
X188776000Y-34304000D01*
X191316000Y-31764000D02*
X210922000Y-31764000D01*
X188776000Y-34304000D02*
X191316000Y-31764000D01*
X210922000Y-31764000D02*
X234798000Y-31764000D01*
X234798000Y-31764000D02*
X258674000Y-31764000D01*
X260264990Y-31764000D02*
X282550000Y-31764000D01*
X258674000Y-31764000D02*
X260264990Y-31764000D01*
X438366000Y-60072000D02*
X419316000Y-60072000D01*
X419316000Y-60072000D02*
X400266000Y-60072000D01*
X366726000Y-60072000D02*
X366658000Y-60004000D01*
X400266000Y-60072000D02*
X366726000Y-60072000D01*
X357378221Y-57103979D02*
X360278242Y-60004000D01*
X360278242Y-60004000D02*
X366658000Y-60004000D01*
X282550000Y-54585000D02*
X285068979Y-57103979D01*
X285068979Y-57103979D02*
X357378221Y-57103979D01*
X282550000Y-31764000D02*
X282550000Y-54585000D01*
X166150000Y-93950000D02*
X166150000Y-93950000D01*
X434384002Y-62612000D02*
X451066000Y-62612000D01*
X432784001Y-61011999D02*
X434384002Y-62612000D01*
X429395999Y-62863999D02*
X431247999Y-61011999D01*
X429395999Y-67594749D02*
X429395999Y-62863999D01*
X389995979Y-81375515D02*
X394499505Y-76871989D01*
X420118759Y-76871989D02*
X429395999Y-67594749D01*
X295818263Y-85819979D02*
X303368483Y-85819979D01*
X290849970Y-90788272D02*
X295818263Y-85819979D01*
X290849970Y-92510030D02*
X290849970Y-90788272D01*
X431247999Y-61011999D02*
X432784001Y-61011999D01*
X213747100Y-93065900D02*
X214599159Y-93917959D01*
X237875455Y-93267949D02*
X290092051Y-93267949D01*
X237074485Y-92466979D02*
X237875455Y-93267949D01*
X389995979Y-91014021D02*
X389995979Y-81375515D01*
X320402695Y-91484939D02*
X389525061Y-91484939D01*
X303368483Y-85819979D02*
X309008504Y-91460000D01*
X233393537Y-93917959D02*
X234844517Y-92466979D01*
X214599159Y-93917959D02*
X233393537Y-93917959D01*
X166767969Y-94567969D02*
X211309029Y-94567969D01*
X309008504Y-91460000D02*
X320377756Y-91460000D01*
X320377756Y-91460000D02*
X320402695Y-91484939D01*
X290092051Y-93267949D02*
X290849970Y-92510030D01*
X394499505Y-76871989D02*
X420118759Y-76871989D01*
X211309029Y-94567969D02*
X212811098Y-93065900D01*
X234844517Y-92466979D02*
X237074485Y-92466979D01*
X212811098Y-93065900D02*
X213747100Y-93065900D01*
X389525061Y-91484939D02*
X389995979Y-91014021D01*
X166150000Y-93950000D02*
X166767969Y-94567969D01*
X49634064Y-46639950D02*
X48206114Y-45212000D01*
X48206114Y-45212000D02*
X43688000Y-45212000D01*
X146452294Y-46639950D02*
X49634064Y-46639950D01*
X147039285Y-46052959D02*
X146452294Y-46639950D01*
X159161463Y-46052959D02*
X147039285Y-46052959D01*
X166160000Y-49890000D02*
X164922999Y-48652999D01*
X161098494Y-47989990D02*
X159161463Y-46052959D01*
X163342251Y-48652999D02*
X162679242Y-47989990D01*
X162679242Y-47989990D02*
X161098494Y-47989990D01*
X164922999Y-48652999D02*
X163342251Y-48652999D01*
X168660000Y-49639986D02*
X166372995Y-47352981D01*
X168660000Y-49890000D02*
X168660000Y-49639986D01*
X163880737Y-47352981D02*
X163217726Y-46689970D01*
X166372995Y-47352981D02*
X163880737Y-47352981D01*
X161636978Y-46689970D02*
X159699947Y-44752939D01*
X163217726Y-46689970D02*
X161636978Y-46689970D01*
X146500801Y-44752939D02*
X146500799Y-44752941D01*
X159699947Y-44752939D02*
X146500801Y-44752939D01*
X146500799Y-44752941D02*
X145913810Y-45339930D01*
X145913810Y-45339930D02*
X54689930Y-45339930D01*
X54689930Y-45339930D02*
X54050000Y-44700000D01*
X54050000Y-44700000D02*
X54050000Y-44700000D01*
X426394002Y-81662000D02*
X432016000Y-81662000D01*
X413321013Y-94734989D02*
X426394002Y-81662000D01*
X303674003Y-96517999D02*
X305457013Y-94734989D01*
X163614002Y-96450000D02*
X163682001Y-96517999D01*
X79712999Y-85116973D02*
X91046026Y-96450000D01*
X163682001Y-96517999D02*
X303674003Y-96517999D01*
X91046026Y-96450000D02*
X163614002Y-96450000D01*
X305457013Y-94734989D02*
X413321013Y-94734989D01*
X79712999Y-82732999D02*
X79712999Y-85116973D01*
X78588000Y-81608000D02*
X79712999Y-82732999D01*
X168672999Y-53627001D02*
X167092251Y-53627001D01*
X169910000Y-52390000D02*
X168672999Y-53627001D01*
X166442241Y-54277011D02*
X165773003Y-54277011D01*
X167092251Y-53627001D02*
X166442241Y-54277011D01*
X164861493Y-54277011D02*
X163561473Y-55577031D01*
X165773003Y-54277011D02*
X164861493Y-54277011D01*
X148342393Y-55577031D02*
X148342389Y-55577027D01*
X163561473Y-55577031D02*
X148342393Y-55577031D01*
X148342389Y-55577027D02*
X145905412Y-53140050D01*
X145905412Y-53140050D02*
X79869950Y-53140050D01*
X79869950Y-53140050D02*
X79360000Y-53650000D01*
X415334002Y-100712000D02*
X432016000Y-100712000D01*
X413734001Y-99111999D02*
X415334002Y-100712000D01*
X412197999Y-99111999D02*
X413734001Y-99111999D01*
X410140000Y-105886750D02*
X410140000Y-101169998D01*
X299898494Y-113199990D02*
X402826760Y-113199990D01*
X402826760Y-113199990D02*
X410140000Y-105886750D01*
X189124992Y-111149990D02*
X297848493Y-111149989D01*
X102464000Y-100658000D02*
X103588999Y-101782999D01*
X119251001Y-110808999D02*
X188784001Y-110808999D01*
X103588999Y-101782999D02*
X103588999Y-104166973D01*
X410140000Y-101169998D02*
X412197999Y-99111999D01*
X188784001Y-110808999D02*
X189124992Y-111149990D01*
X103588999Y-104166973D02*
X110232026Y-110810000D01*
X297848493Y-111149989D02*
X299898494Y-113199990D01*
X119250000Y-110810000D02*
X119251001Y-110808999D01*
X110232026Y-110810000D02*
X119250000Y-110810000D01*
X169922999Y-48652999D02*
X168592265Y-48652999D01*
X171160000Y-49890000D02*
X169922999Y-48652999D01*
X166642237Y-46702971D02*
X164149979Y-46702971D01*
X168592265Y-48652999D02*
X166642237Y-46702971D01*
X163486968Y-46039960D02*
X161906220Y-46039960D01*
X164149979Y-46702971D02*
X163486968Y-46039960D01*
X161906220Y-46039960D02*
X159969189Y-44102929D01*
X146231559Y-44102929D02*
X146231555Y-44102933D01*
X159969189Y-44102929D02*
X146231559Y-44102929D01*
X146231555Y-44102933D02*
X145644568Y-44689920D01*
X145644568Y-44689920D02*
X102319920Y-44689920D01*
X102319920Y-44689920D02*
X101770000Y-44140000D01*
X131221099Y-143778901D02*
X131221099Y-143778901D01*
X429740729Y-120951999D02*
X430826001Y-120951999D01*
X430826001Y-120951999D02*
X432016000Y-119762000D01*
X416020729Y-134671999D02*
X429740729Y-120951999D01*
X397550725Y-134671999D02*
X416020729Y-134671999D01*
X304349242Y-130920010D02*
X389640786Y-130920010D01*
X396656823Y-135565901D02*
X397550725Y-134671999D01*
X234317901Y-143766901D02*
X291502351Y-143766901D01*
X228264030Y-137713030D02*
X234317901Y-143766901D01*
X184339224Y-137713030D02*
X228264030Y-137713030D01*
X181571012Y-140481242D02*
X184339224Y-137713030D01*
X389640786Y-130920010D02*
X394286677Y-135565901D01*
X167636241Y-145438001D02*
X172593000Y-140481242D01*
X162723255Y-145438001D02*
X167636241Y-145438001D01*
X172593000Y-140481242D02*
X181571012Y-140481242D01*
X394286677Y-135565901D02*
X396656823Y-135565901D01*
X161064155Y-143778901D02*
X162723255Y-145438001D01*
X291502351Y-143766901D02*
X304349242Y-130920010D01*
X131221099Y-143778901D02*
X161064155Y-143778901D01*
X171172999Y-53627001D02*
X169592251Y-53627001D01*
X172410000Y-52390000D02*
X171172999Y-53627001D01*
X168942241Y-54277011D02*
X167361493Y-54277011D01*
X169592251Y-53627001D02*
X168942241Y-54277011D01*
X166711483Y-54927021D02*
X165130735Y-54927021D01*
X167361493Y-54277011D02*
X166711483Y-54927021D01*
X165130735Y-54927021D02*
X163830715Y-56227041D01*
X148073151Y-56227041D02*
X148073145Y-56227035D01*
X163830715Y-56227041D02*
X148073151Y-56227041D01*
X148073145Y-56227035D02*
X145636170Y-53790060D01*
X145636170Y-53790060D02*
X125589940Y-53790060D01*
X125589940Y-53790060D02*
X125220000Y-54160000D01*
X150180000Y-145150000D02*
X150180000Y-145150000D01*
X412999998Y-138812000D02*
X432016000Y-138812000D01*
X167905483Y-146088011D02*
X172862242Y-141131252D01*
X184541506Y-138430000D02*
X228061748Y-138430000D01*
X404119998Y-148082000D02*
X405556002Y-148082000D01*
X410711997Y-141100001D02*
X412999998Y-138812000D01*
X402209000Y-146171002D02*
X404119998Y-148082000D01*
X407416000Y-145295998D02*
X410711997Y-142000001D01*
X388983778Y-132220030D02*
X402209000Y-145445252D01*
X308436972Y-132220030D02*
X388983778Y-132220030D01*
X405556002Y-148082000D02*
X407416000Y-146222002D01*
X302268001Y-138389001D02*
X308436972Y-132220030D01*
X407416000Y-146222002D02*
X407416000Y-145295998D01*
X291771593Y-144416911D02*
X297799503Y-138389001D01*
X234048659Y-144416911D02*
X291771593Y-144416911D01*
X162344011Y-146088011D02*
X167905483Y-146088011D01*
X181840254Y-141131252D02*
X184541506Y-138430000D01*
X297799503Y-138389001D02*
X302268001Y-138389001D01*
X161976001Y-145609999D02*
X161976001Y-145720001D01*
X228061748Y-138430000D02*
X234048659Y-144416911D01*
X161016003Y-144650001D02*
X161976001Y-145609999D01*
X150679999Y-144650001D02*
X161016003Y-144650001D01*
X402209000Y-145445252D02*
X402209000Y-146171002D01*
X150180000Y-145150000D02*
X150679999Y-144650001D01*
X161976001Y-145720001D02*
X162344011Y-146088011D01*
X410711997Y-142000001D02*
X410711997Y-141100001D01*
X172862242Y-141131252D02*
X181840254Y-141131252D01*
X172422999Y-48652999D02*
X170842251Y-48652999D01*
X173660000Y-49890000D02*
X172422999Y-48652999D01*
X170192241Y-48002989D02*
X168861507Y-48002989D01*
X170842251Y-48652999D02*
X170192241Y-48002989D01*
X166911479Y-46052961D02*
X164419221Y-46052961D01*
X168861507Y-48002989D02*
X166911479Y-46052961D01*
X163756210Y-45389950D02*
X162175462Y-45389950D01*
X164419221Y-46052961D02*
X163756210Y-45389950D01*
X162175462Y-45389950D02*
X160238431Y-43452919D01*
X160238431Y-43452919D02*
X148642919Y-43452919D01*
X148642919Y-43452919D02*
X148270000Y-43080000D01*
X163330000Y-95450000D02*
X163310000Y-95450000D01*
X160230000Y-78160000D02*
X161138000Y-79068000D01*
X151050000Y-78160000D02*
X160230000Y-78160000D01*
X393996001Y-83332991D02*
X393996001Y-90653999D01*
X393916000Y-83252990D02*
X393996001Y-83332991D01*
X393996001Y-90653999D02*
X391215031Y-93434969D01*
X393916000Y-81662000D02*
X393916000Y-83252990D01*
X391215031Y-93434969D02*
X319594969Y-93434969D01*
X319594969Y-93434969D02*
X319580000Y-93420000D01*
X179159999Y-39710001D02*
X178660000Y-40210000D01*
X185443973Y-39710001D02*
X179159999Y-39710001D01*
X186968901Y-38185073D02*
X185443973Y-39710001D01*
X186968901Y-37463097D02*
X186968901Y-38185073D01*
X190127998Y-34304000D02*
X186968901Y-37463097D01*
X204572000Y-34304000D02*
X190127998Y-34304000D01*
X184870000Y-42080000D02*
X184860000Y-42070000D01*
X214259252Y-42080000D02*
X184870000Y-42080000D01*
X222035252Y-34304000D02*
X214259252Y-42080000D01*
X184860000Y-42070000D02*
X179900000Y-42070000D01*
X228448000Y-34304000D02*
X222035252Y-34304000D01*
X276130000Y-126560000D02*
X276130000Y-126560000D01*
X276160000Y-134540000D02*
X276160000Y-134540000D01*
X214470000Y-40950000D02*
X181160000Y-40950000D01*
X223005990Y-32414010D02*
X214470000Y-40950000D01*
X233080008Y-32414010D02*
X223005990Y-32414010D01*
X234969998Y-34304000D02*
X233080008Y-32414010D01*
X252324000Y-34304000D02*
X234969998Y-34304000D01*
X295250000Y-60018000D02*
X297790000Y-62558000D01*
X285090000Y-60018000D02*
X295250000Y-60018000D01*
X400194901Y-84815097D02*
X403347998Y-81662000D01*
X298128927Y-91331099D02*
X303923101Y-91331099D01*
X400194901Y-85387073D02*
X400194901Y-84815097D01*
X295072011Y-95867989D02*
X295584001Y-95355999D01*
X303923101Y-91331099D02*
X306676981Y-94084979D01*
X391496995Y-94084979D02*
X400194901Y-85387073D01*
X306676981Y-94084979D02*
X391496995Y-94084979D01*
X295584001Y-93876025D02*
X298128927Y-91331099D01*
X163951243Y-95867989D02*
X295072011Y-95867989D01*
X403347998Y-81662000D02*
X412966000Y-81662000D01*
X163533254Y-95450000D02*
X163951243Y-95867989D01*
X295584001Y-95355999D02*
X295584001Y-93876025D01*
X163330000Y-95450000D02*
X163533254Y-95450000D01*
X411375010Y-119762000D02*
X412966000Y-119762000D01*
X230810000Y-129220000D02*
X234561901Y-132971901D01*
X304080000Y-130270000D02*
X400867010Y-130270000D01*
X301378099Y-132971901D02*
X304080000Y-130270000D01*
X400867010Y-130270000D02*
X411375010Y-119762000D01*
X234561901Y-132971901D02*
X301378099Y-132971901D01*
X208550000Y-129220000D02*
X230810000Y-129220000D01*
X318224969Y-93434969D02*
X319594969Y-93434969D01*
X294735999Y-89659999D02*
X296272001Y-89659999D01*
X304192343Y-90681089D02*
X306931254Y-93420000D01*
X297293091Y-90681089D02*
X304192343Y-90681089D01*
X296272001Y-89659999D02*
X297293091Y-90681089D01*
X236070000Y-94760000D02*
X236527979Y-95217979D01*
X306931254Y-93420000D02*
X318210000Y-93420000D01*
X292800000Y-91595998D02*
X294735999Y-89659999D01*
X292800000Y-94180000D02*
X292800000Y-91595998D01*
X291762021Y-95217979D02*
X292800000Y-94180000D01*
X318210000Y-93420000D02*
X318224969Y-93434969D01*
X236527979Y-95217979D02*
X291762021Y-95217979D01*
X393916000Y-102302990D02*
X393916000Y-100712000D01*
X390652000Y-112268000D02*
X393996001Y-108923999D01*
X299885756Y-112268000D02*
X390652000Y-112268000D01*
X393996001Y-102382991D02*
X393916000Y-102302990D01*
X273836000Y-110490000D02*
X298107756Y-110490000D01*
X264075099Y-100729099D02*
X273836000Y-110490000D01*
X393996001Y-108923999D02*
X393996001Y-102382991D01*
X255189099Y-100729099D02*
X264075099Y-100729099D01*
X298107756Y-110490000D02*
X299885756Y-112268000D01*
X255118000Y-100658000D02*
X255189099Y-100729099D01*
X378458002Y-119762000D02*
X393916000Y-119762000D01*
X371660002Y-126560000D02*
X378458002Y-119762000D01*
X276130000Y-126560000D02*
X371660002Y-126560000D01*
X168316990Y-143838000D02*
X166726000Y-143838000D01*
X169799000Y-142355990D02*
X168316990Y-143838000D01*
X172720000Y-135763000D02*
X169799000Y-138684000D01*
X230500974Y-135763000D02*
X172720000Y-135763000D01*
X169799000Y-138684000D02*
X169799000Y-142355990D01*
X231723974Y-134540000D02*
X230500974Y-135763000D01*
X276160000Y-134540000D02*
X231723974Y-134540000D01*
X297804000Y-62544000D02*
X297790000Y-62558000D01*
X330212000Y-62544000D02*
X297804000Y-62544000D01*
X264627003Y-35428999D02*
X242288013Y-57767989D01*
X275075001Y-35428999D02*
X264627003Y-35428999D01*
X276200000Y-34304000D02*
X275075001Y-35428999D01*
X187787989Y-57767989D02*
X182410000Y-52390000D01*
X242288013Y-57767989D02*
X187787989Y-57767989D01*
X330212000Y-62544000D02*
X331712000Y-62544000D01*
X403713001Y-145307001D02*
X404838000Y-146432000D01*
X402990001Y-145307001D02*
X403713001Y-145307001D01*
X389253020Y-131570020D02*
X402990001Y-145307001D01*
X307643980Y-131570020D02*
X389253020Y-131570020D01*
X301800000Y-137414000D02*
X307643980Y-131570020D01*
X350793010Y-117168000D02*
X352384000Y-117168000D01*
X347375099Y-120585911D02*
X350793010Y-117168000D01*
X347375099Y-122974901D02*
X347375099Y-120585911D01*
X346751999Y-123598001D02*
X347375099Y-122974901D01*
X344115999Y-123598001D02*
X346751999Y-123598001D01*
X340225998Y-119708000D02*
X344115999Y-123598001D01*
X326984000Y-119708000D02*
X340225998Y-119708000D01*
X362544000Y-117168000D02*
X365084000Y-119708000D01*
X352384000Y-117168000D02*
X362544000Y-117168000D01*
X355117001Y-95384999D02*
X352384000Y-98118000D01*
X449475010Y-81662000D02*
X435752011Y-95384999D01*
X435752011Y-95384999D02*
X355117001Y-95384999D01*
X451066000Y-81662000D02*
X449475010Y-81662000D01*
X277800001Y-33535999D02*
X277800001Y-35072001D01*
X277800001Y-35072001D02*
X276982001Y-35890001D01*
X260102003Y-32703999D02*
X276968001Y-32703999D01*
X254948927Y-34531099D02*
X258274903Y-34531099D01*
X183660000Y-43260000D02*
X184189990Y-42730010D01*
X252404001Y-37076025D02*
X254948927Y-34531099D01*
X247165992Y-42730010D02*
X252404001Y-37492001D01*
X184189990Y-42730010D02*
X247165992Y-42730010D01*
X276982001Y-35890001D02*
X276982001Y-38194001D01*
X252404001Y-37492001D02*
X252404001Y-37076025D01*
X276968001Y-32703999D02*
X277800001Y-33535999D01*
X258274903Y-34531099D02*
X260102003Y-32703999D01*
X276982001Y-53843001D02*
X276982001Y-38194001D01*
X280892989Y-57753989D02*
X276982001Y-53843001D01*
X360308000Y-60953010D02*
X357108979Y-57753989D01*
X357108979Y-57753989D02*
X280892989Y-57753989D01*
X360308000Y-62544000D02*
X360308000Y-60953010D01*
X282113099Y-139635911D02*
X285531010Y-136218000D01*
X280671999Y-142648001D02*
X282113099Y-141206901D01*
X278853999Y-142648001D02*
X280671999Y-142648001D01*
X274963998Y-138758000D02*
X278853999Y-142648001D01*
X285531010Y-136218000D02*
X287122000Y-136218000D01*
X282113099Y-141206901D02*
X282113099Y-139635911D01*
X256896000Y-138758000D02*
X274963998Y-138758000D01*
X37694000Y-138758000D02*
X61570000Y-138758000D01*
X44123003Y-44204001D02*
X42409999Y-44204001D01*
X48475358Y-44561992D02*
X44480994Y-44561992D01*
X146770043Y-45402949D02*
X146183052Y-45989940D01*
X44480994Y-44561992D02*
X44123003Y-44204001D01*
X146183052Y-45989940D02*
X49903306Y-45989940D01*
X159430705Y-45402949D02*
X146770043Y-45402949D01*
X166103753Y-48002991D02*
X163611495Y-48002991D01*
X161367736Y-47339980D02*
X159430705Y-45402949D01*
X49903306Y-45989940D02*
X48475358Y-44561992D01*
X163611495Y-48002991D02*
X162948484Y-47339980D01*
X162948484Y-47339980D02*
X161367736Y-47339980D01*
X42409999Y-44204001D02*
X41910000Y-44704000D01*
X184910000Y-52390000D02*
X183647001Y-51127001D01*
X167397001Y-49296239D02*
X166103753Y-48002991D01*
X167397001Y-50483761D02*
X167397001Y-49296239D01*
X183647001Y-51127001D02*
X168040241Y-51127001D01*
X168040241Y-51127001D02*
X167397001Y-50483761D01*
X280155001Y-120832999D02*
X281280000Y-119708000D01*
X274475999Y-125783999D02*
X279426999Y-120832999D01*
X279426999Y-120832999D02*
X280155001Y-120832999D01*
X160456001Y-125783999D02*
X274475999Y-125783999D01*
X153660000Y-49890000D02*
X152990762Y-49890000D01*
X276200000Y-60018000D02*
X278740000Y-62558000D01*
X266040000Y-60018000D02*
X276200000Y-60018000D01*
X266040000Y-60018000D02*
X246990000Y-60018000D01*
X245399010Y-60018000D02*
X227940000Y-60018000D01*
X246990000Y-60018000D02*
X245399010Y-60018000D01*
X227940000Y-60018000D02*
X208890000Y-60018000D01*
X185080990Y-62558000D02*
X183490000Y-62558000D01*
X189668002Y-62558000D02*
X185080990Y-62558000D01*
X192208002Y-60018000D02*
X189668002Y-62558000D01*
X208890000Y-60018000D02*
X192208002Y-60018000D01*
X180950000Y-60018000D02*
X170790000Y-60018000D01*
X183490000Y-62558000D02*
X180950000Y-60018000D01*
X146980990Y-62558000D02*
X145390000Y-62558000D01*
X142850000Y-60018000D02*
X132690000Y-60018000D01*
X145390000Y-62558000D02*
X142850000Y-60018000D01*
X132690000Y-60018000D02*
X113640000Y-60018000D01*
X113640000Y-60018000D02*
X94590000Y-60018000D01*
X94590000Y-60018000D02*
X75540000Y-60018000D01*
X75540000Y-60018000D02*
X56490000Y-60018000D01*
X56490000Y-60018000D02*
X32712000Y-60018000D01*
X153602000Y-62558000D02*
X146980990Y-62558000D01*
X165781099Y-63435911D02*
X169199010Y-60018000D01*
X165781099Y-64484903D02*
X165781099Y-63435911D01*
X163818001Y-66448001D02*
X165781099Y-64484903D01*
X162521999Y-66448001D02*
X163818001Y-66448001D01*
X158631998Y-62558000D02*
X162521999Y-66448001D01*
X169199010Y-60018000D02*
X170790000Y-60018000D01*
X153602000Y-62558000D02*
X158631998Y-62558000D01*
X296990899Y-67566901D02*
X344573099Y-67566901D01*
X291981998Y-62558000D02*
X296990899Y-67566901D01*
X278740000Y-62558000D02*
X291981998Y-62558000D01*
X346073099Y-67566901D02*
X346073099Y-67566901D01*
X344573099Y-67566901D02*
X346073099Y-67566901D01*
X166172999Y-53627001D02*
X165503761Y-53627001D01*
X167410000Y-52390000D02*
X166172999Y-53627001D01*
X164592251Y-53627001D02*
X163292231Y-54927021D01*
X165503761Y-53627001D02*
X164592251Y-53627001D01*
X148611635Y-54927021D02*
X148611633Y-54927019D01*
X163292231Y-54927021D02*
X148611635Y-54927021D01*
X148611633Y-54927019D02*
X146174654Y-52490040D01*
X57648001Y-53385001D02*
X56795001Y-53385001D01*
X58542962Y-52490040D02*
X57648001Y-53385001D01*
X146174654Y-52490040D02*
X58542962Y-52490040D01*
X56795001Y-53385001D02*
X56790002Y-53390000D01*
X56790002Y-53390000D02*
X50170000Y-53390000D01*
X50170000Y-53390000D02*
X50170000Y-53390000D01*
X434384002Y-100712000D02*
X430032002Y-96360000D01*
X451066000Y-100712000D02*
X434384002Y-100712000D01*
X430032002Y-96360000D02*
X394080000Y-96360000D01*
X394080000Y-96360000D02*
X394080000Y-96360000D01*
X167415000Y-56575000D02*
X167410000Y-56570000D01*
X167415000Y-56575000D02*
X169257999Y-58417999D01*
X169257999Y-58417999D02*
X284752001Y-58417999D01*
X284766001Y-58403999D02*
X284752001Y-58417999D01*
X356007997Y-58403999D02*
X284766001Y-58403999D01*
X357687999Y-65732001D02*
X357687999Y-60084001D01*
X358389999Y-66434001D02*
X357687999Y-65732001D01*
X357687999Y-60084001D02*
X356007997Y-58403999D01*
X359686001Y-66434001D02*
X358389999Y-66434001D01*
X361076001Y-65044001D02*
X359686001Y-66434001D01*
X393916000Y-62612000D02*
X362608002Y-62612000D01*
X361076001Y-64144001D02*
X361076001Y-65044001D01*
X362608002Y-62612000D02*
X361076001Y-64144001D01*
X414090999Y-101836999D02*
X412966000Y-100712000D01*
X414090999Y-102855003D02*
X414090999Y-101836999D01*
X403096002Y-113850000D02*
X414090999Y-102855003D01*
X299629252Y-113850000D02*
X403096002Y-113850000D01*
X297579251Y-111799999D02*
X299629252Y-113850000D01*
X188310000Y-111800000D02*
X297579251Y-111799999D01*
X179506001Y-138696001D02*
X179486011Y-138696001D01*
X180455001Y-139645001D02*
X180006000Y-139196000D01*
X184069982Y-137063020D02*
X181488001Y-139645001D01*
X257567999Y-137157999D02*
X248790999Y-137157999D01*
X181488001Y-139645001D02*
X180455001Y-139645001D01*
X235979022Y-137063020D02*
X184069982Y-137063020D01*
X258517990Y-138107990D02*
X257567999Y-137157999D01*
X237384013Y-138468011D02*
X235979022Y-137063020D01*
X248790999Y-137157999D02*
X247480987Y-138468011D01*
X278531000Y-138107990D02*
X258517990Y-138107990D01*
X247480987Y-138468011D02*
X237384013Y-138468011D01*
X279181010Y-138758000D02*
X278531000Y-138107990D01*
X180006000Y-139196000D02*
X179506001Y-138696001D01*
X280772000Y-138758000D02*
X279181010Y-138758000D01*
X65888000Y-79068000D02*
X84938000Y-79068000D01*
X84938000Y-79068000D02*
X103988000Y-79068000D01*
X103988000Y-79068000D02*
X123038000Y-79068000D01*
X123038000Y-79068000D02*
X142088000Y-79068000D01*
X152248000Y-79068000D02*
X154788000Y-81608000D01*
X142088000Y-79068000D02*
X152248000Y-79068000D01*
X154788000Y-81608000D02*
X162982000Y-81608000D01*
X165522000Y-79068000D02*
X180188000Y-79068000D01*
X162982000Y-81608000D02*
X165522000Y-79068000D01*
X180188000Y-79068000D02*
X199238000Y-79068000D01*
X200828990Y-79068000D02*
X218288000Y-79068000D01*
X199238000Y-79068000D02*
X200828990Y-79068000D01*
X218288000Y-79068000D02*
X237338000Y-79068000D01*
X237338000Y-79068000D02*
X256388000Y-79068000D01*
X256388000Y-79068000D02*
X275438000Y-79068000D01*
X31090000Y-81608000D02*
X50702000Y-81608000D01*
X53242000Y-79068000D02*
X65888000Y-79068000D01*
X50702000Y-81608000D02*
X53242000Y-79068000D01*
X295515000Y-112775000D02*
X295500000Y-112760000D01*
X275522000Y-78984000D02*
X275438000Y-79068000D01*
X295504000Y-78984000D02*
X275522000Y-78984000D01*
X327731254Y-117168000D02*
X333334000Y-117168000D01*
X325073254Y-114510000D02*
X327731254Y-117168000D01*
X296003999Y-113263999D02*
X298123999Y-113263999D01*
X299370000Y-114510000D02*
X325073254Y-114510000D01*
X298123999Y-113263999D02*
X299370000Y-114510000D01*
X295515000Y-112775000D02*
X296003999Y-113263999D01*
X147582370Y-49890000D02*
X148660000Y-49890000D01*
X42744106Y-49911000D02*
X42765106Y-49890000D01*
X42765106Y-49890000D02*
X147582370Y-49890000D01*
X42037000Y-49911000D02*
X42744106Y-49911000D01*
X242424001Y-137818001D02*
X240688001Y-137818001D01*
X244024002Y-136218000D02*
X242424001Y-137818001D01*
X263246000Y-136218000D02*
X244024002Y-136218000D01*
X238125000Y-135255000D02*
X231928226Y-135255000D01*
X231928226Y-135255000D02*
X230770216Y-136413010D01*
X240688001Y-137818001D02*
X238125000Y-135255000D01*
X183276990Y-136413010D02*
X181020000Y-138670000D01*
X230770216Y-136413010D02*
X183276990Y-136413010D01*
X280518000Y-98118000D02*
X261468000Y-98118000D01*
X261468000Y-98118000D02*
X242418000Y-98118000D01*
X242418000Y-98118000D02*
X223114000Y-98118000D01*
X221523010Y-98118000D02*
X204064000Y-98118000D01*
X223114000Y-98118000D02*
X221523010Y-98118000D01*
X202473010Y-98118000D02*
X185014000Y-98118000D01*
X204064000Y-98118000D02*
X202473010Y-98118000D01*
X185014000Y-98118000D02*
X173152000Y-98118000D01*
X170612000Y-100658000D02*
X159614000Y-100658000D01*
X173152000Y-98118000D02*
X170612000Y-100658000D01*
X149454000Y-100658000D02*
X146914000Y-98118000D01*
X159614000Y-100658000D02*
X149454000Y-100658000D01*
X145323010Y-98118000D02*
X127864000Y-98118000D01*
X146914000Y-98118000D02*
X145323010Y-98118000D01*
X127864000Y-98118000D02*
X108814000Y-98118000D01*
X107223010Y-98118000D02*
X89764000Y-98118000D01*
X108814000Y-98118000D02*
X107223010Y-98118000D01*
X89764000Y-98118000D02*
X70714000Y-98118000D01*
X70714000Y-98118000D02*
X51664000Y-98118000D01*
X45419990Y-50540010D02*
X44807249Y-51152751D01*
X148832370Y-52390000D02*
X146982380Y-50540010D01*
X146982380Y-50540010D02*
X45419990Y-50540010D01*
X149910000Y-52390000D02*
X148832370Y-52390000D01*
X370309001Y-116043001D02*
X371434000Y-117168000D01*
X339962001Y-115567999D02*
X369833999Y-115567999D01*
X369833999Y-115567999D02*
X370309001Y-116043001D01*
X338062000Y-117468000D02*
X339962001Y-115567999D01*
X337232000Y-98118000D02*
X338020000Y-97330000D01*
X323904000Y-111506000D02*
X338062000Y-97348000D01*
X300043008Y-111506000D02*
X323904000Y-111506000D01*
X292743990Y-109839990D02*
X298376998Y-109839990D01*
X284408001Y-101504001D02*
X292743990Y-109839990D01*
X284408001Y-100417011D02*
X284408001Y-101504001D01*
X282108990Y-98118000D02*
X284408001Y-100417011D01*
X298376998Y-109839990D02*
X300043008Y-111506000D01*
X280518000Y-98118000D02*
X282108990Y-98118000D01*
X147577769Y-47352979D02*
X147577767Y-47352981D01*
X158622979Y-47352979D02*
X147577769Y-47352979D01*
X161160000Y-49890000D02*
X158622979Y-47352979D01*
X147577767Y-47352981D02*
X146990778Y-47939970D01*
X48440598Y-47284988D02*
X46782756Y-47284988D01*
X49095580Y-47939970D02*
X48440598Y-47284988D01*
X146990778Y-47939970D02*
X49095580Y-47939970D01*
X46782756Y-47284988D02*
X46777768Y-47280000D01*
X44540256Y-47284988D02*
X46782756Y-47284988D01*
X44454244Y-47371000D02*
X44540256Y-47284988D01*
X41148000Y-47371000D02*
X44454244Y-47371000D01*
X61316000Y-117168000D02*
X80366000Y-117168000D01*
X81956990Y-117168000D02*
X99416000Y-117168000D01*
X80366000Y-117168000D02*
X81956990Y-117168000D01*
X99416000Y-117168000D02*
X118466000Y-117168000D01*
X118466000Y-117168000D02*
X137516000Y-117168000D01*
X137516000Y-117168000D02*
X156566000Y-117168000D01*
X166726000Y-117168000D02*
X169266000Y-119708000D01*
X156566000Y-117168000D02*
X166726000Y-117168000D01*
X169266000Y-119708000D02*
X181582000Y-119708000D01*
X184122000Y-117168000D02*
X194666000Y-117168000D01*
X181582000Y-119708000D02*
X184122000Y-117168000D01*
X213718000Y-117168000D02*
X213720000Y-117170000D01*
X194666000Y-117168000D02*
X213718000Y-117168000D01*
X213720000Y-117170000D02*
X232740000Y-117170000D01*
X232742000Y-117168000D02*
X251816000Y-117168000D01*
X232740000Y-117170000D02*
X232742000Y-117168000D01*
X48550000Y-49239990D02*
X48550000Y-49232894D01*
X48227105Y-48909999D02*
X47519999Y-48909999D01*
X147530010Y-49239990D02*
X48550000Y-49239990D01*
X151160000Y-49890000D02*
X150490762Y-49890000D01*
X148117001Y-48652999D02*
X147530010Y-49239990D01*
X48550000Y-49232894D02*
X48227105Y-48909999D01*
X149253761Y-48652999D02*
X148117001Y-48652999D01*
X150490762Y-49890000D02*
X149253761Y-48652999D01*
X304100000Y-115760000D02*
X304100000Y-115760000D01*
X301091999Y-118768001D02*
X303600001Y-116259999D01*
X286861999Y-118768001D02*
X301091999Y-118768001D01*
X254278990Y-118040000D02*
X286133998Y-118040000D01*
X253406990Y-117168000D02*
X254278990Y-118040000D01*
X303600001Y-116259999D02*
X304100000Y-115760000D01*
X286133998Y-118040000D02*
X286861999Y-118768001D01*
X251816000Y-117168000D02*
X253406990Y-117168000D01*
X345094001Y-118768001D02*
X346034000Y-119708000D01*
X325404002Y-115760000D02*
X328412003Y-118768001D01*
X328412003Y-118768001D02*
X345094001Y-118768001D01*
X304100000Y-115760000D02*
X325404002Y-115760000D01*
X44068496Y-51943000D02*
X35814000Y-51943000D01*
X45275250Y-52127752D02*
X44339248Y-52127752D01*
X46212982Y-51190020D02*
X45275250Y-52127752D01*
X150503761Y-53627001D02*
X149150119Y-53627001D01*
X151147001Y-52983761D02*
X150503761Y-53627001D01*
X158090000Y-51320000D02*
X157922999Y-51152999D01*
X151816239Y-51152999D02*
X151147001Y-51822237D01*
X162410000Y-52390000D02*
X161172999Y-51152999D01*
X157922999Y-51152999D02*
X151816239Y-51152999D01*
X159149238Y-51320000D02*
X158090000Y-51320000D01*
X159316239Y-51152999D02*
X159149238Y-51320000D01*
X146713138Y-51190020D02*
X46212982Y-51190020D01*
X149150119Y-53627001D02*
X146713138Y-51190020D01*
X44111496Y-51900000D02*
X44068496Y-51943000D01*
X44339248Y-52127752D02*
X44111496Y-51900000D01*
X161172999Y-51152999D02*
X159316239Y-51152999D01*
X151147001Y-51822237D02*
X151147001Y-52983761D01*
X457416000Y-98172000D02*
X438366000Y-98172000D01*
X457416000Y-79122000D02*
X438366000Y-79122000D01*
X438366000Y-79122000D02*
X419316000Y-79122000D01*
X419316000Y-79122000D02*
X400266000Y-79122000D01*
X152330000Y-95460000D02*
X152330000Y-95460000D01*
X391295999Y-81913999D02*
X394087998Y-79122000D01*
X302829999Y-87119999D02*
X305020253Y-89310253D01*
X391295999Y-92434001D02*
X391295999Y-81913999D01*
X152330000Y-95460000D02*
X152659990Y-95789990D01*
X390945041Y-92784959D02*
X391295999Y-92434001D01*
X237336971Y-94567969D02*
X291492779Y-94567969D01*
X319864211Y-92784959D02*
X390945041Y-92784959D01*
X319849242Y-92769990D02*
X319864211Y-92784959D01*
X305020253Y-89310253D02*
X305020253Y-90589747D01*
X236536001Y-93766999D02*
X237336971Y-94567969D01*
X292149990Y-91326756D02*
X296356747Y-87119999D01*
X305020253Y-90589747D02*
X307200496Y-92769990D01*
X394087998Y-79122000D02*
X400266000Y-79122000D01*
X233932021Y-95217979D02*
X235383001Y-93766999D01*
X292149990Y-93910758D02*
X292149990Y-91326756D01*
X291492779Y-94567969D02*
X292149990Y-93910758D01*
X161537008Y-95799990D02*
X162861999Y-94474999D01*
X152659990Y-95799990D02*
X161537008Y-95799990D01*
X235383001Y-93766999D02*
X236536001Y-93766999D01*
X164897979Y-95217979D02*
X233932021Y-95217979D01*
X307200496Y-92769990D02*
X319849242Y-92769990D01*
X164154999Y-94474999D02*
X164897979Y-95217979D01*
X162861999Y-94474999D02*
X164154999Y-94474999D01*
X296356747Y-87119999D02*
X302829999Y-87119999D01*
X152659990Y-95789990D02*
X152659990Y-95799990D01*
X163660000Y-49890000D02*
X162410000Y-48640000D01*
X147308527Y-46702969D02*
X146721536Y-47289960D01*
X158892221Y-46702969D02*
X147308527Y-46702969D01*
X48314862Y-46240000D02*
X46540000Y-46240000D01*
X49364822Y-47289960D02*
X48314862Y-46240000D01*
X146721536Y-47289960D02*
X49364822Y-47289960D01*
X160829252Y-48640000D02*
X158892221Y-46702969D01*
X162410000Y-48640000D02*
X160829252Y-48640000D01*
X163022989Y-54277011D02*
X148880877Y-54277011D01*
X148880877Y-54277011D02*
X148880875Y-54277009D01*
X164910000Y-52390000D02*
X163022989Y-54277011D01*
X148880877Y-54277011D02*
X146443896Y-51840030D01*
X146443896Y-51840030D02*
X70719970Y-51840030D01*
X70719970Y-51840030D02*
X57749970Y-51840030D01*
X57749970Y-51840030D02*
X57180000Y-52410000D01*
X57180000Y-52410000D02*
X57180000Y-52410000D01*
X185490762Y-49890000D02*
X186160000Y-49890000D01*
X183603751Y-48002989D02*
X185490762Y-49890000D01*
X167180721Y-45402951D02*
X169130749Y-47352979D01*
X164688463Y-45402951D02*
X167180721Y-45402951D01*
X164025452Y-44739940D02*
X164688463Y-45402951D01*
X160507673Y-42802909D02*
X162444704Y-44739940D01*
X101318100Y-43121900D02*
X102241100Y-43121900D01*
X99750080Y-44689920D02*
X101318100Y-43121900D01*
X53721000Y-42926000D02*
X55482922Y-44687922D01*
X162444704Y-44739940D02*
X164025452Y-44739940D01*
X55482922Y-44689920D02*
X99750080Y-44689920D01*
X145375326Y-44039910D02*
X147284238Y-42130998D01*
X103159110Y-44039910D02*
X145375326Y-44039910D01*
X171111493Y-48002989D02*
X183603751Y-48002989D01*
X149350000Y-42748996D02*
X149350000Y-42802909D01*
X45466000Y-42926000D02*
X53721000Y-42926000D01*
X55482922Y-44687922D02*
X55482922Y-44689920D01*
X148732002Y-42130998D02*
X149350000Y-42748996D01*
X170461483Y-47352979D02*
X171111493Y-48002989D01*
X149350000Y-42802909D02*
X160507673Y-42802909D01*
X147284238Y-42130998D02*
X148732002Y-42130998D01*
X169130749Y-47352979D02*
X170461483Y-47352979D01*
X102241100Y-43121900D02*
X103159110Y-44039910D01*
X48171356Y-47934998D02*
X44809498Y-47934998D01*
X48826338Y-48589980D02*
X48171356Y-47934998D01*
X147847011Y-48002989D02*
X147260020Y-48589980D01*
X44809498Y-47934998D02*
X43832248Y-48912248D01*
X147260020Y-48589980D02*
X48826338Y-48589980D01*
X156772989Y-48002989D02*
X147847011Y-48002989D01*
X158660000Y-49890000D02*
X156772989Y-48002989D01*
X433140999Y-63736999D02*
X432016000Y-62612000D01*
X433140999Y-64769001D02*
X433140999Y-63736999D01*
X390645989Y-81644757D02*
X394768747Y-77521999D01*
X390645989Y-91284011D02*
X390645989Y-81644757D01*
X389795051Y-92134949D02*
X390645989Y-91284011D01*
X308749232Y-92119980D02*
X320118484Y-92119980D01*
X296087505Y-86469989D02*
X303099241Y-86469989D01*
X291499980Y-91057514D02*
X296087505Y-86469989D01*
X237606213Y-93917959D02*
X291162041Y-93917959D01*
X291162041Y-93917959D02*
X291499980Y-93580020D01*
X303099241Y-86469989D02*
X308749232Y-92119980D01*
X236805243Y-93116989D02*
X237606213Y-93917959D01*
X291499980Y-93580020D02*
X291499980Y-91057514D01*
X213320000Y-94040000D02*
X213847969Y-94567969D01*
X394768747Y-77521999D02*
X420388001Y-77521999D01*
X320133453Y-92134949D02*
X389795051Y-92134949D01*
X235113759Y-93116989D02*
X236805243Y-93116989D01*
X420388001Y-77521999D02*
X433140999Y-64769001D01*
X233662779Y-94567969D02*
X235113759Y-93116989D01*
X320118484Y-92119980D02*
X320133453Y-92134949D01*
X213847969Y-94567969D02*
X233662779Y-94567969D01*
M02*
