G04 #@! TF.GenerationSoftware,KiCad,Pcbnew,(5.1.0-0)*
G04 #@! TF.CreationDate,2019-03-21T13:00:10+11:00*
G04 #@! TF.ProjectId,A1200KB,41313230-304b-4422-9e6b-696361645f70,rev?*
G04 #@! TF.SameCoordinates,Original*
G04 #@! TF.FileFunction,Copper,L1,Top*
G04 #@! TF.FilePolarity,Positive*
%FSLAX46Y46*%
G04 Gerber Fmt 4.6, Leading zero omitted, Abs format (unit mm)*
G04 Created by KiCad (PCBNEW (5.1.0-0)) date 2019-03-21 13:00:10*
%MOMM*%
%LPD*%
G04 APERTURE LIST*
%ADD10C,0.300000*%
%ADD11C,2.250000*%
%ADD12C,1.524000*%
%ADD13C,1.905000*%
%ADD14R,1.905000X1.905000*%
%ADD15C,0.900000*%
%ADD16C,0.600000*%
%ADD17C,0.500000*%
G04 APERTURE END LIST*
D10*
X241988571Y-146058571D02*
X241488571Y-145344285D01*
X241131428Y-146058571D02*
X241131428Y-144558571D01*
X241702857Y-144558571D01*
X241845714Y-144630000D01*
X241917142Y-144701428D01*
X241988571Y-144844285D01*
X241988571Y-145058571D01*
X241917142Y-145201428D01*
X241845714Y-145272857D01*
X241702857Y-145344285D01*
X241131428Y-145344285D01*
X243202857Y-145987142D02*
X243060000Y-146058571D01*
X242774285Y-146058571D01*
X242631428Y-145987142D01*
X242560000Y-145844285D01*
X242560000Y-145272857D01*
X242631428Y-145130000D01*
X242774285Y-145058571D01*
X243060000Y-145058571D01*
X243202857Y-145130000D01*
X243274285Y-145272857D01*
X243274285Y-145415714D01*
X242560000Y-145558571D01*
X243774285Y-145058571D02*
X244131428Y-146058571D01*
X244488571Y-145058571D01*
X245060000Y-145915714D02*
X245131428Y-145987142D01*
X245060000Y-146058571D01*
X244988571Y-145987142D01*
X245060000Y-145915714D01*
X245060000Y-146058571D01*
X246560000Y-146058571D02*
X245702857Y-146058571D01*
X246131428Y-146058571D02*
X246131428Y-144558571D01*
X245988571Y-144772857D01*
X245845714Y-144915714D01*
X245702857Y-144987142D01*
X238885714Y-143170000D02*
X239600000Y-143170000D01*
X238742857Y-143598571D02*
X239242857Y-142098571D01*
X239742857Y-143598571D01*
X241028571Y-143598571D02*
X240171428Y-143598571D01*
X240600000Y-143598571D02*
X240600000Y-142098571D01*
X240457142Y-142312857D01*
X240314285Y-142455714D01*
X240171428Y-142527142D01*
X241600000Y-142241428D02*
X241671428Y-142170000D01*
X241814285Y-142098571D01*
X242171428Y-142098571D01*
X242314285Y-142170000D01*
X242385714Y-142241428D01*
X242457142Y-142384285D01*
X242457142Y-142527142D01*
X242385714Y-142741428D01*
X241528571Y-143598571D01*
X242457142Y-143598571D01*
X243385714Y-142098571D02*
X243528571Y-142098571D01*
X243671428Y-142170000D01*
X243742857Y-142241428D01*
X243814285Y-142384285D01*
X243885714Y-142670000D01*
X243885714Y-143027142D01*
X243814285Y-143312857D01*
X243742857Y-143455714D01*
X243671428Y-143527142D01*
X243528571Y-143598571D01*
X243385714Y-143598571D01*
X243242857Y-143527142D01*
X243171428Y-143455714D01*
X243100000Y-143312857D01*
X243028571Y-143027142D01*
X243028571Y-142670000D01*
X243100000Y-142384285D01*
X243171428Y-142241428D01*
X243242857Y-142170000D01*
X243385714Y-142098571D01*
X244814285Y-142098571D02*
X244957142Y-142098571D01*
X245100000Y-142170000D01*
X245171428Y-142241428D01*
X245242857Y-142384285D01*
X245314285Y-142670000D01*
X245314285Y-143027142D01*
X245242857Y-143312857D01*
X245171428Y-143455714D01*
X245100000Y-143527142D01*
X244957142Y-143598571D01*
X244814285Y-143598571D01*
X244671428Y-143527142D01*
X244600000Y-143455714D01*
X244528571Y-143312857D01*
X244457142Y-143027142D01*
X244457142Y-142670000D01*
X244528571Y-142384285D01*
X244600000Y-142241428D01*
X244671428Y-142170000D01*
X244814285Y-142098571D01*
X245957142Y-143598571D02*
X245957142Y-142098571D01*
X246814285Y-143598571D02*
X246171428Y-142741428D01*
X246814285Y-142098571D02*
X245957142Y-142955714D01*
X247957142Y-142812857D02*
X248171428Y-142884285D01*
X248242857Y-142955714D01*
X248314285Y-143098571D01*
X248314285Y-143312857D01*
X248242857Y-143455714D01*
X248171428Y-143527142D01*
X248028571Y-143598571D01*
X247457142Y-143598571D01*
X247457142Y-142098571D01*
X247957142Y-142098571D01*
X248100000Y-142170000D01*
X248171428Y-142241428D01*
X248242857Y-142384285D01*
X248242857Y-142527142D01*
X248171428Y-142670000D01*
X248100000Y-142741428D01*
X247957142Y-142812857D01*
X247457142Y-142812857D01*
X85666285Y-141394571D02*
X85666285Y-140394571D01*
X85666285Y-140537428D02*
X85737714Y-140466000D01*
X85880571Y-140394571D01*
X86094857Y-140394571D01*
X86237714Y-140466000D01*
X86309142Y-140608857D01*
X86309142Y-141394571D01*
X86309142Y-140608857D02*
X86380571Y-140466000D01*
X86523428Y-140394571D01*
X86737714Y-140394571D01*
X86880571Y-140466000D01*
X86952000Y-140608857D01*
X86952000Y-141394571D01*
X88309142Y-141394571D02*
X88309142Y-140608857D01*
X88237714Y-140466000D01*
X88094857Y-140394571D01*
X87809142Y-140394571D01*
X87666285Y-140466000D01*
X88309142Y-141323142D02*
X88166285Y-141394571D01*
X87809142Y-141394571D01*
X87666285Y-141323142D01*
X87594857Y-141180285D01*
X87594857Y-141037428D01*
X87666285Y-140894571D01*
X87809142Y-140823142D01*
X88166285Y-140823142D01*
X88309142Y-140751714D01*
X89023428Y-141394571D02*
X89023428Y-140394571D01*
X89023428Y-140680285D02*
X89094857Y-140537428D01*
X89166285Y-140466000D01*
X89309142Y-140394571D01*
X89452000Y-140394571D01*
X90594857Y-141323142D02*
X90452000Y-141394571D01*
X90166285Y-141394571D01*
X90023428Y-141323142D01*
X89952000Y-141251714D01*
X89880571Y-141108857D01*
X89880571Y-140680285D01*
X89952000Y-140537428D01*
X90023428Y-140466000D01*
X90166285Y-140394571D01*
X90452000Y-140394571D01*
X90594857Y-140466000D01*
X91237714Y-141394571D02*
X91237714Y-139894571D01*
X91880571Y-141394571D02*
X91880571Y-140608857D01*
X91809142Y-140466000D01*
X91666285Y-140394571D01*
X91452000Y-140394571D01*
X91309142Y-140466000D01*
X91237714Y-140537428D01*
X93666285Y-140037428D02*
X93737714Y-139966000D01*
X93880571Y-139894571D01*
X94237714Y-139894571D01*
X94380571Y-139966000D01*
X94452000Y-140037428D01*
X94523428Y-140180285D01*
X94523428Y-140323142D01*
X94452000Y-140537428D01*
X93594857Y-141394571D01*
X94523428Y-141394571D01*
X95452000Y-139894571D02*
X95594857Y-139894571D01*
X95737714Y-139966000D01*
X95809142Y-140037428D01*
X95880571Y-140180285D01*
X95952000Y-140466000D01*
X95952000Y-140823142D01*
X95880571Y-141108857D01*
X95809142Y-141251714D01*
X95737714Y-141323142D01*
X95594857Y-141394571D01*
X95452000Y-141394571D01*
X95309142Y-141323142D01*
X95237714Y-141251714D01*
X95166285Y-141108857D01*
X95094857Y-140823142D01*
X95094857Y-140466000D01*
X95166285Y-140180285D01*
X95237714Y-140037428D01*
X95309142Y-139966000D01*
X95452000Y-139894571D01*
X97380571Y-141394571D02*
X96523428Y-141394571D01*
X96952000Y-141394571D02*
X96952000Y-139894571D01*
X96809142Y-140108857D01*
X96666285Y-140251714D01*
X96523428Y-140323142D01*
X98094857Y-141394571D02*
X98380571Y-141394571D01*
X98523428Y-141323142D01*
X98594857Y-141251714D01*
X98737714Y-141037428D01*
X98809142Y-140751714D01*
X98809142Y-140180285D01*
X98737714Y-140037428D01*
X98666285Y-139966000D01*
X98523428Y-139894571D01*
X98237714Y-139894571D01*
X98094857Y-139966000D01*
X98023428Y-140037428D01*
X97952000Y-140180285D01*
X97952000Y-140537428D01*
X98023428Y-140680285D01*
X98094857Y-140751714D01*
X98237714Y-140823142D01*
X98523428Y-140823142D01*
X98666285Y-140751714D01*
X98737714Y-140680285D01*
X98809142Y-140537428D01*
X83952000Y-138108571D02*
X83952000Y-139322857D01*
X83880571Y-139465714D01*
X83809142Y-139537142D01*
X83666285Y-139608571D01*
X83452000Y-139608571D01*
X83309142Y-139537142D01*
X83952000Y-139037142D02*
X83809142Y-139108571D01*
X83523428Y-139108571D01*
X83380571Y-139037142D01*
X83309142Y-138965714D01*
X83237714Y-138822857D01*
X83237714Y-138394285D01*
X83309142Y-138251428D01*
X83380571Y-138180000D01*
X83523428Y-138108571D01*
X83809142Y-138108571D01*
X83952000Y-138180000D01*
X84666285Y-139108571D02*
X84666285Y-138108571D01*
X84666285Y-138394285D02*
X84737714Y-138251428D01*
X84809142Y-138180000D01*
X84952000Y-138108571D01*
X85094857Y-138108571D01*
X86237714Y-139108571D02*
X86237714Y-138322857D01*
X86166285Y-138180000D01*
X86023428Y-138108571D01*
X85737714Y-138108571D01*
X85594857Y-138180000D01*
X86237714Y-139037142D02*
X86094857Y-139108571D01*
X85737714Y-139108571D01*
X85594857Y-139037142D01*
X85523428Y-138894285D01*
X85523428Y-138751428D01*
X85594857Y-138608571D01*
X85737714Y-138537142D01*
X86094857Y-138537142D01*
X86237714Y-138465714D01*
X86809142Y-138108571D02*
X87166285Y-139108571D01*
X87523428Y-138108571D02*
X87166285Y-139108571D01*
X87023428Y-139465714D01*
X86952000Y-139537142D01*
X86809142Y-139608571D01*
X88737714Y-138108571D02*
X88737714Y-139108571D01*
X88094857Y-138108571D02*
X88094857Y-138894285D01*
X88166285Y-139037142D01*
X88309142Y-139108571D01*
X88523428Y-139108571D01*
X88666285Y-139037142D01*
X88737714Y-138965714D01*
X89452000Y-138108571D02*
X89452000Y-139108571D01*
X89452000Y-138251428D02*
X89523428Y-138180000D01*
X89666285Y-138108571D01*
X89880571Y-138108571D01*
X90023428Y-138180000D01*
X90094857Y-138322857D01*
X90094857Y-139108571D01*
X90809142Y-139108571D02*
X90809142Y-138108571D01*
X90809142Y-137608571D02*
X90737714Y-137680000D01*
X90809142Y-137751428D01*
X90880571Y-137680000D01*
X90809142Y-137608571D01*
X90809142Y-137751428D01*
X92166285Y-139037142D02*
X92023428Y-139108571D01*
X91737714Y-139108571D01*
X91594857Y-139037142D01*
X91523428Y-138965714D01*
X91452000Y-138822857D01*
X91452000Y-138394285D01*
X91523428Y-138251428D01*
X91594857Y-138180000D01*
X91737714Y-138108571D01*
X92023428Y-138108571D01*
X92166285Y-138180000D01*
X93023428Y-139108571D02*
X92880571Y-139037142D01*
X92809142Y-138965714D01*
X92737714Y-138822857D01*
X92737714Y-138394285D01*
X92809142Y-138251428D01*
X92880571Y-138180000D01*
X93023428Y-138108571D01*
X93237714Y-138108571D01*
X93380571Y-138180000D01*
X93452000Y-138251428D01*
X93523428Y-138394285D01*
X93523428Y-138822857D01*
X93452000Y-138965714D01*
X93380571Y-139037142D01*
X93237714Y-139108571D01*
X93023428Y-139108571D01*
X94166285Y-139108571D02*
X94166285Y-138108571D01*
X94166285Y-138394285D02*
X94237714Y-138251428D01*
X94309142Y-138180000D01*
X94452000Y-138108571D01*
X94594857Y-138108571D01*
X95094857Y-138108571D02*
X95094857Y-139108571D01*
X95094857Y-138251428D02*
X95166285Y-138180000D01*
X95309142Y-138108571D01*
X95523428Y-138108571D01*
X95666285Y-138180000D01*
X95737714Y-138322857D01*
X95737714Y-139108571D01*
X96452000Y-138965714D02*
X96523428Y-139037142D01*
X96452000Y-139108571D01*
X96380571Y-139037142D01*
X96452000Y-138965714D01*
X96452000Y-139108571D01*
X97809142Y-139037142D02*
X97666285Y-139108571D01*
X97380571Y-139108571D01*
X97237714Y-139037142D01*
X97166285Y-138965714D01*
X97094857Y-138822857D01*
X97094857Y-138394285D01*
X97166285Y-138251428D01*
X97237714Y-138180000D01*
X97380571Y-138108571D01*
X97666285Y-138108571D01*
X97809142Y-138180000D01*
X98666285Y-139108571D02*
X98523428Y-139037142D01*
X98452000Y-138965714D01*
X98380571Y-138822857D01*
X98380571Y-138394285D01*
X98452000Y-138251428D01*
X98523428Y-138180000D01*
X98666285Y-138108571D01*
X98880571Y-138108571D01*
X99023428Y-138180000D01*
X99094857Y-138251428D01*
X99166285Y-138394285D01*
X99166285Y-138822857D01*
X99094857Y-138965714D01*
X99023428Y-139037142D01*
X98880571Y-139108571D01*
X98666285Y-139108571D01*
X99809142Y-139108571D02*
X99809142Y-138108571D01*
X99809142Y-138251428D02*
X99880571Y-138180000D01*
X100023428Y-138108571D01*
X100237714Y-138108571D01*
X100380571Y-138180000D01*
X100452000Y-138322857D01*
X100452000Y-139108571D01*
X100452000Y-138322857D02*
X100523428Y-138180000D01*
X100666285Y-138108571D01*
X100880571Y-138108571D01*
X101023428Y-138180000D01*
X101094857Y-138322857D01*
X101094857Y-139108571D01*
X87416285Y-136822571D02*
X87416285Y-136036857D01*
X87344857Y-135894000D01*
X87202000Y-135822571D01*
X86916285Y-135822571D01*
X86773428Y-135894000D01*
X87416285Y-136751142D02*
X87273428Y-136822571D01*
X86916285Y-136822571D01*
X86773428Y-136751142D01*
X86702000Y-136608285D01*
X86702000Y-136465428D01*
X86773428Y-136322571D01*
X86916285Y-136251142D01*
X87273428Y-136251142D01*
X87416285Y-136179714D01*
X88702000Y-136751142D02*
X88559142Y-136822571D01*
X88273428Y-136822571D01*
X88130571Y-136751142D01*
X88059142Y-136608285D01*
X88059142Y-136036857D01*
X88130571Y-135894000D01*
X88273428Y-135822571D01*
X88559142Y-135822571D01*
X88702000Y-135894000D01*
X88773428Y-136036857D01*
X88773428Y-136179714D01*
X88059142Y-136322571D01*
X89416285Y-136822571D02*
X89416285Y-135322571D01*
X89416285Y-135894000D02*
X89559142Y-135822571D01*
X89844857Y-135822571D01*
X89987714Y-135894000D01*
X90059142Y-135965428D01*
X90130571Y-136108285D01*
X90130571Y-136536857D01*
X90059142Y-136679714D01*
X89987714Y-136751142D01*
X89844857Y-136822571D01*
X89559142Y-136822571D01*
X89416285Y-136751142D01*
X91344857Y-136751142D02*
X91202000Y-136822571D01*
X90916285Y-136822571D01*
X90773428Y-136751142D01*
X90702000Y-136608285D01*
X90702000Y-136036857D01*
X90773428Y-135894000D01*
X90916285Y-135822571D01*
X91202000Y-135822571D01*
X91344857Y-135894000D01*
X91416285Y-136036857D01*
X91416285Y-136179714D01*
X90702000Y-136322571D01*
X92059142Y-136822571D02*
X92059142Y-135822571D01*
X92059142Y-136108285D02*
X92130571Y-135965428D01*
X92202000Y-135894000D01*
X92344857Y-135822571D01*
X92487714Y-135822571D01*
X92987714Y-136822571D02*
X92987714Y-135322571D01*
X92987714Y-135894000D02*
X93130571Y-135822571D01*
X93416285Y-135822571D01*
X93559142Y-135894000D01*
X93630571Y-135965428D01*
X93702000Y-136108285D01*
X93702000Y-136536857D01*
X93630571Y-136679714D01*
X93559142Y-136751142D01*
X93416285Y-136822571D01*
X93130571Y-136822571D01*
X92987714Y-136751142D01*
X94987714Y-136822571D02*
X94987714Y-136036857D01*
X94916285Y-135894000D01*
X94773428Y-135822571D01*
X94487714Y-135822571D01*
X94344857Y-135894000D01*
X94987714Y-136751142D02*
X94844857Y-136822571D01*
X94487714Y-136822571D01*
X94344857Y-136751142D01*
X94273428Y-136608285D01*
X94273428Y-136465428D01*
X94344857Y-136322571D01*
X94487714Y-136251142D01*
X94844857Y-136251142D01*
X94987714Y-136179714D01*
X96344857Y-136751142D02*
X96202000Y-136822571D01*
X95916285Y-136822571D01*
X95773428Y-136751142D01*
X95702000Y-136679714D01*
X95630571Y-136536857D01*
X95630571Y-136108285D01*
X95702000Y-135965428D01*
X95773428Y-135894000D01*
X95916285Y-135822571D01*
X96202000Y-135822571D01*
X96344857Y-135894000D01*
X96987714Y-136822571D02*
X96987714Y-135322571D01*
X97630571Y-136822571D02*
X97630571Y-136036857D01*
X97559142Y-135894000D01*
X97416285Y-135822571D01*
X97202000Y-135822571D01*
X97059142Y-135894000D01*
X96987714Y-135965428D01*
D11*
X364758000Y-59944000D03*
X371108000Y-57404000D03*
X403366000Y-76722000D03*
X397016000Y-79262000D03*
X268746000Y-133618000D03*
X262396000Y-136158000D03*
X422416000Y-114822000D03*
X416066000Y-117362000D03*
X150890000Y-59958000D03*
X157240000Y-57418000D03*
D12*
X151952000Y-21624000D03*
X153202000Y-24124000D03*
X154452000Y-21624000D03*
X155702000Y-24124000D03*
X156952000Y-21624000D03*
X158202000Y-24124000D03*
X159452000Y-21624000D03*
X160702000Y-24124000D03*
X161952000Y-21624000D03*
X163202000Y-24124000D03*
X164452000Y-21624000D03*
X165702000Y-24124000D03*
X166952000Y-21624000D03*
X168202000Y-24124000D03*
X169452000Y-21624000D03*
X170702000Y-24124000D03*
X171952000Y-21624000D03*
X173202000Y-24124000D03*
X174452000Y-21624000D03*
X175702000Y-24124000D03*
X176952000Y-21624000D03*
X178202000Y-24124000D03*
X179452000Y-21624000D03*
X180702000Y-24124000D03*
X181952000Y-21624000D03*
X183202000Y-24124000D03*
X184452000Y-21624000D03*
X185702000Y-24124000D03*
X186952000Y-21624000D03*
X188202000Y-24124000D03*
X189452000Y-21624000D03*
X190702000Y-24124000D03*
D11*
X27192000Y-34558000D03*
X33542000Y-32018000D03*
X58180000Y-34558000D03*
X64530000Y-32018000D03*
X82056000Y-34530000D03*
X88406000Y-31990000D03*
X112282000Y-32018000D03*
X105932000Y-34558000D03*
X129808000Y-34530000D03*
X136158000Y-31990000D03*
X160034000Y-31990000D03*
X153684000Y-34530000D03*
X186196000Y-34304000D03*
X192546000Y-31764000D03*
X216422000Y-31764000D03*
X210072000Y-34304000D03*
X233948000Y-34304000D03*
X240298000Y-31764000D03*
X264174000Y-31764000D03*
X257824000Y-34304000D03*
X281700000Y-34304000D03*
X288050000Y-31764000D03*
X38212000Y-57418000D03*
X31862000Y-59958000D03*
X55640000Y-59958000D03*
X61990000Y-57418000D03*
X81040000Y-57418000D03*
X74690000Y-59958000D03*
X93740000Y-59958000D03*
X100090000Y-57418000D03*
X112790000Y-59958000D03*
X119140000Y-57418000D03*
X138190000Y-57418000D03*
X131840000Y-59958000D03*
X176290000Y-57418000D03*
X169940000Y-59958000D03*
X188990000Y-59958000D03*
X195340000Y-57418000D03*
X214390000Y-57418000D03*
X208040000Y-59958000D03*
X227090000Y-59958000D03*
X233440000Y-57418000D03*
X252490000Y-57418000D03*
X246140000Y-59958000D03*
X265190000Y-59958000D03*
X271540000Y-57418000D03*
X290590000Y-57418000D03*
X284240000Y-59958000D03*
X303290000Y-59958000D03*
X309640000Y-57418000D03*
X336162000Y-59944000D03*
X342512000Y-57404000D03*
X397016000Y-60212000D03*
X403366000Y-57672000D03*
X422416000Y-57672000D03*
X416066000Y-60212000D03*
X435116000Y-60212000D03*
X441466000Y-57672000D03*
X460516000Y-57672000D03*
X454166000Y-60212000D03*
X36590000Y-79008000D03*
X42940000Y-76468000D03*
X71388000Y-76468000D03*
X65038000Y-79008000D03*
X84088000Y-79008000D03*
X90438000Y-76468000D03*
X109488000Y-76468000D03*
X103138000Y-79008000D03*
X128538000Y-76468000D03*
X122188000Y-79008000D03*
X141238000Y-79008000D03*
X147588000Y-76468000D03*
X166638000Y-76468000D03*
X160288000Y-79008000D03*
X179338000Y-79008000D03*
X185688000Y-76468000D03*
X204738000Y-76468000D03*
X198388000Y-79008000D03*
X217438000Y-79008000D03*
X223788000Y-76468000D03*
X242838000Y-76468000D03*
X236488000Y-79008000D03*
X255538000Y-79008000D03*
X261888000Y-76468000D03*
X280938000Y-76468000D03*
X274588000Y-79008000D03*
X307354000Y-86120000D03*
X301004000Y-88660000D03*
D13*
X303544000Y-96280000D03*
D14*
X306084000Y-96280000D03*
D11*
X422416000Y-76722000D03*
X416066000Y-79262000D03*
X441466000Y-76722000D03*
X435116000Y-79262000D03*
X460516000Y-76722000D03*
X454166000Y-79262000D03*
X35828000Y-95518000D03*
X29478000Y-98058000D03*
X57164000Y-95518000D03*
X50814000Y-98058000D03*
D13*
X53354000Y-105678000D03*
D14*
X55894000Y-105678000D03*
D11*
X76214000Y-95518000D03*
X69864000Y-98058000D03*
X88914000Y-98058000D03*
X95264000Y-95518000D03*
X107964000Y-98058000D03*
X114314000Y-95518000D03*
X133364000Y-95518000D03*
X127014000Y-98058000D03*
X146064000Y-98058000D03*
X152414000Y-95518000D03*
X171464000Y-95518000D03*
X165114000Y-98058000D03*
X184164000Y-98058000D03*
X190514000Y-95518000D03*
X209564000Y-95518000D03*
X203214000Y-98058000D03*
X222264000Y-98058000D03*
X228614000Y-95518000D03*
X247918000Y-95518000D03*
X241568000Y-98058000D03*
X260618000Y-98058000D03*
X266968000Y-95518000D03*
X279668000Y-98058000D03*
X286018000Y-95518000D03*
X350534000Y-98058000D03*
X356884000Y-95518000D03*
X397016000Y-98312000D03*
X403366000Y-95772000D03*
X416066000Y-98312000D03*
X422416000Y-95772000D03*
X435116000Y-98312000D03*
X441466000Y-95772000D03*
X460516000Y-95772000D03*
X454166000Y-98312000D03*
X34304000Y-117108000D03*
X40654000Y-114568000D03*
X66816000Y-114568000D03*
X60466000Y-117108000D03*
X79516000Y-117108000D03*
X85866000Y-114568000D03*
X98566000Y-117108000D03*
X104916000Y-114568000D03*
X123966000Y-114568000D03*
X117616000Y-117108000D03*
X136666000Y-117108000D03*
X143016000Y-114568000D03*
X162066000Y-114568000D03*
X155716000Y-117108000D03*
X174766000Y-117108000D03*
X181116000Y-114568000D03*
X200166000Y-114568000D03*
X193816000Y-117108000D03*
X238266000Y-114568000D03*
X231916000Y-117108000D03*
X212866000Y-117108000D03*
X219216000Y-114568000D03*
X250966000Y-117108000D03*
X257316000Y-114568000D03*
X286780000Y-117108000D03*
X293130000Y-114568000D03*
X337834000Y-114568000D03*
X331484000Y-117108000D03*
X356884000Y-114568000D03*
X350534000Y-117108000D03*
X369584000Y-117108000D03*
X375934000Y-114568000D03*
X403366000Y-114822000D03*
X397016000Y-117362000D03*
X441466000Y-114822000D03*
X435116000Y-117362000D03*
X452896000Y-127014000D03*
X455436000Y-133364000D03*
X49544000Y-133618000D03*
X43194000Y-136158000D03*
X67070000Y-136158000D03*
X73420000Y-133618000D03*
X164606000Y-136158000D03*
X170956000Y-133618000D03*
X286272000Y-136158000D03*
X292622000Y-133618000D03*
X406668000Y-136412000D03*
X413018000Y-133872000D03*
X435116000Y-136412000D03*
X441466000Y-133872000D03*
D15*
X58166000Y-16764000D03*
X82042000Y-30734000D03*
X105918000Y-16256000D03*
X166116000Y-68580000D03*
X177038000Y-45212000D03*
X295910000Y-93726000D03*
X274066000Y-55880000D03*
X306107001Y-55842999D03*
X82677000Y-27559000D03*
X51054000Y-33528000D03*
X51054000Y-20066000D03*
X287528000Y-114554000D03*
X40132000Y-25654000D03*
X49530000Y-19558000D03*
X77216000Y-30480000D03*
X48260000Y-20320000D03*
D16*
X403366000Y-57672000D02*
X422416000Y-57672000D01*
X441466000Y-57672000D02*
X422416000Y-57672000D01*
X33542000Y-32018000D02*
X64530000Y-32018000D01*
X88378000Y-32018000D02*
X88406000Y-31990000D01*
X64530000Y-32018000D02*
X88378000Y-32018000D01*
X112254000Y-31990000D02*
X112282000Y-32018000D01*
X88406000Y-31990000D02*
X112254000Y-31990000D01*
X136130000Y-32018000D02*
X136158000Y-31990000D01*
X112282000Y-32018000D02*
X136130000Y-32018000D01*
X286459010Y-31764000D02*
X264174000Y-31764000D01*
X288050000Y-31764000D02*
X286459010Y-31764000D01*
D17*
X136158000Y-31990000D02*
X160034000Y-31990000D01*
X183882000Y-31990000D02*
X186196000Y-34304000D01*
X160034000Y-31990000D02*
X183882000Y-31990000D01*
X186196000Y-34304000D02*
X205980000Y-34304000D01*
X208520000Y-31764000D02*
X216422000Y-31764000D01*
X205980000Y-34304000D02*
X208520000Y-31764000D01*
X264086099Y-39443901D02*
X241881901Y-39443901D01*
X240298000Y-37860000D02*
X240298000Y-31764000D01*
X264668000Y-34544000D02*
X264668000Y-38862000D01*
X264668000Y-38862000D02*
X264086099Y-39443901D01*
X241881901Y-39443901D02*
X240298000Y-37860000D01*
X264174000Y-34050000D02*
X264668000Y-34544000D01*
X264174000Y-31764000D02*
X264174000Y-34050000D01*
X240298000Y-37860000D02*
X240298000Y-38086000D01*
X240298000Y-38086000D02*
X238940099Y-39443901D01*
X238940099Y-39443901D02*
X218767901Y-39443901D01*
X216422000Y-37098000D02*
X216422000Y-31764000D01*
X218767901Y-39443901D02*
X216422000Y-37098000D01*
X371376000Y-57672000D02*
X371108000Y-57404000D01*
X403366000Y-57672000D02*
X371376000Y-57672000D01*
X345468000Y-31764000D02*
X371108000Y-57404000D01*
X288050000Y-31764000D02*
X345468000Y-31764000D01*
X169452000Y-20546370D02*
X169452000Y-21624000D01*
X169452000Y-19084000D02*
X169452000Y-20546370D01*
X27192000Y-34558000D02*
X27192000Y-26656000D01*
X168402000Y-18034000D02*
X169452000Y-19084000D01*
X35814000Y-18034000D02*
X168402000Y-18034000D01*
X27192000Y-26656000D02*
X35814000Y-18034000D01*
X171190001Y-19832039D02*
X168691953Y-17333990D01*
X171190001Y-20862001D02*
X171190001Y-19832039D01*
X171952000Y-21624000D02*
X171190001Y-20862001D01*
X168691953Y-17333990D02*
X58735990Y-17333990D01*
X58735990Y-17333990D02*
X58166000Y-16764000D01*
X58166000Y-16764000D02*
X58166000Y-16764000D01*
X173202000Y-24124000D02*
X169386000Y-27940000D01*
X169386000Y-27940000D02*
X102870000Y-27940000D01*
X102870000Y-27940000D02*
X84836000Y-27940000D01*
X84836000Y-27940000D02*
X82042000Y-30734000D01*
X82042000Y-30734000D02*
X82042000Y-30734000D01*
X168981908Y-16633982D02*
X168981906Y-16633980D01*
X169461982Y-16633982D02*
X168981908Y-16633982D01*
X174452000Y-21624000D02*
X169461982Y-16633982D01*
X168981906Y-16633980D02*
X106295980Y-16633980D01*
X106295980Y-16633980D02*
X105918000Y-16256000D01*
X105918000Y-16256000D02*
X105918000Y-16256000D01*
X134476927Y-64941901D02*
X132080000Y-62544974D01*
X162477901Y-64941901D02*
X134476927Y-64941901D01*
X166116000Y-68580000D02*
X162477901Y-64941901D01*
X131840000Y-61548990D02*
X131840000Y-59958000D01*
X132080000Y-61788990D02*
X131840000Y-61548990D01*
X132080000Y-62544974D02*
X132080000Y-61788990D01*
X153684000Y-36120990D02*
X154432000Y-36868990D01*
X153684000Y-34530000D02*
X153684000Y-36120990D01*
X154432000Y-54610000D02*
X157240000Y-57418000D01*
X154432000Y-36868990D02*
X154432000Y-54610000D01*
X403112000Y-79262000D02*
X416066000Y-79262000D01*
X401066000Y-73660000D02*
X401066000Y-77216000D01*
X441409002Y-67310000D02*
X407416000Y-67310000D01*
X411018999Y-22836001D02*
X445770000Y-57587002D01*
X185739999Y-22163999D02*
X186412001Y-22836001D01*
X186412001Y-22836001D02*
X411018999Y-22836001D01*
X176952000Y-21624000D02*
X178510000Y-20066000D01*
X185674000Y-21590000D02*
X185739999Y-21655999D01*
X184687762Y-20066000D02*
X185674000Y-21052238D01*
X445770000Y-62949002D02*
X441409002Y-67310000D01*
X407416000Y-67310000D02*
X401066000Y-73660000D01*
X178510000Y-20066000D02*
X184687762Y-20066000D01*
X445770000Y-57587002D02*
X445770000Y-62949002D01*
X185739999Y-21655999D02*
X185739999Y-22163999D01*
X401066000Y-77216000D02*
X403112000Y-79262000D01*
X185674000Y-21052238D02*
X185674000Y-21590000D01*
X157240000Y-57418000D02*
X164832000Y-57418000D01*
X164832000Y-57418000D02*
X171958000Y-50292000D01*
X171958000Y-50292000D02*
X177038000Y-45212000D01*
X177038000Y-45212000D02*
X177038000Y-45212000D01*
X417190999Y-118486999D02*
X416066000Y-117362000D01*
X417190999Y-133227001D02*
X417190999Y-118486999D01*
X411480000Y-136144000D02*
X414274000Y-136144000D01*
X402590000Y-133350000D02*
X408686000Y-133350000D01*
X414274000Y-136144000D02*
X417190999Y-133227001D01*
X408686000Y-133350000D02*
X411480000Y-136144000D01*
X255016000Y-144780000D02*
X391160000Y-144780000D01*
X232664000Y-122428000D02*
X255016000Y-144780000D01*
X232664000Y-119446990D02*
X232664000Y-122428000D01*
X391160000Y-144780000D02*
X402590000Y-133350000D01*
X231916000Y-118698990D02*
X232664000Y-119446990D01*
X231916000Y-117108000D02*
X231916000Y-118698990D01*
X280489002Y-93726000D02*
X295910000Y-93726000D01*
X250966000Y-117108000D02*
X263172000Y-104902000D01*
X269313002Y-104902000D02*
X280489002Y-93726000D01*
X263172000Y-104902000D02*
X269313002Y-104902000D01*
X183202000Y-25201630D02*
X187718370Y-29718000D01*
X183202000Y-24124000D02*
X183202000Y-25201630D01*
X229362000Y-29718000D02*
X233948000Y-34304000D01*
X187718370Y-29718000D02*
X229362000Y-29718000D01*
X274103001Y-55842999D02*
X274066000Y-55880000D01*
X306107001Y-55842999D02*
X274103001Y-55842999D01*
X397016000Y-117362000D02*
X390158000Y-117362000D01*
X390158000Y-117362000D02*
X390144000Y-117348000D01*
X390144000Y-117348000D02*
X386842000Y-117348000D01*
X329091381Y-124640017D02*
X324612000Y-120160636D01*
X379549982Y-124640018D02*
X329091381Y-124640017D01*
X386842000Y-117348000D02*
X379549982Y-124640018D01*
X307072364Y-120160636D02*
X290576000Y-103664272D01*
X324612000Y-120160636D02*
X307072364Y-120160636D01*
X256699001Y-33179001D02*
X257824000Y-34304000D01*
X252537990Y-29017990D02*
X256699001Y-33179001D01*
X188802228Y-29017990D02*
X252537990Y-29017990D01*
X184452000Y-24667762D02*
X188802228Y-29017990D01*
X184452000Y-21624000D02*
X184452000Y-24667762D01*
X280792999Y-99182999D02*
X279668000Y-98058000D01*
X282927298Y-103664272D02*
X280792999Y-101529973D01*
X280792999Y-101529973D02*
X280792999Y-99182999D01*
X290576000Y-103664272D02*
X282927298Y-103664272D01*
D16*
X300750000Y-57418000D02*
X303290000Y-59958000D01*
X290590000Y-57418000D02*
X300750000Y-57418000D01*
D17*
X413018000Y-125052998D02*
X413004000Y-125038998D01*
X413018000Y-133872000D02*
X413018000Y-125052998D01*
X413004000Y-125038998D02*
X413004000Y-122682000D01*
X413004000Y-122682000D02*
X407670000Y-117348000D01*
X329381335Y-123940009D02*
X326390000Y-120948674D01*
X378979990Y-123940010D02*
X329381335Y-123940009D01*
X387133001Y-115786999D02*
X378979990Y-123940010D01*
X326390000Y-105156000D02*
X307354000Y-86120000D01*
X326390000Y-120948674D02*
X326390000Y-105156000D01*
X407670000Y-117348000D02*
X402082000Y-117348000D01*
X400520999Y-115786999D02*
X387133001Y-115786999D01*
X402082000Y-117348000D02*
X400520999Y-115786999D01*
D16*
X369584000Y-115517010D02*
X368620990Y-114554000D01*
X369584000Y-117108000D02*
X369584000Y-115517010D01*
X368606990Y-114568000D02*
X356884000Y-114568000D01*
X368620990Y-114554000D02*
X368606990Y-114568000D01*
X369584000Y-117108000D02*
X367524000Y-117108000D01*
X367524000Y-117108000D02*
X361442000Y-123190000D01*
X361442000Y-123190000D02*
X329692000Y-123190000D01*
X329692000Y-123190000D02*
X327660000Y-121158000D01*
X327660000Y-121158000D02*
X327660000Y-117602000D01*
X328154000Y-117108000D02*
X331484000Y-117108000D01*
X327660000Y-117602000D02*
X328154000Y-117108000D01*
X358008999Y-113443001D02*
X358008999Y-106811001D01*
X356884000Y-114568000D02*
X358008999Y-113443001D01*
X358008999Y-106811001D02*
X361950000Y-102870000D01*
X361950000Y-102870000D02*
X361950000Y-97282000D01*
X361950000Y-97282000D02*
X360172000Y-95504000D01*
X360158000Y-95518000D02*
X356884000Y-95518000D01*
X360172000Y-95504000D02*
X360158000Y-95518000D01*
X378460000Y-123190000D02*
X361442000Y-123190000D01*
X361442000Y-88392000D02*
X381000000Y-107950000D01*
X381000000Y-120650000D02*
X378460000Y-123190000D01*
X381000000Y-107950000D02*
X381000000Y-120650000D01*
D17*
X394753001Y-94196999D02*
X381000000Y-107950000D01*
X436482099Y-81126903D02*
X423412003Y-94196999D01*
X423412003Y-94196999D02*
X394753001Y-94196999D01*
X436482099Y-80628927D02*
X436482099Y-81126903D01*
X437849026Y-79262000D02*
X436482099Y-80628927D01*
X454166000Y-79262000D02*
X437849026Y-79262000D01*
X361442000Y-88392000D02*
X361442000Y-68580000D01*
X365882999Y-61068999D02*
X364758000Y-59944000D01*
X365882999Y-64139001D02*
X365882999Y-61068999D01*
X361442000Y-68580000D02*
X365882999Y-64139001D01*
D16*
X27887010Y-98058000D02*
X27873010Y-98044000D01*
X29478000Y-98058000D02*
X27887010Y-98058000D01*
X27873010Y-98044000D02*
X27178000Y-98044000D01*
X27178000Y-98044000D02*
X25908000Y-99314000D01*
X25908000Y-108712000D02*
X34304000Y-117108000D01*
X25908000Y-99314000D02*
X25908000Y-108712000D01*
X32713010Y-117108000D02*
X32699010Y-117094000D01*
X34304000Y-117108000D02*
X32713010Y-117108000D01*
X32699010Y-117094000D02*
X31750000Y-117094000D01*
X31750000Y-117094000D02*
X30480000Y-118364000D01*
X30480000Y-123444000D02*
X43194000Y-136158000D01*
X30480000Y-118364000D02*
X30480000Y-123444000D01*
X43194000Y-136158000D02*
X67070000Y-136158000D01*
D17*
X262396000Y-136158000D02*
X263520999Y-135033001D01*
X278815998Y-133618000D02*
X291031010Y-133618000D01*
X277240997Y-135193001D02*
X278815998Y-133618000D01*
X267989999Y-135193001D02*
X277240997Y-135193001D01*
X291031010Y-133618000D02*
X292622000Y-133618000D01*
X267829999Y-135033001D02*
X267989999Y-135193001D01*
X263520999Y-135033001D02*
X267829999Y-135033001D01*
X293130000Y-116158990D02*
X293746999Y-116775989D01*
X293746999Y-132493001D02*
X292622000Y-133618000D01*
X293746999Y-116775989D02*
X293746999Y-132493001D01*
X293130000Y-114568000D02*
X293130000Y-116158990D01*
X234522955Y-116393990D02*
X232961954Y-114832989D01*
X242631990Y-116393990D02*
X234522955Y-116393990D01*
X262396000Y-136158000D02*
X242631990Y-116393990D01*
X232961954Y-114832989D02*
X231164989Y-114832989D01*
X231164989Y-114832989D02*
X230870046Y-114832989D01*
X229083011Y-114832989D02*
X231164989Y-114832989D01*
X187960000Y-130302000D02*
X187960000Y-119888000D01*
X187960000Y-119888000D02*
X192786000Y-115062000D01*
X173752901Y-144509099D02*
X187960000Y-130302000D01*
X70849099Y-144509099D02*
X173752901Y-144509099D01*
X68194999Y-137282999D02*
X68194999Y-141854999D01*
X68194999Y-141854999D02*
X70849099Y-144509099D01*
X67070000Y-136158000D02*
X68194999Y-137282999D01*
X197358000Y-115062000D02*
X198628000Y-116332000D01*
X192786000Y-115062000D02*
X197358000Y-115062000D01*
X210084038Y-116332000D02*
X211608038Y-114808000D01*
X198628000Y-116332000D02*
X210084038Y-116332000D01*
X215416989Y-114832989D02*
X216940989Y-114832989D01*
X215392000Y-114808000D02*
X215416989Y-114832989D01*
X211608038Y-114808000D02*
X215392000Y-114808000D01*
X227772999Y-116143001D02*
X229083011Y-114832989D01*
X218251001Y-116143001D02*
X227772999Y-116143001D01*
X216940989Y-114832989D02*
X218251001Y-116143001D01*
D16*
X350534000Y-98058000D02*
X350534000Y-92216000D01*
X350534000Y-92216000D02*
X326644000Y-68326000D01*
X326644000Y-68326000D02*
X302768000Y-68326000D01*
X294400000Y-59958000D02*
X284240000Y-59958000D01*
X302768000Y-68326000D02*
X294400000Y-59958000D01*
X274080000Y-59958000D02*
X271540000Y-57418000D01*
X284240000Y-59958000D02*
X274080000Y-59958000D01*
X271540000Y-57418000D02*
X252490000Y-57418000D01*
X252490000Y-57418000D02*
X233440000Y-57418000D01*
X233440000Y-57418000D02*
X214390000Y-57418000D01*
X208174998Y-57418000D02*
X208160998Y-57404000D01*
X214390000Y-57418000D02*
X208174998Y-57418000D01*
X208160998Y-57404000D02*
X207264000Y-57404000D01*
X204710000Y-59958000D02*
X188990000Y-59958000D01*
X207264000Y-57404000D02*
X204710000Y-59958000D01*
X178830000Y-59958000D02*
X176290000Y-57418000D01*
X188990000Y-59958000D02*
X178830000Y-59958000D01*
X176290000Y-57418000D02*
X168896000Y-57418000D01*
X166356000Y-59958000D02*
X150890000Y-59958000D01*
X168896000Y-57418000D02*
X166356000Y-59958000D01*
X148350000Y-57418000D02*
X138190000Y-57418000D01*
X150890000Y-59958000D02*
X148350000Y-57418000D01*
X138190000Y-57418000D02*
X119140000Y-57418000D01*
X117549010Y-57418000D02*
X100090000Y-57418000D01*
X119140000Y-57418000D02*
X117549010Y-57418000D01*
X100090000Y-57418000D02*
X81040000Y-57418000D01*
X79449010Y-57418000D02*
X61990000Y-57418000D01*
X81040000Y-57418000D02*
X79449010Y-57418000D01*
X61990000Y-57418000D02*
X38212000Y-57418000D01*
D17*
X83181980Y-27054020D02*
X82677000Y-27559000D01*
X167771980Y-27054020D02*
X83181980Y-27054020D01*
X170702000Y-24124000D02*
X167771980Y-27054020D01*
X401790999Y-115578001D02*
X401790999Y-109765001D01*
X402609999Y-116397001D02*
X401790999Y-115578001D01*
X404122001Y-116397001D02*
X402609999Y-116397001D01*
X404941001Y-115578001D02*
X404122001Y-116397001D01*
X419168975Y-115578001D02*
X404941001Y-115578001D01*
X422319901Y-118728927D02*
X419168975Y-115578001D01*
X422319901Y-129088062D02*
X422319901Y-118728927D01*
X412921901Y-138486062D02*
X422319901Y-129088062D01*
X411651073Y-141395901D02*
X412921901Y-140125073D01*
X409304927Y-141395901D02*
X411651073Y-141395901D01*
X408034099Y-137778927D02*
X408034099Y-140125073D01*
X408034099Y-140125073D02*
X409304927Y-141395901D01*
X406846838Y-134050010D02*
X409304927Y-136508099D01*
X409304927Y-136508099D02*
X408034099Y-137778927D01*
X402879952Y-134050010D02*
X406846838Y-134050010D01*
X391449953Y-145480010D02*
X402879952Y-134050010D01*
X254517008Y-145480010D02*
X391449953Y-145480010D01*
X412921901Y-140125073D02*
X412921901Y-138486062D01*
X413244000Y-98312000D02*
X416066000Y-98312000D01*
X401790999Y-109765001D02*
X413244000Y-98312000D01*
X242894998Y-133858000D02*
X243113499Y-134076501D01*
X243113499Y-134076501D02*
X254517008Y-145480010D01*
X210298000Y-117108000D02*
X193816000Y-117108000D01*
X211873001Y-115532999D02*
X210298000Y-117108000D01*
X218500974Y-117856000D02*
X216177973Y-115532999D01*
X226892998Y-117856000D02*
X218500974Y-117856000D01*
X216177973Y-115532999D02*
X211873001Y-115532999D01*
X243113499Y-134076501D02*
X226892998Y-117856000D01*
D16*
X280938000Y-76468000D02*
X261888000Y-76468000D01*
X261888000Y-76468000D02*
X242838000Y-76468000D01*
X242838000Y-76468000D02*
X223788000Y-76468000D01*
X223788000Y-76468000D02*
X204738000Y-76468000D01*
X204738000Y-76468000D02*
X185688000Y-76468000D01*
X185688000Y-76468000D02*
X178040000Y-76468000D01*
X175500000Y-79008000D02*
X160288000Y-79008000D01*
X178040000Y-76468000D02*
X175500000Y-79008000D01*
X157748000Y-76468000D02*
X147588000Y-76468000D01*
X160288000Y-79008000D02*
X157748000Y-76468000D01*
X147588000Y-76468000D02*
X128538000Y-76468000D01*
X128538000Y-76468000D02*
X109488000Y-76468000D01*
X109488000Y-76468000D02*
X90438000Y-76468000D01*
X90438000Y-76468000D02*
X71388000Y-76468000D01*
X71388000Y-76468000D02*
X63486000Y-76468000D01*
X60946000Y-79008000D02*
X36590000Y-79008000D01*
X63486000Y-76468000D02*
X60946000Y-79008000D01*
D17*
X288812000Y-76468000D02*
X301004000Y-88660000D01*
X280938000Y-76468000D02*
X288812000Y-76468000D01*
D16*
X57164000Y-95518000D02*
X76214000Y-95518000D01*
X76214000Y-95518000D02*
X95264000Y-95518000D01*
X95264000Y-95518000D02*
X114314000Y-95518000D01*
X114314000Y-95518000D02*
X133364000Y-95518000D01*
X133364000Y-95518000D02*
X152414000Y-95518000D01*
X162574000Y-95518000D02*
X165114000Y-98058000D01*
X152414000Y-95518000D02*
X162574000Y-95518000D01*
X165114000Y-98058000D02*
X180580000Y-98058000D01*
X183120000Y-95518000D02*
X190514000Y-95518000D01*
X180580000Y-98058000D02*
X183120000Y-95518000D01*
X190514000Y-95518000D02*
X209564000Y-95518000D01*
X209564000Y-95518000D02*
X228614000Y-95518000D01*
X228614000Y-95518000D02*
X247918000Y-95518000D01*
X247918000Y-95518000D02*
X266968000Y-95518000D01*
X375934000Y-105170000D02*
X375934000Y-114568000D01*
X359918000Y-89154000D02*
X375934000Y-105170000D01*
D17*
X297377002Y-95518000D02*
X286018000Y-95518000D01*
X306324000Y-94488000D02*
X298407002Y-94488000D01*
X307257901Y-93554099D02*
X306324000Y-94488000D01*
X306597999Y-84544999D02*
X305778999Y-85363999D01*
X305778999Y-85363999D02*
X305778999Y-87084999D01*
X316954999Y-84544999D02*
X306597999Y-84544999D01*
X305778999Y-87084999D02*
X307257901Y-88563901D01*
X351790000Y-99060000D02*
X351790000Y-100033002D01*
X334518000Y-102108000D02*
X316954999Y-84544999D01*
X349715002Y-102108000D02*
X334518000Y-102108000D01*
X298407002Y-94488000D02*
X297377002Y-95518000D01*
X307257901Y-88563901D02*
X307257901Y-93554099D01*
X355308999Y-95541001D02*
X351790000Y-99060000D01*
X355308999Y-93763001D02*
X355308999Y-95541001D01*
X351790000Y-100033002D02*
X349715002Y-102108000D01*
X359918000Y-89154000D02*
X355308999Y-93763001D01*
X298407002Y-94488000D02*
X298407002Y-93683002D01*
X269660001Y-92825999D02*
X268092999Y-94393001D01*
X297549999Y-92825999D02*
X269660001Y-92825999D01*
X268092999Y-94393001D02*
X266968000Y-95518000D01*
X298407002Y-93683002D02*
X297549999Y-92825999D01*
X346202000Y-57404000D02*
X342512000Y-57404000D01*
X359918000Y-71120000D02*
X346202000Y-57404000D01*
X359918000Y-89154000D02*
X359918000Y-71120000D01*
X33994999Y-92094009D02*
X33994999Y-41189001D01*
X35828000Y-93927010D02*
X33994999Y-92094009D01*
X35828000Y-95518000D02*
X35828000Y-93927010D01*
X33994999Y-41189001D02*
X41656000Y-33528000D01*
X41656000Y-33528000D02*
X41656000Y-33528000D01*
X41656000Y-33528000D02*
X50292000Y-33528000D01*
X50292000Y-33528000D02*
X51054000Y-33528000D01*
X51054000Y-33528000D02*
X51054000Y-33528000D01*
X51685980Y-19434020D02*
X51054000Y-20066000D01*
X162262020Y-19434020D02*
X51685980Y-19434020D01*
X164452000Y-21624000D02*
X162262020Y-19434020D01*
D16*
X172226000Y-114568000D02*
X162066000Y-114568000D01*
X174766000Y-117108000D02*
X172226000Y-114568000D01*
X162066000Y-114568000D02*
X143016000Y-114568000D01*
X143016000Y-114568000D02*
X123966000Y-114568000D01*
X123966000Y-114568000D02*
X104916000Y-114568000D01*
X104916000Y-114568000D02*
X85866000Y-114568000D01*
X85866000Y-114568000D02*
X66816000Y-114568000D01*
X174766000Y-117108000D02*
X172198000Y-117108000D01*
X170956000Y-118350000D02*
X170956000Y-133618000D01*
X172198000Y-117108000D02*
X170956000Y-118350000D01*
D17*
X174766000Y-117108000D02*
X182104000Y-117108000D01*
X182104000Y-117108000D02*
X186690000Y-112522000D01*
X198120000Y-112522000D02*
X200166000Y-114568000D01*
X186690000Y-112522000D02*
X198120000Y-112522000D01*
X201958000Y-112776000D02*
X201290999Y-113443001D01*
X217424000Y-112776000D02*
X201958000Y-112776000D01*
X201290999Y-113443001D02*
X200166000Y-114568000D01*
X219216000Y-114568000D02*
X217424000Y-112776000D01*
X220806990Y-114568000D02*
X222598990Y-112776000D01*
X219216000Y-114568000D02*
X220806990Y-114568000D01*
X236474000Y-112776000D02*
X238266000Y-114568000D01*
X222598990Y-112776000D02*
X236474000Y-112776000D01*
X287078001Y-115003999D02*
X287528000Y-114554000D01*
X278103227Y-115003999D02*
X287078001Y-115003999D01*
X277667228Y-114568000D02*
X278103227Y-115003999D01*
X257316000Y-114568000D02*
X277667228Y-114568000D01*
X165702000Y-24124000D02*
X164172000Y-25654000D01*
X164172000Y-25654000D02*
X71120000Y-25654000D01*
X71120000Y-25654000D02*
X55118000Y-25654000D01*
X55118000Y-25654000D02*
X40132000Y-25654000D01*
X40132000Y-25654000D02*
X40132000Y-25654000D01*
D16*
X422416000Y-114822000D02*
X441466000Y-114822000D01*
X441466000Y-114822000D02*
X443484000Y-116840000D01*
X443484000Y-116840000D02*
X445770000Y-116840000D01*
X452896000Y-123966000D02*
X452896000Y-127014000D01*
X445770000Y-116840000D02*
X452896000Y-123966000D01*
X448324000Y-127014000D02*
X441466000Y-133872000D01*
X452896000Y-127014000D02*
X448324000Y-127014000D01*
X422416000Y-95772000D02*
X424006990Y-95772000D01*
X422416000Y-95772000D02*
X441466000Y-95772000D01*
X443056990Y-95772000D02*
X460516000Y-95772000D01*
X441466000Y-95772000D02*
X443056990Y-95772000D01*
X403366000Y-95772000D02*
X422416000Y-95772000D01*
X403366000Y-76722000D02*
X422416000Y-76722000D01*
X422416000Y-76722000D02*
X441466000Y-76722000D01*
X441466000Y-76722000D02*
X460516000Y-76722000D01*
X441466000Y-114822000D02*
X446560000Y-109728000D01*
X446560000Y-109728000D02*
X462026000Y-109728000D01*
X462026000Y-109728000D02*
X466852000Y-104902000D01*
X462802000Y-57672000D02*
X460516000Y-57672000D01*
X466852000Y-61722000D02*
X462802000Y-57672000D01*
X460516000Y-76722000D02*
X466838000Y-76722000D01*
X466852000Y-76708000D02*
X466852000Y-61722000D01*
X466838000Y-76722000D02*
X466852000Y-76708000D01*
X466838000Y-95772000D02*
X466852000Y-95758000D01*
X460516000Y-95772000D02*
X466838000Y-95772000D01*
X466852000Y-95758000D02*
X466852000Y-76708000D01*
X466852000Y-104902000D02*
X466852000Y-95758000D01*
X443738000Y-136144000D02*
X441466000Y-133872000D01*
X404622000Y-142748000D02*
X444754000Y-142748000D01*
X402844000Y-140970000D02*
X404622000Y-142748000D01*
X404100000Y-136412000D02*
X402844000Y-137668000D01*
X402844000Y-137668000D02*
X402844000Y-140970000D01*
X406668000Y-136412000D02*
X404100000Y-136412000D01*
X443738000Y-136144000D02*
X445008000Y-136144000D01*
X445008000Y-136144000D02*
X446532000Y-137668000D01*
X446532000Y-140970000D02*
X444754000Y-142748000D01*
X446532000Y-137668000D02*
X446532000Y-140970000D01*
D17*
X403366000Y-114822000D02*
X422416000Y-114822000D01*
X166952000Y-21624000D02*
X166952000Y-20140000D01*
X49979999Y-19108001D02*
X49530000Y-19558000D01*
X50353990Y-18734010D02*
X49979999Y-19108001D01*
X162551973Y-18734010D02*
X50353990Y-18734010D01*
X162867963Y-19050000D02*
X162551973Y-18734010D01*
X166952000Y-20140000D02*
X165862000Y-19050000D01*
X165862000Y-19050000D02*
X162867963Y-19050000D01*
X165862000Y-19050000D02*
X165546010Y-18734010D01*
X168202000Y-24124000D02*
X165971990Y-26354010D01*
X165971990Y-26354010D02*
X81341990Y-26354010D01*
X81341990Y-26354010D02*
X77216000Y-30480000D01*
X77216000Y-30480000D02*
X77216000Y-30480000D01*
X175739999Y-21042239D02*
X177478238Y-19304000D01*
X175739999Y-22129763D02*
X175739999Y-21042239D01*
X175033761Y-22836001D02*
X175739999Y-22129763D01*
X40392997Y-22836001D02*
X175033761Y-22836001D01*
X31966999Y-32114003D02*
X31966999Y-31261999D01*
X187132000Y-19304000D02*
X189452000Y-21624000D01*
X55894000Y-105678000D02*
X55894000Y-107130500D01*
X28558099Y-35522903D02*
X31966999Y-32114003D01*
X31966999Y-31261999D02*
X40392997Y-22836001D01*
X30844099Y-108568099D02*
X30844099Y-99424927D01*
X32004000Y-75151728D02*
X28558099Y-71705827D01*
X46881499Y-116143001D02*
X38419001Y-116143001D01*
X28558099Y-71705827D02*
X28558099Y-35522903D01*
X30844099Y-99424927D02*
X32004000Y-98265026D01*
X32004000Y-98265026D02*
X32004000Y-75151728D01*
X38419001Y-116143001D02*
X30844099Y-108568099D01*
X177478238Y-19304000D02*
X187132000Y-19304000D01*
X55894000Y-107130500D02*
X46881499Y-116143001D01*
X160739999Y-20411999D02*
X63337999Y-20411999D01*
X161952000Y-21624000D02*
X160739999Y-20411999D01*
X48709999Y-20769999D02*
X48260000Y-20320000D01*
X48906001Y-20966001D02*
X48709999Y-20769999D01*
X62783997Y-20966001D02*
X48906001Y-20966001D01*
X63337999Y-20411999D02*
X62783997Y-20966001D01*
X213990999Y-118232999D02*
X212866000Y-117108000D01*
X213990999Y-120579973D02*
X213990999Y-118232999D01*
X216601026Y-123190000D02*
X213990999Y-120579973D01*
X252730000Y-144682964D02*
X231237036Y-123190000D01*
X254227055Y-146180020D02*
X252730000Y-144682964D01*
X393576020Y-146180020D02*
X254227055Y-146180020D01*
X397046901Y-149650901D02*
X393576020Y-146180020D01*
X231237036Y-123190000D02*
X216601026Y-123190000D01*
X439149099Y-149650901D02*
X397046901Y-149650901D01*
X455436000Y-133364000D02*
X439149099Y-149650901D01*
M02*
