G04 #@! TF.GenerationSoftware,KiCad,Pcbnew,(5.1.10)-1*
G04 #@! TF.CreationDate,2021-07-23T17:16:22+10:00*
G04 #@! TF.ProjectId,A1200KB,41313230-304b-4422-9e6b-696361645f70,rev?*
G04 #@! TF.SameCoordinates,Original*
G04 #@! TF.FileFunction,Copper,L2,Bot*
G04 #@! TF.FilePolarity,Positive*
%FSLAX46Y46*%
G04 Gerber Fmt 4.6, Leading zero omitted, Abs format (unit mm)*
G04 Created by KiCad (PCBNEW (5.1.10)-1) date 2021-07-23 17:16:22*
%MOMM*%
%LPD*%
G01*
G04 APERTURE LIST*
G04 #@! TA.AperFunction,ComponentPad*
%ADD10C,2.250000*%
G04 #@! TD*
G04 #@! TA.AperFunction,ComponentPad*
%ADD11C,1.524000*%
G04 #@! TD*
G04 #@! TA.AperFunction,ComponentPad*
%ADD12C,1.905000*%
G04 #@! TD*
G04 #@! TA.AperFunction,ComponentPad*
%ADD13R,1.905000X1.905000*%
G04 #@! TD*
G04 #@! TA.AperFunction,ViaPad*
%ADD14C,1.000000*%
G04 #@! TD*
G04 #@! TA.AperFunction,Conductor*
%ADD15C,0.800000*%
G04 #@! TD*
G04 APERTURE END LIST*
D10*
X400694000Y-109025600D03*
X394344000Y-111565600D03*
X79400800Y-185290400D03*
X73050800Y-187830400D03*
X438670800Y-195352000D03*
X445020800Y-192812000D03*
X202082800Y-192910400D03*
X195732800Y-195450400D03*
X465848800Y-187732000D03*
X472198800Y-185192000D03*
X66446800Y-130680400D03*
X72796800Y-128140400D03*
X427748800Y-149632000D03*
X434098800Y-147092000D03*
X216052800Y-82817600D03*
X222402800Y-80277600D03*
X239420800Y-147190400D03*
X233070800Y-149730400D03*
X189890800Y-80503600D03*
X183540800Y-83043600D03*
X330860800Y-140332400D03*
X337210800Y-137792400D03*
X427748800Y-130582000D03*
X434098800Y-128042000D03*
X446798800Y-168682000D03*
X453148800Y-166142000D03*
X187096800Y-109090400D03*
X180746800Y-111630400D03*
X63398800Y-80531600D03*
X57048800Y-83071600D03*
X91846800Y-109090400D03*
X85496800Y-111630400D03*
X110896800Y-109090400D03*
X104546800Y-111630400D03*
X129946800Y-109090400D03*
X123596800Y-111630400D03*
X148996800Y-109090400D03*
X142646800Y-111630400D03*
X168046800Y-109090400D03*
X161696800Y-111630400D03*
X206146800Y-109090400D03*
X199796800Y-111630400D03*
X225196800Y-109090400D03*
X218846800Y-111630400D03*
X244246800Y-109090400D03*
X237896800Y-111630400D03*
X263296800Y-109090400D03*
X256946800Y-111630400D03*
X282346800Y-109090400D03*
X275996800Y-111630400D03*
X301396800Y-109090400D03*
X295046800Y-111630400D03*
X320446800Y-109090400D03*
X314096800Y-111630400D03*
X339496800Y-109090400D03*
X333146800Y-111630400D03*
X427748800Y-111532000D03*
X434098800Y-108992000D03*
X446798800Y-111532000D03*
X453148800Y-108992000D03*
X465848800Y-111532000D03*
X472198800Y-108992000D03*
X484898800Y-111532000D03*
X491248800Y-108992000D03*
X101244800Y-128140400D03*
X94894800Y-130680400D03*
X120294800Y-128140400D03*
X113944800Y-130680400D03*
X139344800Y-128140400D03*
X132994800Y-130680400D03*
X158394800Y-128140400D03*
X152044800Y-130680400D03*
X177444800Y-128219200D03*
X171094800Y-130759200D03*
X196494800Y-128140400D03*
X190144800Y-130680400D03*
X215544800Y-128140400D03*
X209194800Y-130680400D03*
X234594800Y-128140400D03*
X228244800Y-130680400D03*
X253644800Y-128140400D03*
X247294800Y-130680400D03*
X272694800Y-128140400D03*
X266344800Y-130680400D03*
X291744800Y-128140400D03*
X285394800Y-130680400D03*
X310794800Y-128140400D03*
X304444800Y-130680400D03*
X446798800Y-130582000D03*
X453148800Y-128042000D03*
X465848800Y-130582000D03*
X472198800Y-128042000D03*
X484898800Y-130582000D03*
X491248800Y-128042000D03*
X106070800Y-147190400D03*
X99720800Y-149730400D03*
X125120800Y-147190400D03*
X118770800Y-149730400D03*
X144170800Y-147190400D03*
X137820800Y-149730400D03*
X163220800Y-147190400D03*
X156870800Y-149730400D03*
X182270800Y-147190400D03*
X175920800Y-149730400D03*
X201320800Y-147190400D03*
X194970800Y-149730400D03*
X220370800Y-147190400D03*
X214020800Y-149730400D03*
X258470800Y-147190400D03*
X252120800Y-149730400D03*
X277774800Y-147190400D03*
X271424800Y-149730400D03*
X296824800Y-147190400D03*
X290474800Y-149730400D03*
X315874800Y-147190400D03*
X309524800Y-149730400D03*
X386420000Y-147139600D03*
X380070000Y-149679600D03*
X446798800Y-149632000D03*
X453148800Y-147092000D03*
X465848800Y-149632000D03*
X472198800Y-147092000D03*
X484898800Y-149632000D03*
X491248800Y-147092000D03*
X96672800Y-166240400D03*
X90322800Y-168780400D03*
X115722800Y-166240400D03*
X109372800Y-168780400D03*
X134772800Y-166240400D03*
X128422800Y-168780400D03*
X153822800Y-166240400D03*
X147472800Y-168780400D03*
X172872800Y-166240400D03*
X166522800Y-168780400D03*
X191922800Y-166240400D03*
X185572800Y-168780400D03*
X210972800Y-166240400D03*
X204622800Y-168780400D03*
X230022800Y-166240400D03*
X223672800Y-168780400D03*
X242726800Y-168782400D03*
X249076800Y-166242400D03*
X268116800Y-166262400D03*
X261766800Y-168802400D03*
X287172800Y-166240400D03*
X280822800Y-168780400D03*
X367370000Y-166189600D03*
X361020000Y-168729600D03*
X386420000Y-166189600D03*
X380070000Y-168729600D03*
X405470000Y-166189600D03*
X399120000Y-168729600D03*
X427748800Y-168682000D03*
X434098800Y-166142000D03*
X465848800Y-168682000D03*
X472198800Y-166142000D03*
X68068800Y-109090400D03*
X61718800Y-111630400D03*
X372098000Y-109025600D03*
X365748000Y-111565600D03*
X298602800Y-185290400D03*
X292252800Y-187830400D03*
D11*
X184016800Y-98962400D03*
X185266800Y-101462400D03*
X186516800Y-98962400D03*
X187766800Y-101462400D03*
X189016800Y-98962400D03*
X190266800Y-101462400D03*
X191516800Y-98962400D03*
X192766800Y-101462400D03*
X194016800Y-98962400D03*
X195266800Y-101462400D03*
X196516800Y-98962400D03*
X197766800Y-101462400D03*
X199016800Y-98962400D03*
X200266800Y-101462400D03*
X201516800Y-98962400D03*
X202766800Y-101462400D03*
X204016800Y-98962400D03*
X205266800Y-101462400D03*
X206516800Y-98962400D03*
X207766800Y-101462400D03*
X209016800Y-98962400D03*
X210266800Y-101462400D03*
X211516800Y-98962400D03*
X212766800Y-101462400D03*
X214016800Y-98962400D03*
X215266800Y-101462400D03*
X216516800Y-98962400D03*
X217766800Y-101462400D03*
X219016800Y-98962400D03*
X220266800Y-101462400D03*
X221516800Y-98962400D03*
X222766800Y-101462400D03*
D10*
X88087200Y-82956400D03*
X94437200Y-80416400D03*
X111912800Y-83043600D03*
X118262800Y-80503600D03*
X142138800Y-80531600D03*
X135788800Y-83071600D03*
X159664800Y-83043600D03*
X166014800Y-80503600D03*
X246278800Y-80277600D03*
X239928800Y-82817600D03*
X263804800Y-82817600D03*
X270154800Y-80277600D03*
X294030800Y-80277600D03*
X287680800Y-82817600D03*
X311556800Y-82817600D03*
X317906800Y-80277600D03*
X65684800Y-147190400D03*
X59334800Y-149730400D03*
X87020800Y-147190400D03*
X80670800Y-149730400D03*
D12*
X83210800Y-157350400D03*
D13*
X85750800Y-157350400D03*
D10*
X64160800Y-168780400D03*
X70510800Y-166240400D03*
X316636800Y-168780400D03*
X322986800Y-166240400D03*
X491248800Y-176964000D03*
X493788800Y-183314000D03*
X96926800Y-187830400D03*
X103276800Y-185290400D03*
X316128800Y-187830400D03*
X322478800Y-185290400D03*
D14*
X352793401Y-109740599D03*
X61718800Y-96116800D03*
X484886000Y-103022400D03*
X201828400Y-96774000D03*
X96367600Y-94538800D03*
X461975200Y-104800400D03*
X223442601Y-145365399D03*
X205472202Y-104153798D03*
X123596800Y-105663600D03*
X460654400Y-105460800D03*
X203058400Y-95504000D03*
X142697200Y-93624400D03*
X185652701Y-187676499D03*
X159969801Y-104494999D03*
X175564800Y-107188000D03*
X209016800Y-83794800D03*
X421944800Y-142290800D03*
X421944800Y-175666400D03*
X255574800Y-174447200D03*
X254762000Y-160477200D03*
X202285799Y-157530601D03*
X336954072Y-163025900D03*
X336905600Y-183388000D03*
X246481600Y-92202000D03*
X271424800Y-138532000D03*
X275650226Y-106010174D03*
X294162113Y-92171887D03*
X309829200Y-198526400D03*
X427736000Y-159105600D03*
X373735600Y-195478400D03*
X320446800Y-104088800D03*
X394309600Y-107188000D03*
X482346000Y-174447200D03*
X277672800Y-187807600D03*
X253894799Y-102924401D03*
X277672800Y-162102800D03*
X209245200Y-160934400D03*
X148996400Y-101600000D03*
X380070000Y-119516800D03*
X315212899Y-119531299D03*
X484898800Y-145046800D03*
X427837600Y-144221200D03*
X205486000Y-135128000D03*
X424281600Y-135890000D03*
X211785200Y-116840000D03*
X211531200Y-183591200D03*
X363446000Y-128140400D03*
X330583600Y-128140400D03*
X215087801Y-181812599D03*
X372251901Y-164225901D03*
X372251901Y-147228899D03*
X58521600Y-103581200D03*
X158502962Y-101745438D03*
X347421200Y-173990000D03*
X198475600Y-126034800D03*
X56827610Y-101211190D03*
X216204800Y-185470800D03*
X213258400Y-83108800D03*
X72218401Y-92424399D03*
X73863200Y-100228400D03*
X494030000Y-118821200D03*
X241935000Y-118694200D03*
X237896400Y-107086400D03*
D15*
X190754801Y-81367601D02*
X189890800Y-80503600D01*
X190754801Y-98200401D02*
X190754801Y-81367601D01*
X191516800Y-98962400D02*
X190754801Y-98200401D01*
X318060701Y-90495852D02*
X321564000Y-93999151D01*
X318060701Y-80431501D02*
X318060701Y-90495852D01*
X317906800Y-80277600D02*
X318060701Y-80431501D01*
X321564000Y-96660029D02*
X321546810Y-96677219D01*
X321564000Y-93999151D02*
X321564000Y-96660029D01*
X321546810Y-96677219D02*
X321546810Y-102344810D01*
X321546810Y-102344810D02*
X323900800Y-104698800D01*
X323900800Y-104698800D02*
X347776800Y-104698800D01*
X347776800Y-104698800D02*
X352806000Y-109728000D01*
X57353801Y-83376601D02*
X57353801Y-86259001D01*
X57048800Y-83071600D02*
X57353801Y-83376601D01*
X61718800Y-90624000D02*
X61718800Y-96116800D01*
X57353801Y-86259001D02*
X61718800Y-90624000D01*
X61718800Y-113221390D02*
X62834899Y-114337489D01*
X61718800Y-111630400D02*
X61718800Y-113221390D01*
X73761799Y-142821399D02*
X80670800Y-149730400D01*
X73761799Y-133248599D02*
X73761799Y-142821399D01*
X72796800Y-132283600D02*
X73761799Y-133248599D01*
X72796800Y-128140400D02*
X72796800Y-132283600D01*
X80975801Y-150035401D02*
X80975801Y-162408201D01*
X80670800Y-149730400D02*
X80975801Y-150035401D01*
X87348000Y-168780400D02*
X90322800Y-168780400D01*
X80975801Y-162408201D02*
X87348000Y-168780400D01*
X61718800Y-96116800D02*
X61718800Y-111630400D01*
X484898800Y-103035200D02*
X484886000Y-103022400D01*
X484898800Y-111532000D02*
X484898800Y-103035200D01*
X72796800Y-125425374D02*
X72796800Y-128140400D01*
X62834899Y-115463473D02*
X72796800Y-125425374D01*
X62834899Y-114337489D02*
X62834899Y-115463473D01*
X89212199Y-84081399D02*
X89212199Y-87383399D01*
X88087200Y-82956400D02*
X89212199Y-84081399D01*
X104546800Y-102718000D02*
X104546800Y-111630400D01*
X89212199Y-87383399D02*
X96367600Y-94538800D01*
X105662899Y-114337489D02*
X105662899Y-115314899D01*
X104546800Y-113221390D02*
X105662899Y-114337489D01*
X104546800Y-111630400D02*
X104546800Y-113221390D01*
X113944800Y-123596800D02*
X113944800Y-130680400D01*
X105662899Y-115314899D02*
X113944800Y-123596800D01*
X114249801Y-130985401D02*
X114249801Y-133706201D01*
X113944800Y-130680400D02*
X114249801Y-130985401D01*
X118770800Y-138227200D02*
X118770800Y-149730400D01*
X114249801Y-133706201D02*
X118770800Y-138227200D01*
X119886899Y-152437489D02*
X119886899Y-153567299D01*
X118770800Y-151321390D02*
X119886899Y-152437489D01*
X118770800Y-149730400D02*
X118770800Y-151321390D01*
X128422800Y-162103200D02*
X128422800Y-168780400D01*
X119886899Y-153567299D02*
X128422800Y-162103200D01*
X204016800Y-98962400D02*
X201828400Y-96774000D01*
X201828400Y-96774000D02*
X201828400Y-96774000D01*
X96367600Y-94538800D02*
X104546800Y-102718000D01*
X461975200Y-126708400D02*
X465848800Y-130582000D01*
X461975200Y-104800400D02*
X461975200Y-126708400D01*
X123901801Y-111935401D02*
X123901801Y-114808601D01*
X123596800Y-111630400D02*
X123901801Y-111935401D01*
X132994800Y-123901600D02*
X132994800Y-130680400D01*
X123901801Y-114808601D02*
X132994800Y-123901600D01*
X134110899Y-131796499D02*
X134110899Y-135126899D01*
X132994800Y-130680400D02*
X134110899Y-131796499D01*
X137820800Y-138836800D02*
X137820800Y-149730400D01*
X134110899Y-135126899D02*
X137820800Y-138836800D01*
X138936899Y-152437489D02*
X138936899Y-153770499D01*
X137820800Y-151321390D02*
X138936899Y-152437489D01*
X137820800Y-149730400D02*
X137820800Y-151321390D01*
X147472800Y-162306400D02*
X147472800Y-168780400D01*
X138936899Y-153770499D02*
X147472800Y-162306400D01*
X123596800Y-111630400D02*
X123596800Y-105663600D01*
X112217801Y-83348601D02*
X111912800Y-83043600D01*
X112217801Y-88240201D02*
X112217801Y-83348601D01*
X123596800Y-99619200D02*
X112217801Y-88240201D01*
X223442601Y-133337199D02*
X210261801Y-120156399D01*
X223442601Y-145365399D02*
X223442601Y-133337199D01*
X210261801Y-110504399D02*
X205472202Y-105714800D01*
X210261801Y-120156399D02*
X210261801Y-110504399D01*
X205472202Y-101667802D02*
X205266800Y-101462400D01*
X205472202Y-105714800D02*
X205472202Y-104153798D01*
X205472202Y-104153798D02*
X205472202Y-101667802D01*
X123596800Y-105663600D02*
X123596800Y-99619200D01*
X142951801Y-111935401D02*
X142951801Y-114605401D01*
X142646800Y-111630400D02*
X142951801Y-111935401D01*
X152044800Y-123698400D02*
X152044800Y-130680400D01*
X142951801Y-114605401D02*
X152044800Y-123698400D01*
X153160899Y-133387489D02*
X153160899Y-135177699D01*
X152044800Y-132271390D02*
X153160899Y-133387489D01*
X152044800Y-130680400D02*
X152044800Y-132271390D01*
X156870800Y-138887600D02*
X156870800Y-149730400D01*
X153160899Y-135177699D02*
X156870800Y-138887600D01*
X157986899Y-152437489D02*
X157986899Y-153465699D01*
X156870800Y-151321390D02*
X157986899Y-152437489D01*
X156870800Y-149730400D02*
X156870800Y-151321390D01*
X166522800Y-162001600D02*
X166522800Y-168780400D01*
X157986899Y-153465699D02*
X166522800Y-162001600D01*
X136093801Y-83376601D02*
X136093801Y-86055801D01*
X135788800Y-83071600D02*
X136093801Y-83376601D01*
X142646800Y-92608800D02*
X142646800Y-111630400D01*
X136093801Y-86055801D02*
X142646800Y-92608800D01*
X460654400Y-163487600D02*
X465848800Y-168682000D01*
X460654400Y-105460800D02*
X460654400Y-163487600D01*
X206516800Y-98962400D02*
X203058400Y-95504000D01*
X203058400Y-95504000D02*
X203058400Y-95504000D01*
X162001801Y-111935401D02*
X162001801Y-114656201D01*
X161696800Y-111630400D02*
X162001801Y-111935401D01*
X171094800Y-123749200D02*
X171094800Y-130759200D01*
X162001801Y-114656201D02*
X171094800Y-123749200D01*
X171399801Y-131064201D02*
X171399801Y-134468201D01*
X171094800Y-130759200D02*
X171399801Y-131064201D01*
X175920800Y-138989200D02*
X175920800Y-149730400D01*
X171399801Y-134468201D02*
X175920800Y-138989200D01*
X177036899Y-150846499D02*
X177036899Y-153516499D01*
X175920800Y-149730400D02*
X177036899Y-150846499D01*
X185572800Y-162052400D02*
X185572800Y-168780400D01*
X177036899Y-153516499D02*
X185572800Y-162052400D01*
X159969801Y-109903401D02*
X161696800Y-111630400D01*
X159969801Y-83348601D02*
X159969801Y-104494999D01*
X159664800Y-83043600D02*
X159969801Y-83348601D01*
X185877801Y-187451399D02*
X185652701Y-187676499D01*
X185877801Y-169085401D02*
X185877801Y-187451399D01*
X185572800Y-168780400D02*
X185877801Y-169085401D01*
X159969801Y-104494999D02*
X159969801Y-109903401D01*
X187250701Y-118896301D02*
X196494800Y-128140400D01*
X187250701Y-109244301D02*
X187250701Y-118896301D01*
X187096800Y-109090400D02*
X187250701Y-109244301D01*
X197459799Y-143329399D02*
X201320800Y-147190400D01*
X197459799Y-132994599D02*
X197459799Y-143329399D01*
X196494800Y-132029600D02*
X197459799Y-132994599D01*
X196494800Y-128140400D02*
X196494800Y-132029600D01*
X202285799Y-148155399D02*
X202285799Y-157530601D01*
X201320800Y-147190400D02*
X202285799Y-148155399D01*
X182479798Y-83043600D02*
X183540800Y-83043600D01*
X175564800Y-89958598D02*
X182479798Y-83043600D01*
X175564800Y-107188000D02*
X175564800Y-89958598D01*
X209016800Y-98962400D02*
X209016800Y-83794800D01*
X209016800Y-83794800D02*
X209016800Y-83794800D01*
X202285799Y-157553399D02*
X210972800Y-166240400D01*
X421944800Y-142290800D02*
X421944800Y-175666400D01*
X421944800Y-175666400D02*
X421944800Y-175666400D01*
X255574800Y-174447200D02*
X255574800Y-161290000D01*
X255574800Y-161290000D02*
X254762000Y-160477200D01*
X254762000Y-160477200D02*
X254762000Y-160477200D01*
X202285799Y-157530601D02*
X202285799Y-157553399D01*
X225350701Y-127786301D02*
X228244800Y-130680400D01*
X225350701Y-109244301D02*
X225350701Y-127786301D01*
X225196800Y-109090400D02*
X225350701Y-109244301D01*
X229360899Y-133387489D02*
X229360899Y-134513473D01*
X228244800Y-132271390D02*
X229360899Y-133387489D01*
X228244800Y-130680400D02*
X228244800Y-132271390D01*
X230761727Y-135914301D02*
X230761727Y-135918127D01*
X229360899Y-134513473D02*
X230761727Y-135914301D01*
X233070800Y-138227200D02*
X233070800Y-149730400D01*
X230761727Y-135918127D02*
X233070800Y-138227200D01*
X233375801Y-150035401D02*
X233375801Y-152756201D01*
X233070800Y-149730400D02*
X233375801Y-150035401D01*
X242726800Y-162107200D02*
X242726800Y-168782400D01*
X233375801Y-152756201D02*
X242726800Y-162107200D01*
X222402800Y-80277600D02*
X213702000Y-80277600D01*
X211516800Y-82462800D02*
X211516800Y-98962400D01*
X213702000Y-80277600D02*
X211516800Y-82462800D01*
X222550701Y-80425501D02*
X222402800Y-80277600D01*
X222550701Y-85296503D02*
X222550701Y-80425501D01*
X225196800Y-87942602D02*
X222550701Y-85296503D01*
X225196800Y-109090400D02*
X225196800Y-87942602D01*
X336954072Y-183339528D02*
X336905600Y-183388000D01*
X336954072Y-163025900D02*
X336954072Y-183339528D01*
X258062899Y-114337489D02*
X258062899Y-115518099D01*
X256946800Y-113221390D02*
X258062899Y-114337489D01*
X256946800Y-111630400D02*
X256946800Y-113221390D01*
X266344800Y-123800000D02*
X266344800Y-130680400D01*
X258062899Y-115518099D02*
X266344800Y-123800000D01*
X267460899Y-133387489D02*
X267460899Y-134568099D01*
X266344800Y-132271390D02*
X267460899Y-133387489D01*
X266344800Y-130680400D02*
X266344800Y-132271390D01*
X271424800Y-138532000D02*
X271424800Y-138532000D01*
X267460899Y-134568099D02*
X271424800Y-138532000D01*
X271729801Y-150035401D02*
X271729801Y-152654601D01*
X271424800Y-149730400D02*
X271729801Y-150035401D01*
X280822800Y-161747600D02*
X280822800Y-168780400D01*
X271729801Y-152654601D02*
X280822800Y-161747600D01*
X241044899Y-83933699D02*
X241044899Y-86765299D01*
X239928800Y-82817600D02*
X241044899Y-83933699D01*
X256946800Y-102667200D02*
X256946800Y-111630400D01*
X241044899Y-86765299D02*
X256946800Y-102667200D01*
X271424800Y-138532000D02*
X271424800Y-149730400D01*
X264109801Y-85995575D02*
X275650226Y-97536000D01*
X264109801Y-83122601D02*
X264109801Y-85995575D01*
X263804800Y-82817600D02*
X264109801Y-83122601D01*
X275650226Y-111283826D02*
X275996800Y-111630400D01*
X275650226Y-97536000D02*
X275650226Y-106010174D01*
X277112899Y-114337489D02*
X277112899Y-115314899D01*
X275996800Y-113221390D02*
X277112899Y-114337489D01*
X275996800Y-111630400D02*
X275996800Y-113221390D01*
X285394800Y-123596800D02*
X285394800Y-130680400D01*
X277112899Y-115314899D02*
X285394800Y-123596800D01*
X286510899Y-131796499D02*
X286510899Y-134364899D01*
X285394800Y-130680400D02*
X286510899Y-131796499D01*
X290474800Y-138328800D02*
X290474800Y-149730400D01*
X286510899Y-134364899D02*
X290474800Y-138328800D01*
X275650226Y-106010174D02*
X275650226Y-111283826D01*
X287985801Y-85995575D02*
X294162113Y-92171887D01*
X287985801Y-83122601D02*
X287985801Y-85995575D01*
X287680800Y-82817600D02*
X287985801Y-83122601D01*
X294801826Y-111385426D02*
X295046800Y-111630400D01*
X294801826Y-92811600D02*
X294801826Y-111385426D01*
X294162113Y-92171887D02*
X294801826Y-92811600D01*
X296162899Y-114337489D02*
X296162899Y-115314899D01*
X295046800Y-113221390D02*
X296162899Y-114337489D01*
X295046800Y-111630400D02*
X295046800Y-113221390D01*
X304444800Y-123596800D02*
X304444800Y-130680400D01*
X296162899Y-115314899D02*
X304444800Y-123596800D01*
X305560899Y-133387489D02*
X305560899Y-134364899D01*
X304444800Y-132271390D02*
X305560899Y-133387489D01*
X304444800Y-130680400D02*
X304444800Y-132271390D01*
X309524800Y-138328800D02*
X309524800Y-149730400D01*
X305560899Y-134364899D02*
X309524800Y-138328800D01*
X311234451Y-163737779D02*
X311234451Y-197121149D01*
X309829801Y-162333129D02*
X311234451Y-163737779D01*
X309829801Y-150035401D02*
X309829801Y-162333129D01*
X309524800Y-149730400D02*
X309829801Y-150035401D01*
X311234451Y-197121149D02*
X309829200Y-198526400D01*
X309829200Y-198526400D02*
X309829200Y-198526400D01*
X427748800Y-159118400D02*
X427736000Y-159105600D01*
X427748800Y-168682000D02*
X427748800Y-159118400D01*
X334262899Y-134844499D02*
X337210800Y-137792400D01*
X334262899Y-112746499D02*
X334262899Y-134844499D01*
X333146800Y-111630400D02*
X334262899Y-112746499D01*
X311861801Y-83122601D02*
X311861801Y-85852601D01*
X311556800Y-82817600D02*
X311861801Y-83122601D01*
X320446800Y-94437600D02*
X320446800Y-104088800D01*
X311861801Y-85852601D02*
X320446800Y-94437600D01*
X366053001Y-162171599D02*
X373735600Y-169854198D01*
X366053001Y-111870601D02*
X366053001Y-162171599D01*
X365748000Y-111565600D02*
X366053001Y-111870601D01*
X373735600Y-169854198D02*
X373735600Y-195478400D01*
X373735600Y-195478400D02*
X373735600Y-195478400D01*
X320446800Y-104088800D02*
X320446800Y-109090400D01*
X386573901Y-166035699D02*
X386420000Y-166189600D01*
X386573901Y-147293501D02*
X386573901Y-166035699D01*
X386420000Y-147139600D02*
X386573901Y-147293501D01*
X392753010Y-111565600D02*
X394344000Y-111565600D01*
X386420000Y-117898610D02*
X392753010Y-111565600D01*
X386420000Y-147139600D02*
X386420000Y-117898610D01*
X394309600Y-111531200D02*
X394344000Y-111565600D01*
X394309600Y-107188000D02*
X394309600Y-111531200D01*
X483307810Y-130582000D02*
X481990400Y-131899410D01*
X484898800Y-130582000D02*
X483307810Y-130582000D01*
X483147701Y-173645499D02*
X482346000Y-174447200D01*
X483147701Y-167574677D02*
X483147701Y-173645499D01*
X481990400Y-166417376D02*
X483147701Y-167574677D01*
X481990400Y-131899410D02*
X481990400Y-166417376D01*
X59639801Y-164259401D02*
X64160800Y-168780400D01*
X59639801Y-150035401D02*
X59639801Y-164259401D01*
X59334800Y-149730400D02*
X59639801Y-150035401D01*
X64465801Y-179245401D02*
X73050800Y-187830400D01*
X64465801Y-169085401D02*
X64465801Y-179245401D01*
X64160800Y-168780400D02*
X64465801Y-169085401D01*
X323140701Y-184628499D02*
X322478800Y-185290400D01*
X323140701Y-166394301D02*
X323140701Y-184628499D01*
X322986800Y-166240400D02*
X323140701Y-166394301D01*
X277672800Y-187807600D02*
X277672800Y-187807600D01*
X253898400Y-114723002D02*
X253898400Y-102928002D01*
X253898400Y-102928002D02*
X253894799Y-102924401D01*
X263414602Y-134179402D02*
X263330598Y-134179402D01*
X268579600Y-153026202D02*
X268579600Y-139344400D01*
X276758400Y-161188400D02*
X276741798Y-161188400D01*
X263330598Y-124155200D02*
X253898400Y-114723002D01*
X276741798Y-161188400D02*
X268579600Y-153026202D01*
X277672800Y-162102800D02*
X277672800Y-162102800D01*
X263330598Y-134179402D02*
X263330598Y-124155200D01*
X268579600Y-139344400D02*
X263414602Y-134179402D01*
X277672800Y-187807600D02*
X277672800Y-162102800D01*
X277672800Y-162102800D02*
X276758400Y-161188400D01*
X190266800Y-101462400D02*
X192311811Y-103507411D01*
X192311811Y-118095009D02*
X200660000Y-126443198D01*
X192311811Y-103507411D02*
X192311811Y-118095009D01*
X200660000Y-126443198D02*
X200660000Y-143828598D01*
X209245200Y-160934400D02*
X209245200Y-160934400D01*
X205435801Y-157125001D02*
X209245200Y-160934400D01*
X205435801Y-148604399D02*
X205435801Y-157125001D01*
X200660000Y-143828598D02*
X205435801Y-148604399D01*
X148996800Y-101600400D02*
X148996400Y-101600000D01*
X148996800Y-109090400D02*
X148996800Y-101600400D01*
X315212899Y-114337489D02*
X315212899Y-119531299D01*
X314096800Y-113221390D02*
X315212899Y-114337489D01*
X314096800Y-111630400D02*
X314096800Y-113221390D01*
X380070000Y-149679600D02*
X380070000Y-119516800D01*
X380070000Y-119516800D02*
X380070000Y-119516800D01*
X315212899Y-119531299D02*
X315212899Y-119531299D01*
X86612899Y-112746499D02*
X86612899Y-115518099D01*
X85496800Y-111630400D02*
X86612899Y-112746499D01*
X94894800Y-123800000D02*
X94894800Y-130680400D01*
X86612899Y-115518099D02*
X94894800Y-123800000D01*
X95199801Y-130985401D02*
X95199801Y-133858601D01*
X94894800Y-130680400D02*
X95199801Y-130985401D01*
X99720800Y-138379600D02*
X99720800Y-149730400D01*
X95199801Y-133858601D02*
X99720800Y-138379600D01*
X100836899Y-152437489D02*
X100836899Y-153668899D01*
X99720800Y-151321390D02*
X100836899Y-152437489D01*
X99720800Y-149730400D02*
X99720800Y-151321390D01*
X109372800Y-162204800D02*
X109372800Y-168780400D01*
X100836899Y-153668899D02*
X109372800Y-162204800D01*
X484898800Y-149632000D02*
X484898800Y-145046800D01*
X484898800Y-145046800D02*
X484898800Y-145046800D01*
X428053801Y-111837001D02*
X428053801Y-117944599D01*
X427748800Y-111532000D02*
X428053801Y-111837001D01*
X428053801Y-117944599D02*
X424281600Y-121716800D01*
X424281600Y-140665200D02*
X427837600Y-144221200D01*
X424281600Y-121716800D02*
X424281600Y-135890000D01*
X202766800Y-105959398D02*
X202766800Y-101462400D01*
X196951799Y-111774399D02*
X202766800Y-105959398D01*
X196951799Y-115265399D02*
X196951799Y-111774399D01*
X205486000Y-123799600D02*
X196951799Y-115265399D01*
X205486000Y-135128000D02*
X205486000Y-123799600D01*
X424281600Y-135890000D02*
X424281600Y-140665200D01*
X200912899Y-114337489D02*
X200912899Y-115518099D01*
X199796800Y-113221390D02*
X200912899Y-114337489D01*
X199796800Y-111630400D02*
X199796800Y-113221390D01*
X209194800Y-123800000D02*
X209194800Y-130680400D01*
X200912899Y-115518099D02*
X209194800Y-123800000D01*
X210310899Y-133387489D02*
X210310899Y-134466499D01*
X209194800Y-132271390D02*
X210310899Y-133387489D01*
X209194800Y-130680400D02*
X209194800Y-132271390D01*
X214020800Y-138176400D02*
X214020800Y-149730400D01*
X210310899Y-134466499D02*
X214020800Y-138176400D01*
X214325801Y-150035401D02*
X214325801Y-152705401D01*
X214020800Y-149730400D02*
X214325801Y-150035401D01*
X223672800Y-162052400D02*
X223672800Y-168780400D01*
X214325801Y-152705401D02*
X223672800Y-162052400D01*
X447103801Y-111837001D02*
X447103801Y-123583399D01*
X446798800Y-111532000D02*
X447103801Y-111837001D01*
X447103801Y-123583399D02*
X442772800Y-127914400D01*
X442772800Y-145606000D02*
X446798800Y-149632000D01*
X442772800Y-127914400D02*
X442772800Y-145606000D01*
X210266800Y-101462400D02*
X211785200Y-102980800D01*
X211785200Y-102980800D02*
X211785200Y-116840000D01*
X211785200Y-116840000D02*
X211785200Y-116840000D01*
X193446400Y-117673950D02*
X194045425Y-118272975D01*
X193446400Y-102142000D02*
X193446400Y-117673950D01*
X192766800Y-101462400D02*
X193446400Y-102142000D01*
X194045425Y-118272975D02*
X201760010Y-125987559D01*
X201760010Y-125987559D02*
X201760010Y-143340010D01*
X201760010Y-143372960D02*
X206535811Y-148148760D01*
X201760010Y-143340010D02*
X201760010Y-143372960D01*
X212797801Y-162710999D02*
X212797801Y-168405399D01*
X206535811Y-156449009D02*
X212797801Y-162710999D01*
X206535811Y-148148760D02*
X206535811Y-156449009D01*
X212797801Y-168405399D02*
X211531200Y-169672000D01*
X211531200Y-169672000D02*
X211531200Y-183591200D01*
X211531200Y-183591200D02*
X211531200Y-183591200D01*
X183254801Y-99724399D02*
X183254801Y-104851151D01*
X184016800Y-98962400D02*
X183254801Y-99724399D01*
X176801789Y-127576189D02*
X177444800Y-128219200D01*
X176801789Y-111304162D02*
X176801789Y-127576189D01*
X183254801Y-104851151D02*
X176801789Y-111304162D01*
X363446000Y-162265600D02*
X363446000Y-128140400D01*
X367370000Y-166189600D02*
X363446000Y-162265600D01*
X330860800Y-128417600D02*
X330583600Y-128140400D01*
X330860800Y-140332400D02*
X330860800Y-128417600D01*
X203185989Y-143243290D02*
X207635821Y-147693121D01*
X207635821Y-147693121D02*
X207635821Y-155993371D01*
X203185989Y-125817589D02*
X203185989Y-143243290D01*
X194751779Y-117383379D02*
X203185989Y-125817589D01*
X194751779Y-110863121D02*
X194751779Y-117383379D01*
X195266800Y-110348100D02*
X194751779Y-110863121D01*
X195266800Y-101462400D02*
X195266800Y-110348100D01*
X215087801Y-163445351D02*
X215087801Y-181812599D01*
X207635821Y-155993371D02*
X215087801Y-163445351D01*
X215087801Y-181812599D02*
X215087801Y-181812599D01*
X372251901Y-109179501D02*
X372251901Y-147228899D01*
X372098000Y-109025600D02*
X372251901Y-109179501D01*
X372251901Y-164225901D02*
X372251901Y-164225901D01*
X372251901Y-147228899D02*
X372251901Y-164225901D01*
X177901799Y-114926401D02*
X177901799Y-111759801D01*
X182270800Y-119295402D02*
X177901799Y-114926401D01*
X182270800Y-147190400D02*
X182270800Y-119295402D01*
X185266800Y-104394800D02*
X185266800Y-101462400D01*
X177901799Y-111759801D02*
X185266800Y-104394800D01*
X63601799Y-145107399D02*
X63601799Y-120415351D01*
X65684800Y-147190400D02*
X63601799Y-145107399D01*
X63601799Y-120415351D02*
X57927620Y-114741172D01*
X57927620Y-114741172D02*
X57927620Y-104175180D01*
X57927620Y-104175180D02*
X58521600Y-103581200D01*
X58521600Y-103581200D02*
X58521600Y-103581200D01*
X158502962Y-101745438D02*
X158502962Y-114577564D01*
X158502962Y-114577564D02*
X158519564Y-114577564D01*
X158519564Y-114577564D02*
X168249600Y-124307600D01*
X168249600Y-124307600D02*
X168249600Y-137363200D01*
X172872800Y-141986400D02*
X172872800Y-166240400D01*
X168249600Y-137363200D02*
X172872800Y-141986400D01*
X195542899Y-195260499D02*
X195542899Y-177356499D01*
X195732800Y-195450400D02*
X195542899Y-195260499D01*
X192076701Y-166394301D02*
X191922800Y-166240400D01*
X192076701Y-173890301D02*
X192076701Y-166394301D01*
X195542899Y-177356499D02*
X192076701Y-173890301D01*
X339496800Y-109090400D02*
X347421200Y-117014800D01*
X347421200Y-117014800D02*
X347421200Y-173990000D01*
X347421200Y-173990000D02*
X347421200Y-173990000D01*
X491402701Y-127888099D02*
X491248800Y-128042000D01*
X491402701Y-109145901D02*
X491402701Y-127888099D01*
X491248800Y-108992000D02*
X491402701Y-109145901D01*
X472198800Y-185192000D02*
X472198800Y-178955600D01*
X472198800Y-178955600D02*
X476859600Y-174294800D01*
X476859600Y-151752800D02*
X472198800Y-147092000D01*
X476859600Y-174294800D02*
X476859600Y-151752800D01*
X453302701Y-146938099D02*
X453148800Y-147092000D01*
X453302701Y-128195901D02*
X453302701Y-146938099D01*
X453148800Y-128042000D02*
X453302701Y-128195901D01*
X453302701Y-165988099D02*
X453148800Y-166142000D01*
X453302701Y-147245901D02*
X453302701Y-165988099D01*
X453148800Y-147092000D02*
X453302701Y-147245901D01*
X453302701Y-166295901D02*
X453302701Y-177734899D01*
X453148800Y-166142000D02*
X453302701Y-166295901D01*
X444715799Y-192506999D02*
X445020800Y-192812000D01*
X444715799Y-186321801D02*
X444715799Y-192506999D01*
X453302701Y-177734899D02*
X444715799Y-186321801D01*
X444715799Y-186321801D02*
X444715799Y-186296199D01*
X435063799Y-167106999D02*
X434098800Y-166142000D01*
X435063799Y-176644199D02*
X435063799Y-167106999D01*
X444715799Y-186296199D02*
X435063799Y-176644199D01*
X434252701Y-147245901D02*
X434098800Y-147092000D01*
X434252701Y-165988099D02*
X434252701Y-147245901D01*
X434098800Y-166142000D02*
X434252701Y-165988099D01*
X434252701Y-128195901D02*
X434098800Y-128042000D01*
X434252701Y-146938099D02*
X434252701Y-128195901D01*
X434098800Y-147092000D02*
X434252701Y-146938099D01*
X187766800Y-101462400D02*
X191211801Y-104907401D01*
X191211801Y-104907401D02*
X191211801Y-118771001D01*
X191211801Y-118771001D02*
X198475600Y-126034800D01*
X198475600Y-126034800D02*
X198475600Y-126034800D01*
X65838701Y-150045303D02*
X62230000Y-146436602D01*
X70664701Y-169095303D02*
X65838701Y-164269303D01*
X70664701Y-176554301D02*
X70664701Y-169095303D01*
X65838701Y-164269303D02*
X65838701Y-150045303D01*
X79400800Y-185290400D02*
X70664701Y-176554301D01*
X62230000Y-146436602D02*
X62230000Y-120599200D01*
X62230000Y-120599200D02*
X56794400Y-115163600D01*
X56827610Y-115130390D02*
X56794400Y-115163600D01*
X56827610Y-101211190D02*
X56827610Y-115130390D01*
X216204800Y-185470800D02*
X216204800Y-185470800D01*
X200266800Y-106903750D02*
X200266800Y-101462400D01*
X195851789Y-111318760D02*
X200266800Y-106903750D01*
X204285999Y-124155248D02*
X195851789Y-115721038D01*
X210972400Y-142494000D02*
X204285999Y-135807599D01*
X204285999Y-135807599D02*
X204285999Y-124155248D01*
X216704799Y-158555401D02*
X210972400Y-152823002D01*
X195851789Y-115721038D02*
X195851789Y-111318760D01*
X210972400Y-152823002D02*
X210972400Y-142494000D01*
X216704799Y-184970801D02*
X216704799Y-158555401D01*
X216204800Y-185470800D02*
X216704799Y-184970801D01*
X221516800Y-98962400D02*
X221492000Y-98962400D01*
X221492000Y-98962400D02*
X219456000Y-96926400D01*
X216103200Y-96926400D02*
X212648800Y-93472000D01*
X219456000Y-96926400D02*
X216103200Y-96926400D01*
X212648800Y-93472000D02*
X212648800Y-83718400D01*
X212648800Y-83718400D02*
X213258400Y-83108800D01*
X213258400Y-83108800D02*
X213258400Y-83108800D01*
X91135801Y-153717899D02*
X91135801Y-143866201D01*
X87503300Y-157350400D02*
X91135801Y-153717899D01*
X85750800Y-157350400D02*
X87503300Y-157350400D01*
X91135801Y-142208726D02*
X72237600Y-123310525D01*
X91135801Y-143866201D02*
X91135801Y-142208726D01*
X72237600Y-123310525D02*
X72237600Y-92456000D01*
X83516263Y-159002901D02*
X87478699Y-159002901D01*
X83210800Y-158697438D02*
X83516263Y-159002901D01*
X83210800Y-157350400D02*
X83210800Y-158697438D01*
X92235811Y-141753087D02*
X91591439Y-141108716D01*
X92235811Y-154245789D02*
X92235811Y-141753087D01*
X87478699Y-159002901D02*
X92235811Y-154245789D01*
X91591439Y-141108716D02*
X73337610Y-122854887D01*
X73337610Y-122854887D02*
X73337610Y-100753990D01*
X73337610Y-100753990D02*
X73863200Y-100228400D01*
X73863200Y-100228400D02*
X73863200Y-100228400D01*
X238201801Y-111935401D02*
X238201801Y-114961001D01*
X237896800Y-111630400D02*
X238201801Y-111935401D01*
X247294800Y-124054000D02*
X247294800Y-130680400D01*
X238201801Y-114961001D02*
X241935000Y-118694200D01*
X247599801Y-133702375D02*
X251667026Y-137769600D01*
X247599801Y-130985401D02*
X247599801Y-133702375D01*
X247294800Y-130680400D02*
X247599801Y-130985401D01*
X251667026Y-149276626D02*
X252120800Y-149730400D01*
X251667026Y-137769600D02*
X251667026Y-149276626D01*
X253236899Y-152437489D02*
X253236899Y-153516499D01*
X252120800Y-151321390D02*
X253236899Y-152437489D01*
X252120800Y-149730400D02*
X252120800Y-151321390D01*
X261766800Y-162046400D02*
X261766800Y-168802400D01*
X253236899Y-153516499D02*
X261766800Y-162046400D01*
X495363801Y-120155001D02*
X495363801Y-153555399D01*
X494030000Y-118821200D02*
X495363801Y-120155001D01*
X495363801Y-153555399D02*
X488492800Y-160426400D01*
X491248800Y-175373010D02*
X491248800Y-176964000D01*
X488492800Y-172617010D02*
X491248800Y-175373010D01*
X488492800Y-160426400D02*
X488492800Y-172617010D01*
X241935000Y-118694200D02*
X247294800Y-124054000D01*
X237896400Y-111630000D02*
X237896800Y-111630400D01*
X237896400Y-107086400D02*
X237896400Y-111630000D01*
M02*
