M48
METRIC,TZ
T1C0.600
T2C0.850
T3C1.040
T4C1.470
T5C3.400
T6C1.750
T7C3.048
T8C3.988
%
G90
G05
T1
X22480Y-44290
X23250Y-47280
X23900Y-51900
X24505Y-45265
X32530Y-49890
X46307Y-51153
X48040Y-46240
X49020Y-48910
X51670Y-53390
X55550Y-44700
X58680Y-52410
X80771Y-53589
X103273Y-44097
X126715Y-54155
X132721Y-143779
X149764Y-43106
X151680Y-145150
X152550Y-78160
X153830Y-95460
X156180Y-62550
X161956Y-125784
X164830Y-95450
X167650Y-93950
X168915Y-56575
X180160Y-40210
X181006Y-138696
X181400Y-42070
X182520Y-138670
X182660Y-40950
X185160Y-43260
X189816Y-111784
X210050Y-129220
X214779Y-94041
X237568Y-94742
X277630Y-126560
X277660Y-134540
X297004Y-78984
X297015Y-112775
X303300Y-142720
X305600Y-115760
X338062Y-97348
X338062Y-117468
X346073Y-67567
X394080Y-96360
T2
X150160Y-49890
X151410Y-52390
X152660Y-49890
X153910Y-52390
X155160Y-49890
X156410Y-52390
X157660Y-49890
X158910Y-52390
X160160Y-49890
X161410Y-52390
X162660Y-49890
X163910Y-52390
X165160Y-49890
X166410Y-52390
X167660Y-49890
X168910Y-52390
X170160Y-49890
X171410Y-52390
X172660Y-49890
X173910Y-52390
X175160Y-49890
X176410Y-52390
X177660Y-49890
X178910Y-52390
X180160Y-49890
X181410Y-52390
X182660Y-49890
X183910Y-52390
X185160Y-49890
X186410Y-52390
X187660Y-49890
X188910Y-52390
T3
X49354Y-108278
X51894Y-108278
T4
X101932Y-34558
X108282Y-32018
X63070Y-138758
X69420Y-136218
X70690Y-62558
X77040Y-60018
X232488Y-81608
X238838Y-79068
X161114Y-100658
X346034Y-119708
X352384Y-117168
X94566Y-119708
X100916Y-117168
X151716Y-119708
X158066Y-117168
X223090Y-62558
X229440Y-60018
X275668Y-100658
X282018Y-98118
X333334Y-117168
X412966Y-119762
X419316Y-117222
X412966Y-62612
X167464Y-98118
X346034Y-100658
X352384Y-98118
X432016Y-138812
X438366Y-136272
X75516Y-119708
X81866Y-117168
X331712Y-62544
X338062Y-60004
X204040Y-62558
X210390Y-60018
X261190Y-62558
X267540Y-60018
X54180Y-34558
X60530Y-32018
X23192Y-34558
X29542Y-32018
X160606Y-138758
X326984Y-119708
X166956Y-136218
X99138Y-81608
X105488Y-79068
X194388Y-81608
X200738Y-79068
X30304Y-119708
X36654Y-117168
X251538Y-81608
X257888Y-79068
X419316Y-60072
X432016Y-81662
X432016Y-100712
X438366Y-98172
X61038Y-81608
X67388Y-79068
X206072Y-34304
X212422Y-31764
X108790Y-62558
X115140Y-60018
X118188Y-81608
X124538Y-79068
X277700Y-34304
X284050Y-31764
X175338Y-81608
X181688Y-79068
X84914Y-100658
X91264Y-98118
X142064Y-100658
X148414Y-98118
X400266Y-98172
X365084Y-119708
X371434Y-117168
X113616Y-119708
X119966Y-117168
X170766Y-119708
X177116Y-117168
X237568Y-100658
X243918Y-98118
X282272Y-138758
X288622Y-136218
X438366Y-79122
X393916Y-119762
X400266Y-117222
X25478Y-100658
X31828Y-98118
X393916Y-100712
X146890Y-62558
X153240Y-60018
X432016Y-62612
X438366Y-60072
X180164Y-100658
X213438Y-81608
X219788Y-79068
X282780Y-119708
X289130Y-117168
X80088Y-81608
X86438Y-79068
X229948Y-34304
X236298Y-31764
X127840Y-62558
X134190Y-60018
X137238Y-81608
X143588Y-79068
X451066Y-100712
X457416Y-98172
X270588Y-81608
X276938Y-79068
X432016Y-119762
X438366Y-117222
X46814Y-100658
X53164Y-98118
X56466Y-119708
X62816Y-117168
X165940Y-62558
X172290Y-60018
X218264Y-100658
X224614Y-98118
X27862Y-62558
X34212Y-60018
X208870Y-119710
X215220Y-117170
X149684Y-34530
X156034Y-31990
X451066Y-81662
X457416Y-79122
X32590Y-81608
X38940Y-79068
X412966Y-100712
X412966Y-81662
X419316Y-79122
X103964Y-100658
X110314Y-98118
X132666Y-119708
X139016Y-117168
X227910Y-119730
X234260Y-117190
X199214Y-100658
X205564Y-98118
X256618Y-100658
X262968Y-98118
X393916Y-81662
X400266Y-79122
X393916Y-62612
X400266Y-60072
X451066Y-62612
X457416Y-60072
X132158Y-31990
X297004Y-91260
X303354Y-88720
X182196Y-34304
X188546Y-31764
X89740Y-62558
X96090Y-60018
X253824Y-34304
X260174Y-31764
X419316Y-98172
X125808Y-34530
X184990Y-62558
X191340Y-60018
X156288Y-81608
X242140Y-62558
X248490Y-60018
X196166Y-117168
X189816Y-119708
X246966Y-119708
X253316Y-117168
X51640Y-62558
X57990Y-60018
X162638Y-79068
X186514Y-98118
X360308Y-62544
X366658Y-60004
X258396Y-138758
X264746Y-136218
X449796Y-129314
X452336Y-135664
X280240Y-62558
X286590Y-60018
X78056Y-34530
X84406Y-31990
X123014Y-100658
X129364Y-98118
X403568Y-138812
X39194Y-138758
X45544Y-136218
X65864Y-100658
X409918Y-136272
X72214Y-98118
X299290Y-62558
X305640Y-60018
T5
X328000Y-18000
X226000Y-18000
X35000Y-18000
X465000Y-113000
X140000Y-18000
X448000Y-152000
X419000Y-18000
X328000Y-152000
X465000Y-53000
X240000Y-152000
X140000Y-152000
X35000Y-152000
X18000Y-113000
X18000Y-53000
T6
X252554Y-36844
X262714Y-36844
X155018Y-84148
X100662Y-37098
X165178Y-84148
X64594Y-103198
X74754Y-103198
X121744Y-103198
X131904Y-103198
X159300Y-141310
X169460Y-141310
X344764Y-122248
X354924Y-122248
X93296Y-122248
X103456Y-122248
X110822Y-37098
X61800Y-141298
X71960Y-141298
X69420Y-65098
X150446Y-122248
X160606Y-122248
X79580Y-65098
X221820Y-65098
X231218Y-84148
X231980Y-65098
X241378Y-84148
X274398Y-103198
X284558Y-103198
X325714Y-122248
X335874Y-122248
X411696Y-122302
X421856Y-122302
X411696Y-65152
X421856Y-65152
X159844Y-103198
X170004Y-103198
X344764Y-103198
X354924Y-103198
X430746Y-141352
X440906Y-141352
X430746Y-103252
X440906Y-103252
X74246Y-122248
X84406Y-122248
X59768Y-84148
X69928Y-84148
X330442Y-65084
X340602Y-65084
X202770Y-65098
X204802Y-36844
X214962Y-36844
X212930Y-65098
X259920Y-65098
X270080Y-65098
X52910Y-37098
X63070Y-37098
X21922Y-37098
X32082Y-37098
X159336Y-141298
X169496Y-141298
X97868Y-84148
X108028Y-84148
X107520Y-65098
X117680Y-65098
X116918Y-84148
X392646Y-84202
X197944Y-103198
X208104Y-103198
X255348Y-103198
X265508Y-103198
X402806Y-84202
X392646Y-65152
X402806Y-65152
X260428Y-84148
X124538Y-37070
X134698Y-37070
X88470Y-65098
X98630Y-65098
X178894Y-103198
X189054Y-103198
X359038Y-65084
X369198Y-65084
X449796Y-65152
X459956Y-65152
X193118Y-84148
X203278Y-84148
X29034Y-122248
X39194Y-122248
X250268Y-84148
X430746Y-84202
X392646Y-122302
X402806Y-122302
X24208Y-103198
X34368Y-103198
X305894Y-93800
X440906Y-84202
X295734Y-93800
X180926Y-36844
X191086Y-36844
X188546Y-122248
X198706Y-122248
X127078Y-84148
X257126Y-141298
X267286Y-141298
X402298Y-141352
X412458Y-141352
X245696Y-122248
X140794Y-103198
X150954Y-103198
X392646Y-103252
X402806Y-103252
X363814Y-122248
X373974Y-122248
X112346Y-122248
X169496Y-122248
X179656Y-122248
X236298Y-103198
X246458Y-103198
X281002Y-141298
X291162Y-141298
X155780Y-65098
X440906Y-65152
X78818Y-84148
X88978Y-84148
X228678Y-36844
X238838Y-36844
X255856Y-122248
X122506Y-122248
X454876Y-126774
X454876Y-136934
X278970Y-65098
X289130Y-65098
X76786Y-37070
X86946Y-37070
X37924Y-141298
X48084Y-141298
X126570Y-65098
X136730Y-65098
X135968Y-84148
X146128Y-84148
X50370Y-65098
X145620Y-65098
X60530Y-65098
X212168Y-84148
X222328Y-84148
X281510Y-122248
X291670Y-122248
X449796Y-103252
X459956Y-103252
X269318Y-84148
X279478Y-84148
X430746Y-122302
X440906Y-122302
X164670Y-65098
X174830Y-65098
X216994Y-103198
X227154Y-103198
X26592Y-65098
X36752Y-65098
X158574Y-37070
X276430Y-36844
X286590Y-36844
X45544Y-103198
X55704Y-103198
X65356Y-122248
X148414Y-37070
X174068Y-84148
X184228Y-84148
X93804Y-103198
X55196Y-122248
X207600Y-122250
X83644Y-103198
X430746Y-65152
X217760Y-122250
X449796Y-84202
X459956Y-84202
X31320Y-84148
X41480Y-84148
X411696Y-103252
X411696Y-84202
X421856Y-84202
X102694Y-103198
X421856Y-103252
X112854Y-103198
X131396Y-122248
X141556Y-122248
X226640Y-122270
X236800Y-122270
X183720Y-65098
X193880Y-65098
X240870Y-65098
X251030Y-65098
X298020Y-65098
X308180Y-65098
T7
X97705Y-134325
X395472Y-134367
X24494Y-77163
X298496Y-115263
X231055Y-134325
X221566Y-134313
X48306Y-77163
X293829Y-81862
X447891Y-119948
X293829Y-105738
X107266Y-134313
X419284Y-134367
X447891Y-143760
X274684Y-115263
T8
X416776Y-103252
X188800Y-65098
X245950Y-65098
X303100Y-65098
X105742Y-37028
X74500Y-65098
X236298Y-84148
X164924Y-103198
X349844Y-103198
X257634Y-37000
X66880Y-141298
X160098Y-84148
X69674Y-103198
X126824Y-103198
X97705Y-149565
X164380Y-141310
X231055Y-149565
X349844Y-122248
X98376Y-122248
X155526Y-122248
X226900Y-65098
X279478Y-103198
X330794Y-122248
X416776Y-122302
X416776Y-65152
X435826Y-141352
X435826Y-103252
X335522Y-65084
X64848Y-84148
X209882Y-37000
X112600Y-65098
X281510Y-37000
X207850Y-65098
X58000Y-37000
X88724Y-103198
X397726Y-103252
X27002Y-37098
X164416Y-141298
X368894Y-122248
X117426Y-122248
X174576Y-122248
X79326Y-122248
X265000Y-65098
X107266Y-149553
X221566Y-149553
X102948Y-84148
X121998Y-84148
X179148Y-84148
X145874Y-103198
X198198Y-84148
X241378Y-103198
X34114Y-122248
X255348Y-84148
X286082Y-141298
X435826Y-84202
X397726Y-122302
X29288Y-103198
X150700Y-65098
X183974Y-103198
X364118Y-65084
X193626Y-122248
X262206Y-141298
X395472Y-149607
X407378Y-141352
X419284Y-149607
X250776Y-122248
X454876Y-131854
X463131Y-119948
X463131Y-143760
X284050Y-65098
X81866Y-37000
X43004Y-141298
X55450Y-65098
X217248Y-84148
X274684Y-130503
X286590Y-122248
X298496Y-130503
X454876Y-103252
X274398Y-84148
X435826Y-65152
X83898Y-84148
X435826Y-122302
X50624Y-103198
X60276Y-122248
X233758Y-37000
X169750Y-65098
X222074Y-103198
X31672Y-65098
X212680Y-122250
X153494Y-37000
X131650Y-65098
X141048Y-84148
X454876Y-84202
X24494Y-92403
X36400Y-84148
X48306Y-92403
X416776Y-84202
X107774Y-103198
X136476Y-122248
X231720Y-122270
X203024Y-103198
X260428Y-103198
X397726Y-84202
X397726Y-65152
X454876Y-65152
X129618Y-37000
X300814Y-93800
X309069Y-81862
X309069Y-105738
X186000Y-37000
X93550Y-65098
T0
M30
